<svg width="27" height="20" viewBox="0 0 27 20" fill="none" xmlns="http://www.w3.org/2000/svg">
<rect width="27" height="20" rx="2" fill="#D8D6CD"/>
<rect x="1" y="1" width="25" height="13" rx="2" fill="#5BA3D2"/>
<rect x="1" y="3" width="25" height="14" rx="2" fill="#F3B23F"/>
<rect x="1" y="5" width="25" height="14" rx="2" fill="#69C254"/>
<rect x="1" y="7" width="25" height="12" rx="2" fill="#E27565"/>
<path fill-rule="evenodd" clip-rule="evenodd" d="M20.2165 10C20.0602 10 19.9028 10 19.7464 10.001C19.6146 10.002 19.4828 10.003 19.351 10.007C19.0638 10.015 18.7736 10.031 18.4895 10.081C18.2013 10.132 17.9326 10.2151 17.6709 10.3451C17.6372 10.3621 16.9168 10.6822 16.2689 11.6685C15.7773 12.4177 14.8208 13.212 13.4811 13.212C12.1424 13.212 11.1859 12.4177 10.6933 11.6685C10.0117 10.6292 9.23402 10.3171 9.29022 10.3451C9.02861 10.2141 8.75985 10.131 8.47167 10.081C8.18758 10.031 7.89735 10.014 7.6102 10.007C7.47837 10.004 7.34654 10.002 7.21472 10.001C7.05836 10 6.90099 10 6.74463 10H0V15H27V10H20.2165Z" fill="#DDDBCF"/>
<path d="M0 14H27V18C27 19.1046 26.1046 20 25 20H2C0.895431 20 0 19.1046 0 18V14Z" fill="#DDDBCF"/>
</svg>
