<svg width="41" height="17" viewBox="0 0 41 17" fill="none" xmlns="http://www.w3.org/2000/svg">
<path fill-rule="evenodd" clip-rule="evenodd" d="M19.2649 2.63481V6.71786H21.7829C22.3827 6.71786 22.8788 6.51627 23.2712 6.1131C23.6738 5.71086 23.8756 5.23116 23.8756 4.67587C23.8756 4.13177 23.6738 3.65767 23.2712 3.2545C22.8788 2.84106 22.3827 2.63387 21.7829 2.63387H19.2649V2.63481ZM19.2649 8.1551V12.8914H17.7607V1.19757H21.7501C22.7639 1.19757 23.6244 1.53541 24.3334 2.21017C25.0529 2.88492 25.4125 3.70713 25.4125 4.67587C25.4125 5.667 25.0528 6.49481 24.3334 7.15836C23.6355 7.82285 22.7741 8.15416 21.7501 8.15416H19.2649V8.1551Z" fill="white"/>
<path fill-rule="evenodd" clip-rule="evenodd" d="M26.9326 10.4416C26.9326 10.8336 27.0989 11.1602 27.4316 11.4215C27.7641 11.6828 28.1537 11.8135 28.6004 11.8135C29.2328 11.8135 29.7962 11.5792 30.2923 11.1117C30.7885 10.6432 31.036 10.0935 31.036 9.46259C30.5669 9.09208 29.9129 8.90729 29.074 8.90729C28.463 8.90729 27.9538 9.05475 27.5456 9.34873C27.1372 9.64262 26.9326 10.0058 26.9326 10.4416ZM28.8787 4.62732C29.9905 4.62732 30.8678 4.9241 31.5116 5.51766C32.1544 6.11122 32.4757 6.92503 32.4757 7.95909V12.8914H31.037V11.7808H30.9715C30.3502 12.6953 29.5215 13.1527 28.4864 13.1527C27.6035 13.1527 26.8645 12.8914 26.2711 12.3688C25.677 11.8462 25.3799 11.1929 25.3799 10.4089C25.3799 9.58111 25.6928 8.92307 26.3197 8.43319C26.9466 7.94323 27.7829 7.69778 28.8293 7.69778C29.7223 7.69778 30.4586 7.8611 31.036 8.18774V7.8443C31.036 7.32167 30.8285 6.87837 30.4147 6.51346C29.9998 6.14855 29.5159 5.96656 28.96 5.96656C28.12 5.96656 27.4559 6.32027 26.9654 7.02862L25.6405 6.19521C26.3711 5.14995 27.4502 4.62732 28.8787 4.62732Z" fill="white"/>
<path fill-rule="evenodd" clip-rule="evenodd" d="M40.7322 4.88867L35.7124 16.4192H34.1595L36.0235 12.3847L32.7207 4.88867H34.3557L36.7428 10.6376H36.7755L39.0972 4.88867H40.7322Z" fill="white"/>
<path fill-rule="evenodd" clip-rule="evenodd" d="M13.1862 7.13407C13.1862 6.6609 13.146 6.20453 13.0704 5.76776H6.72656V8.35572H10.36C10.204 9.1993 9.73216 9.91708 9.0165 10.3977V12.0785H11.185C12.4547 10.9082 13.1862 9.17886 13.1862 7.13407Z" fill="#4285F4"/>
<path fill-rule="evenodd" clip-rule="evenodd" d="M6.72706 13.7006C8.54237 13.7006 10.0709 13.1052 11.1855 12.0786L9.01699 10.3977C8.41344 10.8037 7.63612 11.0408 6.72706 11.0408C4.97247 11.0408 3.48322 9.85925 2.95067 8.26709H0.716797V9.99831C1.82393 12.1934 4.09891 13.7006 6.72706 13.7006Z" fill="#34A853"/>
<path fill-rule="evenodd" clip-rule="evenodd" d="M2.95047 8.26705C2.81407 7.86108 2.73933 7.42804 2.73933 6.98101C2.73933 6.53397 2.81407 6.10093 2.95047 5.69496V3.96375H0.716597C0.258797 4.87088 0 5.89561 0 6.98101C0 8.0664 0.258797 9.09122 0.716597 9.99827L2.95047 8.26705Z" fill="#FABB05"/>
<path fill-rule="evenodd" clip-rule="evenodd" d="M6.72706 2.92129C7.71833 2.92129 8.60684 3.26194 9.30755 3.92922V3.93016L11.2275 2.01229C10.0615 0.927829 8.54144 0.261475 6.72706 0.261475C4.09891 0.261475 1.82393 1.76871 0.716797 3.96376L2.95067 5.69497C3.48322 4.10281 4.97247 2.92129 6.72706 2.92129Z" fill="#E94235"/>
</svg>
