<svg width="167" height="50" viewBox="0 0 167 50" fill="none" xmlns="http://www.w3.org/2000/svg">
<path d="M164.443 17.8148H164.672C164.91 17.8148 165.147 17.7416 165.147 17.5312C165.147 17.3574 165.019 17.2202 164.708 17.2202C164.58 17.2202 164.507 17.2385 164.443 17.2385V17.8148ZM164.443 18.8484H164.105V17.0098C164.288 16.9732 164.48 16.9549 164.736 16.9549C165.038 16.9549 165.193 17.0098 165.303 17.0922C165.413 17.1745 165.486 17.3117 165.486 17.4946C165.486 17.7142 165.321 17.8605 165.138 17.9245V17.9428C165.285 18.0069 165.376 18.1532 165.431 18.4002C165.486 18.6746 165.532 18.7844 165.568 18.8484H165.221C165.166 18.7844 165.12 18.6197 165.065 18.3819C165.019 18.1715 164.9 18.08 164.653 18.08H164.434V18.8575L164.443 18.8484ZM164.745 16.4336C163.958 16.4336 163.364 17.083 163.364 17.8788C163.364 18.6746 163.967 19.3332 164.772 19.3332C165.55 19.3423 166.135 18.6929 166.135 17.888C166.135 17.083 165.55 16.4336 164.772 16.4336H164.754H164.745ZM164.763 16.1226C165.742 16.1226 166.501 16.8909 166.501 17.8788C166.501 18.8667 165.742 19.6533 164.754 19.6533C163.766 19.6533 162.979 18.885 162.979 17.8788C162.979 16.8726 163.766 16.1226 164.754 16.1226H164.763Z" fill="#16262C"/>
<path d="M150.805 32.313C150.677 32.313 150.448 32.2947 150.238 32.2581C150.137 32.2398 150.036 32.2215 149.963 32.2032C149.927 32.1941 149.899 32.1849 149.881 32.1758C149.863 32.1758 149.753 31.8922 149.762 31.8008V26.0655H161.205V24.108H149.762V18.9674C149.753 18.8027 149.817 18.446 149.899 18.4185C149.908 18.3728 150.402 18.2356 150.594 18.2539H161.461V16.2873H150.384C149.68 16.2873 148.829 16.333 148.198 17.0556C148.033 17.2386 147.576 17.8514 147.585 18.9582V31.4898C147.585 32.1301 147.594 32.9899 148.28 33.6393C148.93 34.2522 149.707 34.2613 150.283 34.2613H161.571V32.2947H150.796L150.805 32.313ZM136.663 32.2398C136.618 32.3496 136.59 32.3587 136.59 32.3587C136.59 32.3587 136.563 32.3404 136.508 32.2398L130.041 16.2964H127.608L134.642 33.0997C135.136 34.3071 136.197 34.4717 136.535 34.4717H136.581C137.697 34.4717 138.31 33.6302 138.52 33.0997L145.554 16.2964H143.121L136.654 32.2398H136.663ZM122.513 34.2796H124.699V16.2964H122.513V34.2796ZM102.856 18.263H110.146V34.2796H112.323V18.263H119.915V16.2964H102.856V18.263ZM91.4583 27.3004L95.1812 18.8576C95.2635 18.6747 95.355 18.446 95.4556 18.2813C95.5013 18.2082 95.5379 18.1533 95.5654 18.1258C95.602 18.1533 95.666 18.2265 95.7209 18.3454C95.8123 18.5009 95.8855 18.7021 95.9587 18.8576L99.6724 27.3004H91.4492H91.4583ZM95.5654 16.1043C94.2116 16.1043 93.5987 17.2203 93.1871 18.1533L85.9975 34.2796H88.3666L90.5619 29.267H100.56L102.764 34.2796H105.133L97.9436 18.1533C97.5411 17.2477 96.9283 16.1135 95.5654 16.1043ZM81.3233 32.2764C81.3233 32.2764 81.241 32.1849 81.1404 32.0294L71.6091 17.4398C71.2341 16.8452 70.6486 16.086 69.4961 16.1043C69.3223 16.1043 68.8192 16.1043 68.3344 16.3879C67.8313 16.6623 67.3831 17.2752 67.4014 18.2448V34.2888H69.5784V18.4003C69.5784 18.2813 69.5967 18.2996 69.5967 18.2996C69.6516 18.3179 69.7705 18.4185 69.8254 18.5283L79.311 33.0631C79.8506 33.9412 80.4543 34.49 81.3965 34.49H81.4514C82.1008 34.49 82.6496 34.2522 82.9972 33.8131C83.3448 33.3741 83.5003 32.8161 83.5003 32.1849V16.3147H81.3142V32.2856L81.3233 32.2764Z" fill="#16262C"/>
<path d="M14.915 12.3539C14.5309 14.3937 12.5734 15.7475 10.5336 15.3633C8.49377 14.9882 7.14 13.0216 7.52417 10.9818C7.89921 8.942 9.86583 7.59738 11.9056 7.97241C13.9454 8.35659 15.2992 10.3049 14.915 12.3539Z" fill="#0BBBEF"/>
<path d="M13.5982 2.85925C13.3604 4.17644 12.0981 5.03626 10.7809 4.79844C9.46375 4.56062 8.60392 3.28917 8.84175 1.98113C9.08872 0.663949 10.351 -0.205026 11.6591 0.0419462C12.9671 0.279771 13.8452 1.55122 13.5982 2.85925Z" fill="#83D0F5"/>
<path d="M13.5982 48.0276C13.3604 49.3356 12.0981 50.2046 10.7809 49.9576C9.46375 49.7106 8.60392 48.4483 8.84175 47.1403C9.08872 45.8231 10.351 44.9633 11.6682 45.2103C12.9762 45.4481 13.8544 46.7104 13.6074 48.0276" fill="#83D0F5"/>
<path d="M6.92067 25.279C6.60967 26.9712 4.98149 28.0963 3.28012 27.7761C1.58791 27.4651 0.462814 25.837 0.782963 24.1356C1.09396 22.4434 2.72215 21.3183 4.41436 21.6384C6.10658 21.9494 7.23168 23.5776 6.91153 25.279" fill="#0BBBEF"/>
<path d="M6.53655 15.7752C6.26214 17.257 4.83519 18.2449 3.35336 17.9614C1.87152 17.6869 0.892785 16.26 1.1672 14.7782C1.44161 13.2963 2.85941 12.3176 4.35039 12.592C5.83222 12.8664 6.82011 14.2842 6.5457 15.7661" fill="#83D0F5"/>
<path d="M5.75884 7.34153C5.56675 8.39345 4.55142 9.08863 3.4995 8.89654C2.44758 8.70445 1.75241 7.68912 1.9445 6.6372C2.13658 5.58528 3.15191 4.8901 4.20383 5.08219C5.25575 5.27428 5.95093 6.28961 5.75884 7.34153Z" fill="#B0DEF1"/>
<path d="M24.2178 29.8981C24.0623 30.7396 23.2665 31.2884 22.4249 31.1329C21.5926 30.9774 21.0346 30.1816 21.1901 29.3493C21.3456 28.5169 22.1505 27.9589 22.9829 28.1144C23.8153 28.2699 24.3733 29.0657 24.2086 29.8981" fill="#0BBBEF"/>
<path d="M20.3213 42.777C20.1292 43.829 19.1139 44.5241 18.062 44.332C17.01 44.14 16.324 43.1246 16.5161 42.0727C16.7082 41.0208 17.7144 40.3348 18.7663 40.5268C19.8182 40.7281 20.5134 41.7343 20.3213 42.7862" fill="#B0DEF1"/>
<path d="M6.53655 34.6365C6.26214 36.1275 4.83519 37.1062 3.35336 36.8227C1.87152 36.5483 0.892785 35.1213 1.1672 33.6395C1.44161 32.1577 2.86856 31.1789 4.35039 31.4533C5.83222 31.7277 6.82011 33.1547 6.53655 34.6365Z" fill="#B0DEF1"/>
<path d="M21.4921 25.279C21.1811 26.9712 19.5529 28.0871 17.8607 27.7761C16.1685 27.4651 15.0434 25.8369 15.3635 24.1356C15.6745 22.4434 17.3027 21.3274 19.0041 21.6384C20.6963 21.9494 21.8122 23.5776 21.5012 25.279" fill="#83D0F5"/>
<path d="M21.867 15.9124C21.5195 17.815 19.69 19.0682 17.7874 18.7206C15.8848 18.373 14.6317 16.5436 14.9793 14.641C15.336 12.7384 17.1563 11.4852 19.068 11.8328C20.9706 12.1895 22.2238 14.0098 21.8762 15.9124" fill="#0BBBEF"/>
<path d="M21.1078 34.6362C20.8334 36.1271 19.4156 37.1059 17.9246 36.8315C16.4428 36.5571 15.4641 35.1301 15.7385 33.6483C16.0129 32.1664 17.4398 31.1877 18.9217 31.4621C20.4127 31.7365 21.3914 33.1635 21.1078 34.6453" fill="#B0DEF1"/>
<path d="M14.915 39.4935C14.5309 41.5333 12.5734 42.878 10.5336 42.5029C8.49377 42.1279 7.14 40.1613 7.52417 38.1215C7.90835 36.0817 9.86583 34.7279 11.9056 35.1121C13.9454 35.4871 15.2992 37.4537 14.915 39.4935Z" fill="#0BBBEF"/>
<path d="M33.9594 20.0833C33.8039 20.9157 33.0081 21.4737 32.1666 21.309C31.3342 21.1535 30.7854 20.3577 30.9409 19.5254C31.0964 18.6838 31.8922 18.135 32.7246 18.2905C33.557 18.446 34.1149 19.2509 33.9594 20.0833Z" fill="#0BBBEF"/>
<path d="M39.1823 7.35031C38.9902 8.40223 37.9841 9.09741 36.923 8.90532C35.8802 8.71323 35.1759 7.6979 35.3771 6.64599C35.5692 5.59407 36.5846 4.89889 37.6365 5.09098C38.6884 5.28307 39.3836 6.2984 39.1915 7.35031" fill="#B0DEF1"/>
<path d="M40.3441 25.279C40.0331 26.9712 38.405 28.0871 36.7127 27.7761C35.0205 27.4651 33.8954 25.8369 34.2156 24.1356C34.5266 22.4434 36.1548 21.3274 37.8561 21.6384C39.5483 21.9494 40.6734 23.5776 40.3533 25.279" fill="#83D0F5"/>
<path d="M40.7191 34.7736C40.3624 36.6853 38.5421 37.9385 36.6395 37.5817C34.7369 37.2341 33.4837 35.4047 33.8313 33.5021C34.1789 31.5904 36.0083 30.3372 37.9109 30.6939C39.8135 31.0415 41.0667 32.871 40.7191 34.7736Z" fill="#0BBBEF"/>
<path d="M39.9599 15.7752C39.6855 17.257 38.2677 18.2449 36.7767 17.9614C35.2949 17.6869 34.3161 16.26 34.5905 14.7782C34.865 13.2963 36.2919 12.3176 37.7737 12.592C39.2556 12.8664 40.2435 14.2934 39.9599 15.7661" fill="#B0DEF1"/>
<path d="M49.0523 24.1356C49.3634 22.4434 50.9915 21.3274 52.6838 21.6384C54.376 21.9494 55.5011 23.5776 55.1809 25.2698C54.8699 26.9712 53.2417 28.0871 51.5404 27.767C49.8481 27.456 48.7322 25.8278 49.0432 24.1264" fill="#0BBBEF"/>
<path d="M49.4362 33.6395C49.7107 32.1577 51.1376 31.1698 52.6194 31.4534C54.1013 31.7278 55.08 33.1547 54.8056 34.6365C54.5312 36.1184 53.1134 37.0971 51.6224 36.8227C50.1406 36.5483 49.1618 35.1305 49.4362 33.6395Z" fill="#83D0F5"/>
<path d="M50.214 42.0727C50.4153 41.0208 51.4214 40.3256 52.4734 40.5269C53.5253 40.719 54.2205 41.7251 54.0284 42.7771C53.8363 43.829 52.8209 44.5242 51.769 44.3321C50.7171 44.14 50.0219 43.1246 50.214 42.0727Z" fill="#B0DEF1"/>
<path d="M20.3213 7.35031C20.1292 8.40223 19.1139 9.09741 18.062 8.90532C17.01 8.71323 16.324 7.6979 16.5161 6.64599C16.7082 5.59407 17.7144 4.89889 18.7663 5.09098C19.8182 5.28307 20.5134 6.2984 20.3213 7.35031Z" fill="#B0DEF1"/>
<path d="M5.75884 42.7771C5.56675 43.829 4.55142 44.5242 3.4995 44.3321C2.44758 44.1308 1.75241 43.1246 1.9445 42.0727C2.13658 41.0208 3.15191 40.3256 4.20383 40.5269C5.25575 40.7281 5.95093 41.7343 5.75884 42.7862" fill="#83D0F5"/>
<path d="M35.3682 42.0731C35.5603 41.012 36.5756 40.326 37.6275 40.5272C38.6794 40.7193 39.3746 41.7255 39.1734 42.7774C38.9813 43.8293 37.9751 44.5245 36.9141 44.3324C35.8621 44.1403 35.167 43.125 35.359 42.0731" fill="#B0DEF1"/>
<path d="M50.214 6.64599C50.4153 5.59407 51.4214 4.89889 52.4734 5.09098C53.5253 5.28307 54.2205 6.2984 54.0284 7.35031C53.8363 8.40223 52.8209 9.09741 51.769 8.90532C50.7171 8.71323 50.0219 7.6979 50.214 6.64599Z" fill="#B0DEF1"/>
<path d="M49.4362 14.787C49.7107 13.3051 51.1376 12.3264 52.6194 12.6008C54.1013 12.8752 55.08 14.3022 54.8056 15.7748C54.5312 17.2567 53.1134 18.2354 51.6224 17.9701C50.1406 17.6957 49.1618 16.2688 49.4362 14.787Z" fill="#83D0F5"/>
<path d="M48.3203 12.3539C47.9453 14.3937 45.9787 15.7475 43.9388 15.3633C41.899 14.9882 40.5453 13.0216 40.9294 10.9818C41.3045 8.942 43.262 7.59738 45.3018 7.97241C47.3416 8.35659 48.6953 10.3141 48.3112 12.3539" fill="#0BBBEF"/>
<path d="M47.0123 2.85925C46.7654 4.17644 45.5031 5.03626 44.195 4.79844C42.8779 4.56062 42.0089 3.28917 42.2467 1.98113C42.4937 0.663949 43.756 -0.205026 45.0732 0.0419462C46.3812 0.288918 47.2502 1.55122 47.0123 2.8684" fill="#83D0F5"/>
<path d="M47.0123 48.0276C46.7654 49.3448 45.5031 50.2046 44.195 49.9576C42.8779 49.7198 42.0089 48.4575 42.2467 47.1403C42.4937 45.8231 43.756 44.9542 45.0732 45.2011C46.3812 45.439 47.2502 46.7013 47.0123 48.0184" fill="#83D0F5"/>
<path d="M48.3203 39.4935C47.9453 41.5333 45.9787 42.878 43.9388 42.5121C41.899 42.1279 40.5453 40.1704 40.9294 38.1215C41.3136 36.0817 43.262 34.7279 45.3109 35.1121C47.3507 35.4871 48.7045 37.4537 48.3203 39.4935Z" fill="#0BBBEF"/>
<path d="M29.7333 21.6567C29.2943 24.0075 27.0441 25.5625 24.6933 25.1235C22.3425 24.6936 20.7875 22.4342 21.2265 20.0834C21.6564 17.7326 23.9158 16.1776 26.2666 16.6167C28.6174 17.0557 30.1724 19.3059 29.7333 21.6567Z" fill="#009BD9"/>
<path d="M15.473 21.3091C15.0339 23.6599 12.7746 25.2149 10.4238 24.7758C8.07299 24.3368 6.51798 22.0774 6.94789 19.7358C7.38695 17.385 9.64629 15.83 11.9971 16.269C14.3479 16.7081 15.9029 18.9674 15.4638 21.3091" fill="#009BD9"/>
<path d="M15.473 30.7397C15.0339 33.0905 12.7746 34.6456 10.4238 34.2065C8.07299 33.7674 6.51798 31.5081 6.94789 29.1664C7.38695 26.8156 9.64629 25.2606 11.9971 25.6997C14.3479 26.1296 15.9029 28.3889 15.4638 30.7397" fill="#009BD9"/>
<path d="M34.7279 29.6694C34.2888 32.0202 32.0295 33.5752 29.6787 33.1362C27.3279 32.6971 25.7729 30.4469 26.2028 28.0961C26.6418 25.7453 28.9012 24.1903 31.252 24.6294C33.6028 25.0684 35.1486 27.3278 34.7187 29.6694" fill="#009BD9"/>
<path d="M48.8875 21.3091C48.4576 23.6599 46.1983 25.2149 43.8383 24.785C41.4875 24.3459 39.9325 22.0866 40.3716 19.7358C40.8106 17.385 43.0699 15.83 45.4208 16.269C47.7716 16.6989 49.3174 18.9583 48.8875 21.3091Z" fill="#009BD9"/>
<path d="M48.8875 30.7397C48.4576 33.0905 46.1983 34.6456 43.8383 34.2065C41.4875 33.7674 39.9325 31.5081 40.3624 29.1664C40.8015 26.8156 43.0608 25.2606 45.4116 25.6997C47.7625 26.1296 49.3083 28.3889 48.8784 30.7397" fill="#009BD9"/>
</svg>
