<svg width="209" height="191" viewBox="0 0 209 191" fill="none" xmlns="http://www.w3.org/2000/svg">
<path d="M54.1934 47.1917C52.7259 54.9838 45.2483 60.1552 37.4562 58.6876C29.6642 57.255 24.4928 49.7425 25.9603 41.9504C27.3929 34.1584 34.9055 29.0219 42.6975 30.4545C50.4896 31.9221 55.661 39.3647 54.1934 47.1917Z" fill="#0BBBEF"/>
<path d="M49.1619 10.9223C48.2534 15.954 43.4314 19.2385 38.3998 18.33C33.3681 17.4215 30.0836 12.5646 30.9921 7.56793C31.9355 2.53628 36.7575 -0.783198 41.7542 0.160235C46.7509 1.06873 50.1053 5.92565 49.1619 10.9223Z" fill="#83D0F5"/>
<path d="M49.1619 183.465C48.2534 188.462 43.4314 191.781 38.3998 190.838C33.3681 189.894 30.0836 185.072 30.9921 180.076C31.9355 175.044 36.7575 171.76 41.7891 172.703C46.7858 173.612 50.1403 178.434 49.1969 183.465" fill="#83D0F5"/>
<path d="M23.654 96.5656C22.466 103.03 16.2463 107.328 9.74714 106.105C3.28288 104.917 -1.01498 98.697 0.207988 92.1978C1.39601 85.7335 7.61567 81.4357 14.0799 82.6587C20.5442 83.8467 24.8421 90.0664 23.6191 96.5656" fill="#0BBBEF"/>
<path d="M22.1867 60.2612C21.1384 65.9218 15.6875 69.6955 10.0269 68.6123C4.36628 67.5641 0.627493 62.1131 1.67575 56.4525C2.72401 50.792 8.14001 47.0532 13.8356 48.1014C19.4961 49.1497 23.2699 54.5657 22.2216 60.2263" fill="#83D0F5"/>
<path d="M19.2163 28.0445C18.4825 32.0628 14.604 34.7184 10.5857 33.9846C6.56733 33.2509 3.91175 29.3723 4.64553 25.354C5.37931 21.3357 9.25786 18.6801 13.2762 19.4138C17.2945 20.1476 19.9501 24.0262 19.2163 28.0445Z" fill="#B0DEF1"/>
<path d="M89.7294 114.21C89.1354 117.425 86.0954 119.522 82.8808 118.928C79.701 118.334 77.5696 115.294 78.1636 112.114C78.7576 108.934 81.8325 106.803 85.0122 107.397C88.1919 107.991 90.3234 111.031 89.6945 114.21" fill="#0BBBEF"/>
<path d="M74.844 163.408C74.1102 167.427 70.2316 170.082 66.2133 169.348C62.195 168.615 59.5744 164.736 60.3081 160.718C61.0419 156.699 64.8855 154.079 68.9039 154.813C72.9222 155.581 75.5778 159.425 74.844 163.443" fill="#B0DEF1"/>
<path d="M22.1867 132.312C21.1384 138.007 15.6875 141.746 10.0269 140.663C4.36628 139.614 0.627493 134.163 1.67575 128.503C2.72401 122.842 8.17495 119.103 13.8356 120.152C19.4961 121.2 23.2699 126.651 22.1867 132.312Z" fill="#B0DEF1"/>
<path d="M79.3164 96.5655C78.1283 103.03 71.9087 107.293 65.4444 106.105C58.9801 104.917 54.6823 98.6969 55.9053 92.1977C57.0933 85.7335 63.3129 81.4706 69.8121 82.6586C76.2764 83.8466 80.5393 90.0663 79.3513 96.5655" fill="#83D0F5"/>
<path d="M80.7492 60.7852C79.4214 68.0531 72.433 72.8402 65.1651 71.5124C57.8972 70.1846 53.1101 63.1962 54.4379 55.9283C55.8007 48.6604 62.7541 43.8733 70.057 45.2011C77.3249 46.5638 82.1119 53.5173 80.7842 60.7852" fill="#0BBBEF"/>
<path d="M77.849 132.31C76.8008 138.006 71.3848 141.745 65.6892 140.696C60.0286 139.648 56.2898 134.197 57.3381 128.537C58.3864 122.876 63.8373 119.137 69.4979 120.185C75.1934 121.234 78.9322 126.685 77.849 132.345" fill="#B0DEF1"/>
<path d="M54.1934 150.865C52.7259 158.657 45.2483 163.794 37.4562 162.361C29.6642 160.928 24.4928 153.416 25.9603 145.624C27.4279 137.832 34.9055 132.66 42.6975 134.128C50.4896 135.561 55.661 143.073 54.1934 150.865Z" fill="#0BBBEF"/>
<path d="M126.943 76.7182C126.349 79.898 123.309 82.0294 120.094 81.4005C116.914 80.8065 114.818 77.7665 115.412 74.5868C116.006 71.3721 119.046 69.2756 122.225 69.8696C125.405 70.4636 127.537 73.5385 126.943 76.7182Z" fill="#0BBBEF"/>
<path d="M146.894 28.0782C146.16 32.0965 142.317 34.7521 138.263 34.0183C134.28 33.2845 131.589 29.406 132.358 25.3877C133.092 21.3693 136.971 18.7138 140.989 19.4475C145.007 20.1813 147.663 24.0599 146.929 28.0782" fill="#B0DEF1"/>
<path d="M151.332 96.5655C150.144 103.03 143.924 107.293 137.46 106.105C130.996 104.917 126.698 98.6969 127.921 92.1977C129.109 85.7335 135.329 81.4706 141.828 82.6586C148.292 83.8466 152.59 90.0663 151.367 96.5655" fill="#83D0F5"/>
<path d="M152.764 132.835C151.402 140.138 144.448 144.925 137.18 143.562C129.912 142.234 125.125 135.246 126.453 127.978C127.781 120.675 134.769 115.888 142.037 117.251C149.305 118.579 154.092 125.567 152.764 132.835Z" fill="#0BBBEF"/>
<path d="M149.864 60.2612C148.816 65.9218 143.4 69.6955 137.704 68.6123C132.044 67.5641 128.305 62.1131 129.353 56.4525C130.402 50.792 135.853 47.0532 141.513 48.1014C147.174 49.1497 150.948 54.6006 149.864 60.2263" fill="#B0DEF1"/>
<path d="M184.597 92.1977C185.785 85.7335 192.004 81.4706 198.469 82.6586C204.933 83.8466 209.231 90.0663 208.008 96.5305C206.82 103.03 200.6 107.293 194.101 106.07C187.637 104.882 183.374 98.662 184.562 92.1628" fill="#0BBBEF"/>
<path d="M186.064 128.503C187.113 122.842 192.564 119.069 198.224 120.152C203.885 121.2 207.624 126.651 206.575 132.312C205.527 137.972 200.111 141.711 194.416 140.663C188.755 139.615 185.016 134.199 186.064 128.503Z" fill="#83D0F5"/>
<path d="M189.034 160.718C189.803 156.7 193.647 154.044 197.665 154.813C201.683 155.546 204.339 159.39 203.605 163.408C202.871 167.427 198.993 170.082 194.974 169.349C190.956 168.615 188.3 164.736 189.034 160.718Z" fill="#B0DEF1"/>
<path d="M74.844 28.0782C74.1102 32.0965 70.2316 34.7521 66.2133 34.0183C62.195 33.2845 59.5744 29.406 60.3081 25.3877C61.0419 21.3693 64.8855 18.7138 68.9039 19.4475C72.9222 20.1813 75.5778 24.0599 74.844 28.0782Z" fill="#B0DEF1"/>
<path d="M19.2163 163.408C18.4825 167.427 14.604 170.082 10.5857 169.349C6.56733 168.58 3.91175 164.736 4.64553 160.718C5.37931 156.7 9.25786 154.044 13.2762 154.813C17.2945 155.581 19.9501 159.425 19.2163 163.443" fill="#83D0F5"/>
<path d="M132.324 160.719C133.057 156.666 136.936 154.045 140.954 154.814C144.973 155.548 147.628 159.391 146.859 163.41C146.126 167.428 142.282 170.084 138.229 169.35C134.21 168.616 131.555 164.737 132.289 160.719" fill="#B0DEF1"/>
<path d="M189.034 25.3877C189.803 21.3693 193.647 18.7138 197.665 19.4475C201.683 20.1813 204.339 24.0599 203.605 28.0782C202.871 32.0965 198.993 34.7521 194.974 34.0183C190.956 33.2845 188.3 29.406 189.034 25.3877Z" fill="#B0DEF1"/>
<path d="M186.064 56.4862C187.113 50.8256 192.564 47.0868 198.224 48.1351C203.885 49.1834 207.624 54.6343 206.575 60.26C205.527 65.9205 200.111 69.6593 194.416 68.646C188.755 67.5978 185.016 62.1468 186.064 56.4862Z" fill="#83D0F5"/>
<path d="M181.801 47.1917C180.368 54.9838 172.856 60.1552 165.064 58.6876C157.272 57.255 152.1 49.7425 153.568 41.9504C155.001 34.1584 162.478 29.0219 170.27 30.4545C178.062 31.9221 183.234 39.3997 181.766 47.1917" fill="#0BBBEF"/>
<path d="M176.805 10.9223C175.861 15.954 171.039 19.2385 166.043 18.33C161.011 17.4215 157.691 12.5646 158.6 7.56793C159.543 2.53628 164.365 -0.783198 169.397 0.160235C174.394 1.10367 177.713 5.92566 176.805 10.9573" fill="#83D0F5"/>
<path d="M176.805 183.465C175.861 188.497 171.039 191.781 166.043 190.838C161.011 189.929 157.691 185.107 158.6 180.076C159.543 175.044 164.365 171.725 169.397 172.668C174.394 173.577 177.713 178.399 176.805 183.43" fill="#83D0F5"/>
<path d="M181.801 150.865C180.368 158.657 172.856 163.794 165.064 162.396C157.272 160.928 152.1 153.451 153.568 145.624C155.036 137.832 162.478 132.66 170.305 134.128C178.097 135.561 183.269 143.073 181.801 150.865Z" fill="#0BBBEF"/>
<path d="M110.799 82.7288C109.122 91.7089 100.526 97.649 91.5463 95.9718C82.5662 94.3295 76.6261 85.6989 78.3033 76.7188C79.9456 67.7387 88.5762 61.7986 97.5563 63.4758C106.536 65.153 112.477 73.7487 110.799 82.7288Z" fill="#009BD9"/>
<path d="M56.3248 81.4007C54.6476 90.3808 46.017 96.3209 37.0369 94.6437C28.0568 92.9665 22.1167 84.3358 23.7589 75.3907C25.4361 66.4106 34.0668 60.4704 43.0469 62.1477C52.027 63.8249 57.9671 72.4555 56.2899 81.4007" fill="#009BD9"/>
<path d="M56.3248 117.426C54.6476 126.406 46.017 132.346 37.0369 130.669C28.0568 128.991 22.1167 120.361 23.7589 111.416C25.4361 102.435 34.0668 96.4954 43.0469 98.1726C52.027 99.8148 57.9671 108.446 56.2899 117.426" fill="#009BD9"/>
<path d="M129.878 113.337C128.2 122.317 119.57 128.257 110.59 126.58C101.61 124.903 95.6694 116.307 97.3117 107.327C98.9889 98.3471 107.62 92.407 116.6 94.0842C125.58 95.7614 131.485 104.392 129.843 113.337" fill="#009BD9"/>
<path d="M183.968 81.4007C182.326 90.3808 173.695 96.3209 164.68 94.6786C155.7 93.0014 149.76 84.3707 151.437 75.3907C153.114 66.4106 161.745 60.4704 170.725 62.1477C179.705 63.7899 185.61 72.4206 183.968 81.4007Z" fill="#009BD9"/>
<path d="M183.968 117.426C182.325 126.406 173.695 132.346 164.68 130.669C155.699 128.991 149.759 120.361 151.402 111.416C153.079 102.435 161.71 96.4954 170.69 98.1726C179.67 99.8148 185.575 108.446 183.933 117.426" fill="#009BD9"/>
</svg>
