<?xml version="1.0" encoding="UTF-8" standalone="no"?>
<svg
   xmlns:dc="http://purl.org/dc/elements/1.1/"
   xmlns:cc="http://creativecommons.org/ns#"
   xmlns:rdf="http://www.w3.org/1999/02/22-rdf-syntax-ns#"
   xmlns:svg="http://www.w3.org/2000/svg"
   xmlns="http://www.w3.org/2000/svg"
   viewBox="-350 60 1280 160"
   height="460"
   width="680"
   xml:space="preserve"
   fill="#000000"
   id="svg2"
   version="1.1"><metadata
     id="metadata8"><rdf:RDF><cc:Work
         rdf:about=""><dc:format>image/svg+xml</dc:format><dc:type
           rdf:resource="http://purl.org/dc/dcmitype/StillImage" /></cc:Work></rdf:RDF></metadata><defs
     id="defs6"><clipPath
       id="clipPath18"
       clipPathUnits="userSpaceOnUse"><path
         id="path16"
         d="M 0,206.979 H 432.864 V 0 H 0 Z" /></clipPath></defs><g
     transform="matrix(1.3333333,0,0,-1.3333333,0,275.972)"
     id="g10"><g
       id="g12"><g
         clip-path="url(#clipPath18)"
         id="g14"><g
           transform="translate(164.2141,77.1414)"
           id="g20"><path
             id="path22"
             style="fill-opacity:1;fill-rule:nonzero;stroke:none"
             d="m 0,0 c -0.209,-0.771 -0.511,-1.476 -0.899,-2.095 -0.388,-0.619 -0.858,-1.168 -1.396,-1.633 -0.534,-0.461 -1.123,-0.849 -1.752,-1.155 -0.624,-0.303 -1.291,-0.533 -1.981,-0.683 -0.684,-0.15 -1.388,-0.226 -2.091,-0.226 H -8.26 c -0.757,0 -1.526,0.06 -2.287,0.18 -0.758,0.118 -1.513,0.297 -2.242,0.531 -0.726,0.234 -1.44,0.529 -2.121,0.877 -0.684,0.35 -1.335,0.758 -1.937,1.215 -0.604,0.457 -1.168,0.979 -1.677,1.549 -0.173,0.195 -0.34,0.396 -0.499,0.604 v -2.091 c 0.29,-0.33 0.639,-0.643 1.038,-0.933 0.457,-0.332 0.969,-0.637 1.522,-0.905 0.562,-0.272 1.17,-0.517 1.806,-0.726 0.641,-0.211 1.314,-0.392 2.003,-0.536 0.687,-0.145 1.397,-0.256 2.109,-0.331 0.708,-0.074 1.42,-0.112 2.115,-0.112 h 0.336 c 0.837,-0.011 1.696,0.077 2.527,0.243 0.829,0.166 1.63,0.418 2.38,0.749 0.745,0.33 1.446,0.748 2.081,1.245 0.629,0.492 1.182,1.074 1.644,1.732 0.461,0.657 0.828,1.407 1.089,2.229 0.262,0.822 0.394,1.742 0.394,2.734 l 0.008,3.242 c 0.01,1.848 0.035,3.64 0.077,5.376 0.038,1.546 0.093,3.011 0.164,4.362 H 0.048 C 0.119,14.091 0.174,12.627 0.212,11.083 0.254,9.35 0.28,7.559 0.29,5.712 L 0.283,2.535 C 0.303,1.625 0.208,0.769 0,0" /></g><g
           transform="translate(199.9135,82.0343)"
           id="g24"><path
             id="path26"
             style="fill-opacity:1;fill-rule:nonzero;stroke:none"
             d="m 0,0 c -0.005,-1.833 -0.233,-3.463 -0.678,-4.843 -0.453,-1.405 -1.163,-2.593 -2.111,-3.531 -0.946,-0.936 -2.163,-1.646 -3.617,-2.111 -1.43,-0.458 -3.154,-0.689 -5.125,-0.689 -1.972,0 -3.696,0.231 -5.125,0.689 -1.454,0.465 -2.671,1.175 -3.618,2.111 -0.948,0.938 -1.657,2.126 -2.108,3.532 -0.442,1.379 -0.671,3.008 -0.681,4.841 0.01,1.837 0.24,3.465 0.682,4.842 0.45,1.404 1.159,2.591 2.107,3.528 0.947,0.936 2.164,1.647 3.618,2.112 1.429,0.457 3.153,0.688 5.125,0.688 1.971,0 3.695,-0.231 5.125,-0.688 1.454,-0.465 2.671,-1.176 3.617,-2.112 C -1.841,7.432 -1.131,6.245 -0.678,4.842 -0.233,3.464 -0.005,1.836 0,0.003 Z m 0.364,6.637 c -0.555,0.862 -1.237,1.625 -2.026,2.267 -0.795,0.646 -1.703,1.19 -2.701,1.619 -1.005,0.432 -2.118,0.76 -3.307,0.976 -1.197,0.217 -2.489,0.326 -3.839,0.326 -1.351,0 -2.643,-0.109 -3.84,-0.326 -1.189,-0.216 -2.301,-0.544 -3.306,-0.976 -0.997,-0.429 -1.906,-0.973 -2.701,-1.619 -0.79,-0.642 -1.472,-1.405 -2.026,-2.267 -0.558,-0.867 -0.996,-1.859 -1.303,-2.95 -0.31,-1.097 -0.476,-2.33 -0.495,-3.662 0.019,-1.321 0.185,-2.553 0.495,-3.65 0.307,-1.092 0.746,-2.084 1.302,-2.949 0.555,-0.863 1.237,-1.626 2.027,-2.268 0.795,-0.646 1.704,-1.191 2.701,-1.619 1.005,-0.432 2.117,-0.76 3.306,-0.976 2.394,-0.434 5.285,-0.434 7.679,0 1.189,0.216 2.302,0.544 3.307,0.976 0.998,0.429 1.906,0.973 2.701,1.619 0.789,0.641 1.471,1.404 2.026,2.267 0.556,0.865 0.994,1.857 1.303,2.95 0.309,1.094 0.475,2.324 0.494,3.656 C 2.142,1.362 1.976,2.592 1.667,3.687 1.359,4.779 0.92,5.771 0.364,6.637" /></g><g
           transform="translate(243.3947,81.859)"
           id="g28"><path
             id="path30"
             style="fill-opacity:1;fill-rule:nonzero;stroke:none"
             d="m 0,0 0.007,10.077 11.621,-0.008 c 0.746,0 1.413,-0.149 1.98,-0.444 0.56,-0.291 1.033,-0.682 1.405,-1.162 C 15.38,7.989 15.658,7.446 15.838,6.848 16.015,6.261 16.106,5.651 16.106,5.034 16.106,4.418 16.012,3.807 15.83,3.217 15.644,2.619 15.365,2.077 14.999,1.606 14.627,1.126 14.156,0.736 13.597,0.444 13.034,0.15 12.374,0 11.635,0 Z m 8.351,-0.921 c 0.482,-0.165 0.928,-0.394 1.324,-0.681 0.391,-0.284 0.751,-0.625 1.067,-1.015 0.304,-0.372 0.598,-0.783 0.875,-1.224 l 3.136,-4.96 c 0.251,-0.395 0.508,-0.733 0.763,-1.004 0.252,-0.269 0.503,-0.487 0.747,-0.65 0.237,-0.16 0.465,-0.277 0.676,-0.348 0.206,-0.068 0.396,-0.103 0.563,-0.103 h 0.995 c -0.063,0.057 -0.127,0.118 -0.19,0.184 -0.203,0.209 -0.401,0.447 -0.589,0.709 -0.185,0.255 -0.371,0.533 -0.555,0.829 l -3.506,5.598 c -0.286,0.456 -0.585,0.866 -0.891,1.221 -0.294,0.341 -0.635,0.637 -1.011,0.879 l -1.215,0.78 1.442,0.05 c 0.806,0.028 1.536,0.158 2.17,0.385 0.634,0.228 1.191,0.53 1.657,0.898 0.464,0.367 0.853,0.796 1.156,1.277 0.305,0.487 0.534,1.008 0.68,1.546 0.146,0.538 0.213,1.1 0.2,1.67 -0.015,0.571 -0.109,1.131 -0.28,1.665 -0.171,0.535 -0.424,1.048 -0.753,1.523 -0.326,0.471 -0.736,0.889 -1.219,1.243 -0.486,0.355 -1.059,0.642 -1.704,0.851 -0.648,0.209 -1.386,0.316 -2.194,0.316 L -1.981,10.725 C -1.942,9.984 -1.909,9.208 -1.88,8.399 -1.845,7.416 -1.817,6.4 -1.795,5.352 c 0.023,-1.048 0.039,-2.117 0.048,-3.206 0.01,-1.089 0.013,-2.182 0.008,-3.277 -0.005,-0.916 -0.014,-1.826 -0.025,-2.729 -0.013,-0.905 -0.031,-1.79 -0.053,-2.657 -0.022,-0.868 -0.049,-1.709 -0.081,-2.525 -0.026,-0.642 -0.054,-1.261 -0.084,-1.856 h 2.225 c -0.03,0.595 -0.058,1.215 -0.084,1.86 C 0.127,-8.22 0.1,-7.379 0.078,-6.514 0.055,-5.65 0.038,-4.764 0.026,-3.857 0.013,-2.951 0.004,-2.04 0,-1.124 l -0.002,0.453 7.134,0.008 v -0.023 c 0.444,-0.032 0.852,-0.11 1.219,-0.235" /></g><g
           transform="translate(292.9512,89.5892)"
           id="g32"><path
             id="path34"
             style="fill-opacity:1;fill-rule:nonzero;stroke:none"
             d="m 0,0 c 0.034,1.057 0.075,2.055 0.123,2.994 h -1.52 c 0.035,-0.71 0.067,-1.454 0.096,-2.231 0.034,-0.952 0.063,-1.934 0.085,-2.944 0.022,-1.011 0.038,-2.043 0.048,-3.095 0.01,-1.052 0.015,-2.106 0.015,-3.16 l -0.01,-6.018 -0.724,0.558 c -1.456,1.121 -3.018,2.359 -4.644,3.678 -1.617,1.312 -3.314,2.73 -5.046,4.214 -1.734,1.486 -3.521,3.058 -5.31,4.672 -1.528,1.376 -3.079,2.811 -4.622,4.274 0.048,-0.935 0.088,-1.926 0.123,-2.975 0.04,-1.234 0.069,-2.506 0.089,-3.817 0.02,-1.31 0.03,-2.639 0.03,-3.985 0,-1.348 -0.01,-2.677 -0.03,-3.987 -0.02,-1.31 -0.049,-2.581 -0.089,-3.812 -0.035,-1.053 -0.076,-2.051 -0.124,-2.994 h 1.52 c -0.035,0.706 -0.067,1.445 -0.095,2.217 -0.035,0.947 -0.063,1.924 -0.085,2.933 -0.023,1.008 -0.039,2.035 -0.048,3.084 -0.011,1.046 -0.015,2.098 -0.015,3.152 l 0.008,6.023 0.726,-0.564 c 1.14,-0.887 2.266,-1.775 3.384,-2.667 1.116,-0.891 2.231,-1.794 3.342,-2.707 1.112,-0.914 2.226,-1.849 3.341,-2.802 1.114,-0.954 2.24,-1.937 3.374,-2.951 1.135,-1.013 2.285,-2.059 3.451,-3.138 0.898,-0.832 1.807,-1.69 2.73,-2.577 -0.048,0.941 -0.089,1.936 -0.123,2.992 -0.04,1.235 -0.07,2.51 -0.09,3.823 -0.019,1.313 -0.029,2.643 -0.029,3.993 0,1.35 0.01,2.681 0.029,3.993 C -0.07,-2.511 -0.04,-1.236 0,0" /></g><g
           transform="translate(313.946,91.042)"
           id="g36"><path
             id="path38"
             style="fill-opacity:1;fill-rule:nonzero;stroke:none"
             d="m 0,0 6.871,-12.736 h -14.43 z m -8.026,-13.55 0.131,0.225 H 7.219 l 0.129,-0.232 c 0.723,-1.303 1.387,-2.523 1.988,-3.661 0.549,-1.038 1.038,-1.992 1.467,-2.863 h 2.414 c -1.101,1.691 -2.174,3.414 -3.194,5.129 -1.166,1.958 -2.32,3.956 -3.433,5.94 -1.119,1.995 -2.22,4 -3.304,6.015 -0.957,1.778 -1.917,3.56 -2.882,5.346 l -7.816,-13.33 c -0.524,-0.876 -1.049,-1.747 -1.578,-2.614 -0.527,-0.866 -1.048,-1.714 -1.563,-2.543 -0.514,-0.83 -1.021,-1.634 -1.516,-2.411 -0.335,-0.527 -0.662,-1.037 -0.982,-1.532 h 1.371 c 0.505,0.941 1.05,1.936 1.638,2.984 0.636,1.137 1.308,2.319 2.016,3.547" /></g><g
           transform="translate(355.0819,72.8131)"
           id="g40"><path
             id="path42"
             style="fill-opacity:1;fill-rule:nonzero;stroke:none"
             d="m 0,0 c -0.706,-0.281 -1.542,-0.513 -2.487,-0.688 -0.931,-0.173 -1.993,-0.301 -3.159,-0.381 -1.152,-0.08 -2.437,-0.122 -3.819,-0.127 l -8.048,-0.008 -0.007,11.227 c 0.005,0.919 0.013,1.829 0.025,2.732 0.013,0.905 0.031,1.79 0.053,2.657 0.022,0.868 0.049,1.708 0.081,2.521 0.026,0.641 0.054,1.258 0.084,1.853 h -2.225 c 0.03,-0.595 0.058,-1.215 0.083,-1.857 0.032,-0.816 0.06,-1.656 0.082,-2.521 0.022,-0.864 0.04,-1.75 0.052,-2.656 0.013,-0.906 0.021,-1.817 0.026,-2.733 0.005,-1.091 0.003,-2.182 -0.007,-3.274 -0.011,-1.092 -0.027,-2.164 -0.049,-3.214 -0.022,-1.05 -0.05,-2.068 -0.085,-3.054 -0.029,-0.812 -0.062,-1.588 -0.101,-2.329 L 0.264,-1.86 0.797,0.372 C 0.55,0.237 0.284,0.113 0,0" /></g><g
           transform="translate(96.3975,72.8131)"
           id="g44"><path
             id="path46"
             style="fill-opacity:1;fill-rule:nonzero;stroke:none"
             d="M 0,0 C -0.707,-0.282 -1.544,-0.513 -2.488,-0.688 -3.419,-0.861 -4.482,-0.99 -5.647,-1.069 -6.799,-1.148 -8.083,-1.191 -9.466,-1.196 l -7.956,-0.008 -0.008,11.227 c 0.005,0.919 0.014,1.829 0.026,2.732 0.012,0.905 0.029,1.79 0.052,2.657 0.023,0.868 0.05,1.708 0.082,2.52 0.025,0.642 0.053,1.259 0.083,1.854 h -2.225 c 0.03,-0.595 0.058,-1.214 0.083,-1.857 0.032,-0.815 0.059,-1.656 0.083,-2.52 0.022,-0.865 0.039,-1.751 0.051,-2.657 0.012,-0.906 0.021,-1.817 0.026,-2.734 0.005,-1.09 0.002,-2.181 -0.007,-3.273 -0.01,-1.092 -0.026,-2.163 -0.048,-3.214 -0.022,-1.05 -0.052,-2.068 -0.086,-3.054 -0.029,-0.812 -0.062,-1.588 -0.101,-2.329 L 0.263,-1.86 0.797,0.372 C 0.55,0.237 0.284,0.113 0,0" /></g><g
           transform="translate(128.1663,72.8131)"
           id="g48"><path
             id="path50"
             style="fill-opacity:1;fill-rule:nonzero;stroke:none"
             d="m 0,0 c -0.707,-0.282 -1.545,-0.513 -2.488,-0.688 -0.883,-0.164 -2.006,-0.296 -3.25,-0.381 -1.151,-0.08 -2.436,-0.122 -3.818,-0.127 l -8.493,-0.008 V 9.518 h 7.704 c 2.428,0 4.608,-0.302 5.585,-0.46 l -0.007,1.526 c -0.969,-0.14 -3.154,-0.411 -5.578,-0.411 h -7.709 l 0.101,8.949 h 10.34 c 0.704,0 1.416,-0.018 2.133,-0.056 0.731,-0.038 1.457,-0.134 2.159,-0.284 0.71,-0.151 1.407,-0.381 2.072,-0.683 0.399,-0.181 0.786,-0.403 1.158,-0.664 v 2.336 h -19.856 c 0.049,-0.943 0.09,-1.943 0.124,-2.998 0.022,-0.685 0.013,-1.382 0.004,-2.091 -0.007,-0.569 -0.015,-1.145 -0.006,-1.73 0.02,-1.312 0.03,-2.643 0.03,-3.993 0,-1.35 -0.01,-2.68 -0.03,-3.993 -0.02,-1.313 -0.049,-2.586 -0.089,-3.82 -0.034,-1.055 -0.075,-2.055 -0.124,-2.998 L 0.263,-1.86 0.797,0.372 C 0.55,0.237 0.284,0.113 0,0" /></g><path
           id="path52"
           style="fill-opacity:1;fill-rule:nonzero;stroke:none"
           d="m 170.289,46.853 h -1.203 V 58.34 h 1.203 z" /><g
           transform="translate(191.3248,46.8533)"
           id="g54"><path
             id="path56"
             style="fill-opacity:1;fill-rule:nonzero;stroke:none"
             d="m 0,0 h -1.291 l -6.88,9.786 V 0 h -1.188 v 11.487 h 1.393 l 6.778,-9.595 v 9.595 H 0 Z" /></g><g
           transform="translate(205.0103,57.2107)"
           id="g58"><path
             id="path60"
             style="fill-opacity:1;fill-rule:nonzero;stroke:none"
             d="M 0,0 H -3.844 V 1.13 H 5.047 V 0 H 1.218 V -10.357 H 0 Z" /></g><path
           id="path62"
           style="fill-opacity:1;fill-rule:nonzero;stroke:none"
           d="m 221.159,46.853 h -1.203 V 58.34 h 1.203 z" /><g
           transform="translate(243.6329,46.8533)"
           id="g64"><path
             id="path66"
             style="fill-opacity:1;fill-rule:nonzero;stroke:none"
             d="M 0,0 V 9.844 H -0.014 L -4.284,0 h -1.085 l -4.24,9.771 V 0 h -1.189 v 11.487 h 1.702 l 4.299,-9.844 4.254,9.844 H 1.189 L 1.189,0 Z" /></g><g
           transform="translate(263.7206,57.2256)"
           id="g68"><path
             id="path70"
             style="fill-opacity:1;fill-rule:nonzero;stroke:none"
             d="m 0,0 h -5.986 v -3.976 h 5.472 v -1.115 h -5.472 v -4.166 h 6.045 v -1.115 H -7.188 V 1.115 l 7.188,0 z" /></g><g
           transform="translate(227.5327,72.8978)"
           id="g72"><path
             id="path74"
             style="fill-opacity:1;fill-rule:nonzero;stroke:none"
             d="m 0,0 c 0.629,0.489 1.182,1.07 1.645,1.725 0.46,0.654 0.826,1.401 1.088,2.221 0.261,0.819 0.394,1.735 0.394,2.722 l 0.007,3.234 c 0.005,0.918 0.014,1.829 0.026,2.735 0.012,0.907 0.03,1.795 0.052,2.664 0.022,0.87 0.05,1.714 0.082,2.532 0.025,0.644 0.053,1.261 0.083,1.853 H 1.152 C 1.182,19.095 1.21,18.477 1.236,17.834 1.268,17.015 1.295,16.171 1.317,15.301 1.34,14.432 1.357,13.545 1.369,12.641 1.382,11.737 1.391,10.83 1.395,9.919 L 1.388,6.741 C 1.408,5.837 1.314,4.984 1.105,4.217 0.896,3.447 0.594,2.744 0.206,2.13 -0.181,1.515 -0.651,0.966 -1.19,0.501 c -0.534,-0.462 -1.124,-0.85 -1.751,-1.155 -0.627,-0.304 -1.293,-0.534 -1.982,-0.684 -0.688,-0.149 -1.394,-0.216 -2.095,-0.218 -0.689,0 -1.387,0.079 -2.069,0.234 -0.684,0.155 -1.343,0.39 -1.962,0.696 -0.619,0.307 -1.201,0.697 -1.728,1.159 -0.531,0.465 -0.994,1.013 -1.373,1.629 -0.38,0.617 -0.678,1.316 -0.883,2.079 -0.205,0.763 -0.3,1.608 -0.278,2.512 l -0.008,3.162 c 0.005,0.915 0.014,1.822 0.026,2.726 0.012,0.904 0.03,1.791 0.052,2.66 0.022,0.87 0.05,1.714 0.082,2.532 0.025,0.644 0.053,1.261 0.083,1.853 h -2.225 c 0.03,-0.591 0.058,-1.209 0.084,-1.852 0.032,-0.818 0.059,-1.663 0.082,-2.532 0.022,-0.87 0.039,-1.758 0.051,-2.665 0.013,-0.906 0.022,-1.817 0.026,-2.733 l 0.008,-3.235 c 0,-0.989 0.131,-1.904 0.39,-2.72 0.261,-0.82 0.623,-1.565 1.078,-2.214 0.456,-0.651 1.005,-1.23 1.633,-1.72 0.632,-0.494 1.329,-0.912 2.071,-1.242 0.746,-0.331 1.543,-0.584 2.369,-0.752 1.667,-0.34 3.391,-0.334 5.048,-0.007 0.829,0.163 1.629,0.413 2.379,0.744 C -1.336,-0.911 -0.635,-0.494 0,0" /></g><g
           transform="translate(196.1506,132.1375)"
           id="g76"><path
             id="path78"
             style="fill-opacity:1;fill-rule:nonzero;stroke:none"
             d="m 0,0 c 4.316,1.129 10.396,1.69 16.994,1.809 0.084,0.002 0.152,0.07 0.152,0.154 v 0.391 c 0,0.084 -0.069,0.153 -0.154,0.154 C 9.376,2.558 2.852,2.497 -1.294,1.413 -5.783,0.238 -8.185,-2.524 -8.853,-7.282 c -0.648,-4.61 -0.479,-11.67 -0.421,-13.43 0.002,-0.083 0.07,-0.148 0.153,-0.148 h 0.498 c 0.084,0 0.152,0.066 0.154,0.149 0.017,0.692 0.059,2.306 0.148,4 0.114,2.194 0.476,5.259 0.991,8.407 C -6.576,-3.689 -4.315,-1.128 0,0" /></g><g
           transform="translate(214.9091,120.8442)"
           id="g80"><path
             id="path82"
             style="fill-opacity:1;fill-rule:nonzero;stroke:none"
             d="M 0,0 C 0.649,4.622 0.477,9.882 0.42,11.577 0.417,11.66 0.349,11.725 0.266,11.725 h -0.427 c -0.083,0 -0.151,-0.066 -0.154,-0.149 -0.016,-0.485 -0.058,-0.417 -0.149,-2.147 -0.115,-2.193 -0.544,-5.257 -1.059,-8.408 -0.741,-4.532 -2.933,-6.956 -7.331,-8.106 -4.199,-1.098 -9.17,-1.484 -15.615,-1.612 -0.079,-0.001 -0.145,-0.063 -0.151,-0.142 l -0.042,-0.551 c -0.006,-0.088 0.064,-0.165 0.154,-0.165 7.531,-0.051 12.813,0.014 16.948,1.095 4.575,1.197 6.906,3.805 7.56,8.46" /></g><g
           transform="translate(238.0076,133.5501)"
           id="g84"><path
             id="path86"
             style="fill-opacity:1;fill-rule:nonzero;stroke:none"
             d="M 0,0 C -4.146,1.084 -10.676,1.145 -18.292,1.095 -18.376,1.094 -18.445,1.026 -18.445,0.941 V 0.55 c 0,-0.084 0.067,-0.152 0.151,-0.154 6.599,-0.119 12.685,-0.679 17,-1.809 4.315,-1.128 6.576,-3.689 7.33,-8.303 0.515,-3.144 0.876,-6.208 0.992,-8.408 0.089,-1.693 0.13,-3.308 0.147,-3.999 0.002,-0.084 0.071,-0.15 0.154,-0.15 h 0.498 c 0.083,0 0.151,0.066 0.154,0.149 0.057,1.76 0.226,8.82 -0.421,13.429 C 6.892,-3.937 4.489,-1.174 0,0" /></g><g
           transform="translate(242.5753,112.0052)"
           id="g88"><path
             id="path90"
             style="fill-opacity:1;fill-rule:nonzero;stroke:none"
             d="m 0,0 c -0.006,0.079 -0.072,0.141 -0.151,0.142 -6.446,0.128 -11.417,0.514 -15.615,1.612 -4.397,1.15 -6.589,3.574 -7.331,8.106 -0.514,3.144 -0.957,6.208 -1.073,8.408 -0.091,1.73 -0.132,1.662 -0.148,2.147 -0.003,0.083 -0.071,0.149 -0.154,0.149 h -0.414 c -0.083,0 -0.151,-0.065 -0.154,-0.148 -0.057,-1.695 -0.229,-6.955 0.42,-11.577 0.654,-4.655 2.985,-7.263 7.56,-8.46 4.136,-1.081 9.417,-1.145 16.949,-1.095 0.089,0 0.159,0.077 0.153,0.165 z" /></g><g
           transform="translate(201.7692,125.5603)"
           id="g92"><path
             id="path94"
             style="fill-opacity:1;fill-rule:nonzero;stroke:none"
             d="m 0,0 c -1.004,0 -1.821,-0.816 -1.821,-1.819 0,-1.003 0.817,-1.82 1.821,-1.82 1.004,0 1.821,0.817 1.821,1.82 C 1.821,-0.816 1.004,0 0,0" /></g><g
           transform="translate(231.0954,125.5603)"
           id="g96"><path
             id="path98"
             style="fill-opacity:1;fill-rule:nonzero;stroke:none"
             d="m 0,0 c -1.004,0 -1.821,-0.816 -1.821,-1.819 0,-1.003 0.817,-1.82 1.821,-1.82 1.004,0 1.821,0.817 1.821,1.82 C 1.821,-0.816 1.004,0 0,0" /></g><g
           transform="translate(236.7134,139.256)"
           id="g100"><path
             id="path102"
             style="fill-opacity:1;fill-rule:nonzero;stroke:none"
             d="m 0,0 c -4.315,-1.129 -10.401,-1.689 -17,-1.809 -0.084,-0.002 -0.151,-0.07 -0.151,-0.154 v -0.391 c 0,-0.084 0.069,-0.153 0.153,-0.154 7.614,-0.051 14.15,0.012 18.292,1.095 4.489,1.175 6.892,3.938 7.56,8.696 0.647,4.608 0.478,11.677 0.421,13.438 -0.003,0.083 -0.071,0.148 -0.154,0.148 H 8.623 C 8.54,20.869 8.471,20.803 8.469,20.72 8.452,20.028 8.411,18.405 8.322,16.712 8.206,14.512 7.845,11.447 7.331,8.303 6.576,3.69 4.315,1.129 0,0" /></g><g
           transform="translate(217.9555,150.5588)"
           id="g104"><path
             id="path106"
             style="fill-opacity:1;fill-rule:nonzero;stroke:none"
             d="m 0,0 c -0.649,-4.623 -0.477,-9.882 -0.42,-11.577 0.002,-0.083 0.07,-0.148 0.153,-0.148 h 0.415 c 0.082,0 0.151,0.066 0.153,0.149 0.017,0.485 0.058,0.416 0.149,2.147 0.116,2.2 0.559,5.264 1.073,8.408 0.741,4.532 2.933,6.955 7.331,8.106 4.197,1.098 9.168,1.478 15.615,1.607 0.079,10e-4 0.145,0.063 0.151,0.142 l 0.041,0.555 C 24.668,9.478 24.597,9.554 24.508,9.555 16.977,9.604 11.694,9.541 7.56,8.46 2.985,7.263 0.654,4.654 0,0" /></g><g
           transform="translate(194.8571,137.8434)"
           id="g108"><path
             id="path110"
             style="fill-opacity:1;fill-rule:nonzero;stroke:none"
             d="m 0,0 c 4.142,-1.083 10.67,-1.145 18.286,-1.095 0.084,10e-4 0.153,0.069 0.153,0.154 v 0.391 c 0,0.084 -0.067,0.152 -0.151,0.154 -6.598,0.119 -12.678,0.68 -16.994,1.809 -4.316,1.128 -6.576,3.689 -7.33,8.303 -0.515,3.149 -0.877,6.213 -0.992,8.409 -0.089,1.693 -0.13,3.315 -0.147,4.007 -0.002,0.084 -0.071,0.15 -0.154,0.15 h -0.498 c -0.083,0 -0.151,-0.066 -0.154,-0.149 C -8.038,20.373 -8.208,13.304 -7.56,8.695 -6.892,3.937 -4.489,1.174 0,0" /></g><g
           transform="translate(207.3495,159.0184)"
           id="g112"><path
             id="path114"
             style="fill-opacity:1;fill-rule:nonzero;stroke:none"
             d="m 0,0 c -4.134,1.081 -9.417,1.145 -16.949,1.095 -0.089,-10e-4 -0.16,-0.077 -0.153,-0.165 l 0.042,-0.556 c 0.006,-0.079 0.072,-0.14 0.151,-0.142 6.446,-0.128 11.417,-0.509 15.615,-1.607 4.397,-1.15 6.589,-3.574 7.33,-8.105 0.515,-3.151 0.945,-6.216 1.06,-8.409 0.09,-1.731 0.132,-1.661 0.148,-2.147 0.003,-0.082 0.071,-0.149 0.154,-0.149 h 0.428 c 0.083,0 0.151,0.065 0.153,0.148 0.057,1.695 0.23,6.955 -0.419,11.577 C 6.905,-3.805 4.574,-1.196 0,0" /></g><g
           transform="translate(201.7692,149.6007)"
           id="g116"><path
             id="path118"
             style="fill-opacity:1;fill-rule:nonzero;stroke:none"
             d="m 0,0 c -1.004,0 -1.821,-0.816 -1.821,-1.82 0,-1.002 0.817,-1.819 1.821,-1.819 1.004,0 1.821,0.817 1.821,1.819 C 1.821,-0.816 1.004,0 0,0" /></g><g
           transform="translate(231.0954,149.6007)"
           id="g120"><path
             id="path122"
             style="fill-opacity:1;fill-rule:nonzero;stroke:none"
             d="m 0,0 c -1.004,0 -1.821,-0.816 -1.821,-1.82 0,-1.002 0.817,-1.819 1.821,-1.819 1.004,0 1.821,0.817 1.821,1.819 C 1.821,-0.816 1.004,0 0,0" /></g></g></g></g></svg>