<?xml version="1.0" standalone="no"?>
<!DOCTYPE svg PUBLIC "-//W3C//DTD SVG 20010904//EN"
 "http://www.w3.org/TR/2001/REC-SVG-20010904/DTD/svg10.dtd">
<svg version="1.0" xmlns="http://www.w3.org/2000/svg"
 width="700.000000pt" height="700.000000pt" viewBox="0 0 700.000000 700.000000"
 preserveAspectRatio="xMidYMid meet">
<metadata>
Created by potrace 1.14, written by Peter Selinger 2001-2017
</metadata>
<g transform="translate(0.000000,700.000000) scale(0.100000,-0.100000)"
fill="#000000" stroke="none">
<path d="M1355 6613 c-221 -65 -292 -339 -130 -504 57 -60 117 -83 210 -83 95
0 153 23 213 84 61 60 85 121 86 210 1 63 -4 84 -27 132 -65 132 -215 200
-352 161z"/>
<path d="M5540 6615 c-58 -15 -83 -29 -132 -73 -65 -58 -92 -122 -92 -217 -1
-95 21 -152 81 -212 64 -64 124 -88 218 -87 67 0 88 4 131 26 50 26 111 85
135 129 41 77 42 183 4 267 -59 129 -210 202 -345 167z"/>
<path d="M457 5985 c-116 -29 -190 -132 -181 -252 11 -167 188 -271 339 -199
94 44 145 126 140 226 -8 156 -150 263 -298 225z"/>
<path d="M2235 5970 c-240 -122 -144 -484 122 -457 63 6 93 19 137 58 56 49
80 102 80 179 0 97 -53 180 -140 222 -47 23 -151 22 -199 -2z"/>
<path d="M4604 5976 c-91 -40 -148 -127 -148 -226 0 -178 178 -292 339 -216
158 73 188 281 58 396 -25 22 -62 44 -82 50 -50 14 -130 12 -167 -4z"/>
<path d="M6462 5975 c-103 -45 -157 -132 -150 -241 16 -250 354 -308 459 -79
52 113 -7 262 -126 316 -48 22 -137 24 -183 4z"/>
<path d="M1356 5628 c-72 -16 -128 -38 -182 -74 -206 -137 -267 -411 -140
-628 35 -60 116 -139 174 -169 316 -165 679 40 696 394 10 209 -133 404 -344
468 -48 15 -157 19 -204 9z"/>
<path d="M5525 5628 c-184 -33 -343 -196 -375 -385 -42 -251 126 -492 375
-538 38 -7 142 -7 176 0 109 21 217 90 284 180 62 83 84 140 91 240 12 141
-35 272 -131 367 -112 113 -267 163 -420 136z"/>
<path d="M2238 5140 c-16 -4 -28 -7 -28 -5 0 2 -27 -10 -61 -26 -279 -136
-334 -515 -102 -718 174 -154 435 -146 598 16 233 234 138 618 -180 727 -45
15 -186 19 -227 6z"/>
<path d="M413 5039 c-105 -35 -183 -111 -219 -211 -21 -56 -20 -171 0 -226 86
-236 387 -302 562 -125 70 71 98 141 97 243 0 87 -28 159 -86 225 -82 95 -234
135 -354 94z"/>
<path d="M4598 5040 c-74 -23 -120 -52 -163 -104 -57 -70 -78 -129 -79 -222
-1 -73 3 -88 34 -148 165 -326 647 -207 642 159 -3 223 -221 381 -434 315z"/>
<path d="M6491 5049 c-106 -18 -200 -89 -249 -188 -23 -48 -27 -68 -27 -146 0
-78 4 -97 28 -146 73 -149 232 -224 390 -183 191 49 303 255 237 437 -59 163
-211 253 -379 226z"/>
<path d="M1295 4581 c-296 -85 -464 -389 -376 -679 19 -62 73 -157 118 -207
63 -70 170 -133 269 -159 85 -22 231 -16 309 14 279 106 423 396 334 673 -53
165 -191 302 -357 354 -73 23 -225 25 -297 4z"/>
<path d="M5475 4581 c-89 -26 -124 -43 -190 -94 -66 -50 -119 -115 -157 -192
-22 -44 -30 -66 -45 -125 -2 -8 -6 -49 -8 -90 -17 -306 232 -560 550 -560 127
0 277 64 366 155 60 61 69 75 107 150 143 285 -8 643 -316 747 -81 28 -229 32
-307 9z"/>
<path d="M3110 4544 c-417 -87 -574 -607 -274 -908 155 -155 382 -202 584
-121 244 98 384 369 324 625 -65 280 -352 463 -634 404z"/>
<path d="M4002 4319 c-66 -33 -97 -87 -97 -169 0 -57 4 -73 29 -108 110 -159
360 -69 344 123 -11 137 -152 215 -276 154z"/>
<path d="M443 3919 c-13 -5 -23 -6 -23 -4 0 11 -115 -47 -151 -76 -83 -66
-138 -178 -141 -287 -7 -225 165 -403 387 -403 287 0 468 283 352 553 -36 84
-132 170 -227 203 -52 18 -164 26 -197 14z"/>
<path d="M2240 3913 c-111 -28 -203 -105 -253 -211 -29 -61 -32 -75 -32 -167
0 -93 2 -105 32 -166 39 -78 111 -150 186 -184 224 -102 479 19 540 257 73
285 -188 545 -473 471z"/>
<path d="M4602 3914 c-170 -44 -288 -186 -296 -358 -13 -304 302 -503 574
-360 114 59 198 193 204 322 12 257 -236 460 -482 396z"/>
<path d="M6452 3914 c-63 -16 -84 -27 -137 -68 -59 -46 -81 -74 -117 -146 -31
-60 -33 -72 -33 -165 0 -94 2 -104 34 -168 65 -131 183 -207 327 -215 239 -13
422 171 409 411 -13 238 -251 410 -483 351z"/>
<path d="M3755 3548 c-150 -23 -316 -138 -380 -264 -11 -21 -22 -41 -25 -44
-3 -3 -15 -34 -25 -70 -29 -93 -27 -233 3 -322 131 -385 610 -498 896 -213
156 156 199 374 116 586 -89 225 -340 365 -585 327z"/>
<path d="M1345 3414 c-80 -19 -115 -31 -155 -52 -265 -140 -368 -449 -239
-720 45 -94 151 -198 249 -245 249 -119 535 -39 691 192 114 170 110 421 -8
592 -103 150 -244 228 -423 234 -52 2 -104 2 -115 -1z"/>
<path d="M5476 3404 c-123 -32 -245 -120 -315 -227 -61 -94 -82 -165 -84 -277
-3 -123 5 -158 53 -256 72 -148 202 -251 362 -289 58 -13 196 -14 243 -2 101
28 179 70 247 135 66 63 112 135 142 223 22 65 25 88 22 184 -3 123 -23 189
-84 282 -73 112 -214 209 -342 233 -69 13 -180 11 -244 -6z"/>
<path d="M2833 3109 c-119 -25 -184 -154 -134 -264 83 -185 358 -129 362 73 3
121 -111 216 -228 191z"/>
<path d="M4617 2789 c-71 -11 -168 -60 -224 -115 -273 -265 -108 -722 272
-751 252 -19 463 180 463 437 0 151 -72 279 -207 370 -75 51 -200 75 -304 59z"/>
<path d="M423 2685 c-202 -60 -303 -282 -214 -470 125 -264 489 -262 617 3 53
111 32 262 -51 360 -83 98 -231 143 -352 107z"/>
<path d="M2248 2685 c-78 -21 -143 -66 -188 -131 -95 -137 -80 -321 37 -437
221 -222 599 -49 578 265 -13 208 -224 358 -427 303z"/>
<path d="M6443 2681 c-95 -32 -152 -83 -204 -181 -20 -38 -24 -59 -24 -140 0
-84 3 -102 28 -152 56 -114 177 -189 306 -189 301 -1 452 364 240 579 -88 89
-230 123 -346 83z"/>
<path d="M1330 2230 c-296 -73 -446 -394 -312 -668 48 -98 178 -209 279 -237
263 -74 531 80 596 343 13 51 14 153 3 200 -61 264 -313 425 -566 362z"/>
<path d="M5499 2229 c-83 -23 -144 -56 -203 -110 -209 -192 -201 -524 17 -706
183 -154 462 -139 632 33 181 183 180 477 -2 658 -118 117 -293 166 -444 125z"/>
<path d="M473 1559 c-203 -36 -268 -302 -105 -426 124 -95 296 -54 367 87 26
51 25 153 -2 206 -29 54 -93 111 -140 122 -68 17 -78 18 -120 11z"/>
<path d="M2293 1559 c-57 -11 -93 -31 -135 -77 -143 -158 -26 -408 186 -398
137 6 230 102 230 236 -1 153 -133 265 -281 239z"/>
<path d="M4652 1559 c-145 -26 -232 -169 -190 -313 19 -64 100 -140 167 -156
59 -14 126 -8 171 15 43 22 98 80 116 123 20 48 20 138 -1 187 -17 42 -66 99
-100 118 -38 20 -119 33 -163 26z"/>
<path d="M6515 1560 c-159 -24 -250 -190 -185 -337 67 -152 277 -189 391 -68
45 47 61 83 66 152 5 54 2 70 -21 117 -48 98 -147 151 -251 136z"/>
<path d="M1349 966 c-119 -37 -205 -147 -214 -276 -4 -59 23 -141 65 -196 46
-61 138 -112 210 -117 49 -4 131 12 168 32 46 24 104 85 130 135 35 67 37 186
5 256 -27 59 -88 121 -149 149 -55 26 -159 34 -215 17z"/>
<path d="M5534 971 c-76 -19 -163 -94 -196 -169 -103 -230 107 -478 351 -416
267 69 304 436 56 561 -54 28 -153 39 -211 24z"/>
</g>
</svg>
