<svg width="64" height="64" viewBox="0 0 64 64" fill="none" xmlns="http://www.w3.org/2000/svg">
<path d="M17.3567 17.5474C16.9176 19.8786 14.6805 21.4257 12.3493 20.9867C10.0181 20.5581 8.47089 18.3105 8.90995 15.9793C9.33856 13.6481 11.5861 12.1114 13.9173 12.54C16.2485 12.979 17.7957 15.2057 17.3567 17.5474Z" fill="#0BBBEF"/>
<path d="M15.8513 6.69619C15.5795 8.20154 14.1368 9.1842 12.6315 8.9124C11.1261 8.6406 10.1435 7.18752 10.4153 5.69262C10.6975 4.18727 12.1401 3.19415 13.635 3.47641C15.1299 3.74821 16.1335 5.20129 15.8513 6.69619Z" fill="#83D0F5"/>
<path d="M15.8513 58.3172C15.5795 59.8121 14.1368 60.8052 12.6315 60.5229C11.1261 60.2407 10.1435 58.7981 10.4153 57.3032C10.6975 55.7978 12.1401 54.8151 13.6455 55.0974C15.1404 55.3692 16.144 56.8118 15.8617 58.3172" fill="#83D0F5"/>
<path d="M8.21982 32.3186C7.86438 34.2525 6.0036 35.5383 4.05919 35.1725C2.12523 34.817 0.839407 32.9562 1.20529 31.0118C1.56072 29.0779 3.4215 27.792 5.35546 28.1579C7.28942 28.5134 8.57525 30.3741 8.20936 32.3186" fill="#0BBBEF"/>
<path d="M7.78089 21.457C7.46728 23.1505 5.83648 24.2795 4.14295 23.9555C2.44943 23.6418 1.33087 22.011 1.64449 20.3175C1.9581 18.624 3.57845 17.5054 5.28242 17.819C6.97594 18.1327 8.10496 19.753 7.79134 21.4465" fill="#83D0F5"/>
<path d="M6.89229 11.8185C6.67276 13.0207 5.51238 13.8152 4.31019 13.5957C3.10799 13.3761 2.31351 12.2158 2.53304 11.0136C2.75257 9.81137 3.91294 9.01687 5.11513 9.23641C6.31732 9.45594 7.11182 10.6163 6.89229 11.8185Z" fill="#B0DEF1"/>
<path d="M27.988 37.5978C27.8103 38.5595 26.9008 39.1868 25.9391 39.009C24.9878 38.8313 24.3501 37.9218 24.5278 36.9705C24.7055 36.0192 25.6254 35.3816 26.5767 35.5593C27.528 35.737 28.1657 36.6465 27.9776 37.5978" fill="#0BBBEF"/>
<path d="M23.5345 52.3167C23.315 53.5189 22.1546 54.3134 20.9524 54.0939C19.7503 53.8743 18.9662 52.714 19.1857 51.5118C19.4053 50.3096 20.5552 49.5255 21.7574 49.7451C22.9596 49.9751 23.7541 51.125 23.5345 52.3272" fill="#B0DEF1"/>
<path d="M7.78089 43.0129C7.46728 44.7169 5.83648 45.8354 4.14295 45.5114C2.44943 45.1977 1.33087 43.5669 1.64449 41.8734C1.9581 40.1799 3.5889 39.0613 5.28242 39.375C6.97594 39.6886 8.10496 41.3194 7.78089 43.0129Z" fill="#B0DEF1"/>
<path d="M24.8729 32.3184C24.5175 34.2524 22.6567 35.5278 20.7228 35.1723C18.7888 34.8169 17.503 32.9561 17.8689 31.0117C18.2243 29.0777 20.0851 27.8024 22.0295 28.1578C23.9635 28.5132 25.2388 30.374 24.8834 32.3184" fill="#83D0F5"/>
<path d="M25.3012 21.6138C24.9039 23.7882 22.8132 25.2204 20.6388 24.8232C18.4644 24.4259 17.0322 22.3351 17.4294 20.1607C17.8371 17.9863 19.9175 16.5542 22.1023 16.9514C24.2767 17.3591 25.7089 19.4394 25.3116 21.6138" fill="#0BBBEF"/>
<path d="M24.4337 43.0129C24.1201 44.7169 22.4998 45.8355 20.7958 45.5219C19.1023 45.2082 17.9837 43.5774 18.2973 41.8839C18.6109 40.1904 20.2417 39.0718 21.9353 39.3855C23.6392 39.6991 24.7578 41.3299 24.4337 43.0234" fill="#B0DEF1"/>
<path d="M17.3567 48.5638C16.9176 50.895 14.6805 52.4317 12.3493 52.0031C10.0181 51.5745 8.47089 49.327 8.90995 46.9957C9.34901 44.6645 11.5861 43.1174 13.9173 43.5564C16.2485 43.985 17.7957 46.2326 17.3567 48.5638Z" fill="#0BBBEF"/>
<path d="M39.1215 26.3808C38.9438 27.3321 38.0343 27.9698 37.0725 27.7816C36.1212 27.6039 35.494 26.6944 35.6717 25.7431C35.8494 24.7814 36.7589 24.1541 37.7102 24.3319C38.6615 24.5096 39.2992 25.4295 39.1215 26.3808Z" fill="#0BBBEF"/>
<path d="M45.0907 11.829C44.8712 13.0312 43.7213 13.8257 42.5086 13.6062C41.3169 13.3866 40.5119 12.2262 40.7419 11.0241C40.9614 9.82186 42.1218 9.02737 43.324 9.2469C44.5262 9.46643 45.3207 10.6268 45.1012 11.829" fill="#B0DEF1"/>
<path d="M46.4184 32.3184C46.0629 34.2524 44.2021 35.5278 42.2682 35.1723C40.3342 34.8169 39.0484 32.9561 39.4143 31.0117C39.7697 29.0777 41.6305 27.8024 43.5749 28.1578C45.5089 28.5132 46.7947 30.374 46.4288 32.3184" fill="#83D0F5"/>
<path d="M46.8466 43.1697C46.4389 45.3546 44.3586 46.7867 42.1842 46.379C40.0098 45.9818 38.5776 43.891 38.9748 41.7166C39.3721 39.5318 41.4629 38.0996 43.6373 38.5073C45.8117 38.9045 47.2438 40.9953 46.8466 43.1697Z" fill="#0BBBEF"/>
<path d="M45.9791 21.457C45.6655 23.1505 44.0452 24.2795 42.3412 23.9555C40.6477 23.6418 39.5291 22.011 39.8427 20.3175C40.1563 18.624 41.7871 17.5054 43.4807 17.819C45.1742 18.1327 46.3032 19.7635 45.9791 21.4465" fill="#B0DEF1"/>
<path d="M56.3702 31.0117C56.7256 29.0777 58.5864 27.8024 60.5203 28.1578C62.4543 28.5132 63.7401 30.374 63.3742 32.308C63.0188 34.2524 61.158 35.5278 59.2136 35.1619C57.2796 34.8065 56.0043 32.9457 56.3597 31.0013" fill="#0BBBEF"/>
<path d="M56.809 41.8733C57.1227 40.1798 58.7534 39.0508 60.447 39.3748C62.1405 39.6885 63.2591 41.3193 62.9454 43.0128C62.6318 44.7063 61.0115 45.8249 59.3075 45.5112C57.614 45.1976 56.4954 43.5773 56.809 41.8733Z" fill="#83D0F5"/>
<path d="M57.6976 51.5119C57.9276 50.3097 59.0775 49.5152 60.2797 49.7452C61.4819 49.9647 62.2764 51.1147 62.0568 52.3169C61.8373 53.519 60.6769 54.3135 59.4747 54.094C58.2725 53.8745 57.4781 52.7141 57.6976 51.5119Z" fill="#B0DEF1"/>
<path d="M23.5345 11.829C23.315 13.0312 22.1546 13.8257 20.9524 13.6062C19.7503 13.3866 18.9662 12.2262 19.1857 11.0241C19.4053 9.82186 20.5552 9.02737 21.7574 9.2469C22.9596 9.46643 23.7541 10.6268 23.5345 11.829" fill="#B0DEF1"/>
<path d="M6.89229 52.3169C6.67276 53.519 5.51238 54.3135 4.31019 54.094C3.10799 53.864 2.31351 52.7141 2.53304 51.5119C2.75257 50.3097 3.91294 49.5152 5.11513 49.7452C6.31732 49.9752 7.11182 51.1251 6.89229 52.3273" fill="#83D0F5"/>
<path d="M40.7315 51.5118C40.951 50.2991 42.1114 49.5151 43.3136 49.7451C44.5158 49.9646 45.3103 51.1145 45.0803 52.3167C44.8608 53.5189 43.7108 54.3134 42.4982 54.0939C41.296 53.8744 40.5015 52.714 40.721 51.5118" fill="#B0DEF1"/>
<path d="M57.6976 11.0241C57.9276 9.82186 59.0775 9.02737 60.2797 9.2469C61.4819 9.46643 62.2764 10.6268 62.0568 11.829C61.8373 13.0312 60.6769 13.8257 59.4747 13.6062C58.2725 13.3866 57.4781 12.2262 57.6976 11.0241Z" fill="#B0DEF1"/>
<path d="M56.809 20.328C57.1227 18.6345 58.7534 17.5159 60.447 17.8295C62.1405 18.1432 63.2591 19.774 62.9454 21.457C62.6318 23.1505 61.0115 24.2691 59.3075 23.9659C57.614 23.6523 56.4954 22.0215 56.809 20.328Z" fill="#83D0F5"/>
<path d="M55.5339 17.5474C55.1053 19.8786 52.8577 21.4257 50.5265 20.9867C48.1953 20.5581 46.6481 18.3105 47.0872 15.9793C47.5158 13.6481 49.7529 12.1114 52.0841 12.54C54.4153 12.979 55.9625 15.2161 55.5234 17.5474" fill="#0BBBEF"/>
<path d="M54.0391 6.69619C53.7568 8.20154 52.3142 9.1842 50.8193 8.9124C49.3139 8.6406 48.3208 7.18752 48.5926 5.69262C48.8749 4.18727 50.3175 3.19415 51.8229 3.47641C53.3178 3.75866 54.3109 5.20129 54.0391 6.70664" fill="#83D0F5"/>
<path d="M54.0391 58.3172C53.7568 59.8226 52.3142 60.8053 50.8193 60.523C49.3139 60.2512 48.3208 58.8086 48.5926 57.3032C48.8749 55.7979 50.3175 54.8047 51.8229 55.087C53.3178 55.3588 54.3109 56.8014 54.0391 58.3068" fill="#83D0F5"/>
<path d="M55.5339 48.5638C55.1053 50.895 52.8577 52.4317 50.5265 52.0136C48.1953 51.5745 46.6481 49.3374 47.0872 46.9957C47.5263 44.6645 49.7529 43.1174 52.0946 43.5564C54.4258 43.985 55.973 46.2326 55.5339 48.5638Z" fill="#0BBBEF"/>
<path d="M34.2917 28.1788C33.7899 30.8655 31.2183 32.6426 28.5317 32.1408C25.845 31.6495 24.0679 29.0674 24.5697 26.3808C25.061 23.6941 27.6431 21.917 30.3297 22.4188C33.0164 22.9206 34.7935 25.4922 34.2917 28.1788Z" fill="#009BD9"/>
<path d="M17.994 27.7816C17.4923 30.4683 14.9102 32.2454 12.2235 31.7436C9.53689 31.2418 7.75973 28.6597 8.25106 25.9836C8.75285 23.2969 11.3349 21.5198 14.0216 22.0216C16.7082 22.5233 18.4854 25.1054 17.9836 27.7816" fill="#009BD9"/>
<path d="M17.994 38.5595C17.4923 41.2461 14.9102 43.0232 12.2235 42.5215C9.53689 42.0197 7.75973 39.4376 8.25106 36.7614C8.75285 34.0748 11.3349 32.2976 14.0216 32.7994C16.7082 33.2907 18.4854 35.8728 17.9836 38.5595" fill="#009BD9"/>
<path d="M39.9994 37.3363C39.4976 40.0229 36.9155 41.8001 34.2289 41.2983C31.5423 40.7965 29.7651 38.2249 30.2564 35.5382C30.7582 32.8516 33.3403 31.0745 36.0269 31.5762C38.7136 32.078 40.4803 34.6601 39.989 37.3363" fill="#009BD9"/>
<path d="M56.1821 27.7816C55.6907 30.4683 53.1086 32.2454 50.4115 31.7541C47.7249 31.2523 45.9477 28.6702 46.4495 25.9836C46.9513 23.2969 49.5334 21.5198 52.22 22.0216C54.9067 22.5129 56.6734 25.095 56.1821 27.7816Z" fill="#009BD9"/>
<path d="M56.182 38.5595C55.6907 41.2461 53.1086 43.0232 50.4115 42.5215C47.7249 42.0197 45.9477 39.4376 46.4391 36.7614C46.9408 34.0748 49.5229 32.2976 52.2096 32.7994C54.8962 33.2907 56.6629 35.8728 56.1716 38.5595" fill="#009BD9"/>
</svg>
