<svg width="44" height="28" viewBox="0 0 44 28" fill="none" xmlns="http://www.w3.org/2000/svg">
<rect x="0.5" y="0.5" width="43" height="27" rx="2.5" stroke="black"/>
<path d="M11.3901 8.91768C10.9982 9.38018 10.3711 9.74498 9.74405 9.69286C9.66567 9.0675 9.97267 8.40306 10.3319 7.99267C10.7239 7.51714 11.4097 7.1784 11.9649 7.15234C12.0303 7.80376 11.7755 8.44215 11.3901 8.91768ZM11.9584 9.81663C11.0505 9.76452 10.2731 10.3312 9.84203 10.3312C9.40439 10.3312 8.74466 9.84269 8.02614 9.85572C7.09206 9.86874 6.22331 10.3964 5.74647 11.2367C4.76667 12.9174 5.49172 15.4058 6.43886 16.7737C6.90264 17.4512 7.45785 18.1938 8.18944 18.1678C8.88183 18.1417 9.15617 17.7183 9.99227 17.7183C10.8349 17.7183 11.0766 18.1678 11.8082 18.1547C12.5659 18.1417 13.0427 17.4773 13.5065 16.7998C14.0356 16.0311 14.2511 15.282 14.2642 15.2429C14.2511 15.2299 12.801 14.6762 12.788 13.0086C12.7749 11.6145 13.9311 10.9501 13.9833 10.911C13.3301 9.94691 12.3111 9.84269 11.9584 9.81663ZM17.2036 7.92753V18.0831H18.7843V14.611H20.9726C22.9714 14.611 24.3757 13.2431 24.3757 11.2628C24.3757 9.28247 22.9975 7.92753 21.0248 7.92753H17.2036ZM18.7843 9.25641H20.6068C21.9785 9.25641 22.7623 9.986 22.7623 11.2693C22.7623 12.5526 21.9785 13.2887 20.6002 13.2887H18.7843V9.25641ZM27.2629 18.1613C28.2557 18.1613 29.1767 17.6597 29.5948 16.8649H29.6275V18.0831H31.0906V13.0281C31.0906 11.5624 29.9149 10.6179 28.1055 10.6179C26.4268 10.6179 25.1857 11.5755 25.14 12.8913H26.5639C26.6815 12.266 27.2629 11.8556 28.0598 11.8556C29.0265 11.8556 29.5687 12.305 29.5687 13.1323V13.6926L27.596 13.8098C25.7605 13.9205 24.7677 14.6697 24.7677 15.9725C24.7677 17.2884 25.7932 18.1613 27.2629 18.1613ZM27.6875 16.9561C26.8448 16.9561 26.3092 16.5523 26.3092 15.9334C26.3092 15.295 26.8252 14.9237 27.8116 14.8651L29.5687 14.7544V15.3276C29.5687 16.2787 28.7587 16.9561 27.6875 16.9561ZM33.0437 20.8451C34.5852 20.8451 35.3103 20.2588 35.9439 18.4805L38.72 10.7156H37.1131L35.2515 16.7151H35.2188L33.3572 10.7156H31.7046L34.3828 18.1091L34.239 18.5586C33.9974 19.3208 33.6054 19.6139 32.9065 19.6139C32.7824 19.6139 32.5407 19.6009 32.4427 19.5879V20.806C32.5342 20.8321 32.9261 20.8451 33.0437 20.8451Z" fill="#1F2020"/>
</svg>
