<svg width="14" height="17" viewBox="0 0 14 17" xmlns="http://www.w3.org/2000/svg">
<path fill-rule="evenodd" clip-rule="evenodd" d="M6.59136 0.678432C5.81271 0.798752 5.13736 1.13431 4.63129 1.65231C4.1176 2.17806 3.82532 2.76912 3.73264 3.46951C3.71055 3.63644 3.68726 3.79101 3.68092 3.81296C3.67197 3.84382 3.43503 3.8529 2.63756 3.8529C1.50665 3.8529 1.48486 3.85612 1.34774 4.04446C1.28178 4.13504 1.24659 4.47833 0.788248 9.50025C0.460916 13.0867 0.305663 14.9209 0.318894 15.0455C0.377408 15.597 0.734732 16.1754 1.22826 16.5175C1.49737 16.704 1.71131 16.8059 2.05638 16.9117L2.34411 17H6.99975H11.6554L11.9431 16.9117C12.2882 16.8059 12.5021 16.704 12.7712 16.5175C13.272 16.1703 13.6304 15.5831 13.6811 15.0265C13.6931 14.8951 13.5339 13.019 13.2128 9.50696C12.8241 5.25559 12.7152 4.16555 12.6712 4.0822C12.6408 4.02482 12.5689 3.9498 12.5114 3.91552C12.4135 3.85711 12.3407 3.85312 11.3685 3.85302C10.5658 3.85293 10.3275 3.84382 10.3186 3.81296C10.3122 3.79101 10.2889 3.63644 10.2669 3.46951C10.2251 3.15414 10.0928 2.70985 9.97001 2.47269C9.5263 1.61582 8.71194 0.978722 7.76752 0.749647C7.51092 0.687378 6.80856 0.644854 6.59136 0.678432ZM7.51925 1.61933C8.2864 1.78745 8.98364 2.39119 9.2386 3.10813C9.32456 3.34986 9.40124 3.769 9.36886 3.82021C9.34018 3.86558 4.65932 3.86558 4.63063 3.82021C4.59826 3.769 4.67494 3.34986 4.76089 3.10813C4.86531 2.81455 5.0137 2.58017 5.26194 2.31682C5.65219 1.90269 6.13524 1.66183 6.75471 1.5724C6.89076 1.55275 7.34181 1.58045 7.51925 1.61933ZM3.7065 5.5277L3.7163 6.30796L3.79798 6.39336C4.03452 6.64075 4.37684 6.61429 4.55085 6.33522C4.60914 6.24176 4.61453 6.1702 4.61462 5.49029L4.61476 4.74747H6.99975H9.38474L9.38487 5.49029C9.38497 6.17515 9.39007 6.24122 9.44992 6.33723C9.63784 6.63864 10.0464 6.63864 10.2344 6.33723C10.2942 6.24122 10.2993 6.17515 10.2994 5.49029L10.2995 4.74747H11.0755H11.8514L12.3107 9.80342C12.6209 13.217 12.7624 14.9068 12.7465 15.0055C12.668 15.4924 12.2126 15.9143 11.6064 16.0617C11.4588 16.0976 10.6346 16.1054 6.99975 16.1054C3.36492 16.1054 2.54066 16.0976 2.39312 16.0617C1.78658 15.9142 1.33167 15.4926 1.2528 15.0048C1.23669 14.9051 1.37358 13.2688 1.67932 9.90655C1.92693 7.18327 2.13005 4.9084 2.13064 4.85131L2.13175 4.74747H2.91422H3.69673L3.7065 5.5277Z"/>
</svg>
