<svg width="36" height="31" viewBox="0 0 36 31" fill="none" xmlns="http://www.w3.org/2000/svg">
<path fill-rule="evenodd" clip-rule="evenodd" d="M35.25 26.9999C35.25 29.0714 33.5715 30.7499 31.5 30.7499H4.5C2.4285 30.7499 0.75 29.0714 0.75 26.9999V5.24989C0.75 3.59314 2.09325 2.24989 3.75 2.24989H18.8782L24.9525 0.0493869C25.3373 -0.0908631 25.7632 0.107887 25.9035 0.491137L26.5432 2.24989H29.25C30.9068 2.24989 32.25 3.59314 32.25 5.24989V6.74989C33.9068 6.74989 35.25 8.09314 35.25 9.74989V26.9999ZM3.75 3.74989C2.922 3.74989 2.25 4.42189 2.25 5.24989C2.25 6.07789 2.922 6.74989 3.75 6.74989H6.33375H6.4755C6.48525 6.74614 6.49125 6.73789 6.501 6.73414L14.7375 3.74989H3.75ZM25.5585 3.88564L24.762 1.69264H24.7612L23.223 2.24989H23.2252L19.0897 3.74989H19.0823L10.803 6.74989H26.5995L25.5585 3.88564ZM30.75 5.24989C30.75 4.42189 30.078 3.74989 29.25 3.74989H27.0878L28.1782 6.74989H30.75V5.24989ZM32.25 8.24989H3.75C3.201 8.24989 2.6925 8.09164 2.25 7.83364V26.9999C2.25 28.2426 3.258 29.2499 4.5 29.2499H31.5C32.7427 29.2499 33.75 28.2426 33.75 26.9999V21.7499H30.75C29.0932 21.7499 27.75 20.4066 27.75 18.7499C27.75 17.0931 29.0932 15.7499 30.75 15.7499H33.75V9.74989C33.75 8.92189 33.078 8.24989 32.25 8.24989ZM33.75 20.2499V17.2499H30.75C29.922 17.2499 29.25 17.9219 29.25 18.7499C29.25 19.5779 29.922 20.2499 30.75 20.2499H33.75ZM30.75 17.9999H32.25V19.4999H30.75V17.9999Z" fill="black"/>
</svg>
