<svg width="14" height="14" viewBox="0 0 14 14" xmlns="http://www.w3.org/2000/svg">
<path d="M8.28262 7.0107L13.7339 1.55922C14.0887 1.20462 14.0887 0.631286 13.7339 0.27669C13.3793 -0.077907 12.806 -0.077907 12.4514 0.27669L6.99992 5.72818L1.5486 0.27669C1.19384 -0.077907 0.620669 -0.077907 0.266072 0.27669C-0.0886907 0.631286 -0.0886907 1.20462 0.266072 1.55922L5.71739 7.0107L0.266072 12.4622C-0.0886907 12.8168 -0.0886907 13.3901 0.266072 13.7447C0.442789 13.9216 0.675146 14.0105 0.907336 14.0105C1.13953 14.0105 1.37172 13.9216 1.5486 13.7447L6.99992 8.29323L12.4514 13.7447C12.6283 13.9216 12.8605 14.0105 13.0927 14.0105C13.3249 14.0105 13.5571 13.9216 13.7339 13.7447C14.0887 13.3901 14.0887 12.8168 13.7339 12.4622L8.28262 7.0107Z"/>
</svg>
