<svg width="16" height="16" viewBox="0 0 16 16" fill="none" xmlns="http://www.w3.org/2000/svg">
<path fill-rule="evenodd" clip-rule="evenodd" d="M7.22904 0.0706885C6.93419 0.143219 6.47625 0.348453 6.22785 0.519431C6.13941 0.58028 5.95767 0.736009 5.82395 0.865482C5.32335 1.35025 4.94942 1.52442 4.28731 1.58121C3.74458 1.62779 3.48349 1.69318 3.10246 1.87794C2.56491 2.13862 2.14227 2.56129 1.88227 3.0983C1.69271 3.48984 1.62816 3.75442 1.58681 4.30976C1.55602 4.7232 1.54017 4.79081 1.4149 5.04446C1.33901 5.19808 1.18498 5.43156 1.07262 5.56325C0.960233 5.69494 0.775856 5.91096 0.662864 6.04329C0.404136 6.34622 0.173947 6.78591 0.0783789 7.15953C-0.0261263 7.56827 -0.0261263 8.4318 0.0783789 8.84054C0.173947 9.21416 0.404136 9.65385 0.662864 9.95678C0.775856 10.0891 0.960233 10.3051 1.07262 10.4368C1.18498 10.5685 1.33901 10.802 1.4149 10.9556C1.54017 11.2093 1.55602 11.2769 1.58681 11.6903C1.62699 12.2296 1.69244 12.5074 1.86413 12.8668C2.12304 13.4088 2.59368 13.8805 3.1325 14.1381C3.48308 14.3056 3.75859 14.3736 4.26655 14.4176C4.93826 14.4759 5.26135 14.6233 5.7722 15.1046C6.15158 15.4621 6.45244 15.6615 6.8334 15.8081C7.22356 15.9583 7.48533 16.0007 8.01919 16C8.88246 15.9989 9.4517 15.7704 10.0869 15.1698C10.6327 14.6537 11.0774 14.459 11.8331 14.4051C12.2373 14.3763 12.5326 14.3009 12.8669 14.1411C13.4198 13.8769 13.8782 13.4184 14.1424 12.8653C14.3115 12.5113 14.3857 12.2028 14.4121 11.744C14.4524 11.044 14.6469 10.6132 15.1837 10.0347C15.7471 9.42758 16 8.79704 16 8.00003C16 7.20302 15.7471 6.57248 15.1837 5.96538C14.6442 5.38394 14.4811 5.02789 14.4208 4.30026C14.3761 3.76069 14.3108 3.48744 14.1424 3.13478C13.8782 2.58169 13.4198 2.12322 12.8669 1.85894C12.5163 1.69141 12.2404 1.62482 11.7205 1.58234C11.0089 1.52415 10.6283 1.34653 10.0085 0.783374C9.59638 0.408814 9.20837 0.192124 8.73852 0.0741065C8.3507 -0.0232895 7.61788 -0.0249422 7.22904 0.0706885ZM6.56896 4.50005C6.86134 4.61217 7.161 4.85553 7.33129 5.11906C7.5379 5.43885 7.602 5.68386 7.583 6.08137C7.55453 6.67713 7.23693 7.15972 6.69803 7.4261C6.45586 7.54584 6.37561 7.56613 6.09011 7.57976C5.68688 7.59907 5.44381 7.53585 5.12268 7.32825C4.44732 6.89164 4.21135 6.00753 4.57593 5.27997C4.76481 4.903 5.17408 4.56833 5.59556 4.44619C5.8342 4.37704 6.31812 4.40382 6.56896 4.50005ZM11.085 4.91713C11.1759 5.00806 11.1948 5.05798 11.1948 5.2077V5.38852L5.39207 11.1927H5.2113C4.95433 11.1927 4.81104 11.0494 4.81104 10.7924V10.6115L10.6137 4.80734H10.7945C10.9442 4.80734 10.9941 4.82619 11.085 4.91713ZM5.77077 5.22843C5.54888 5.28917 5.28418 5.57095 5.22767 5.80654C5.13912 6.17576 5.30397 6.53105 5.64201 6.69955C5.97171 6.86388 6.30107 6.81145 6.55939 6.55344C7.13584 5.97774 6.56108 5.01208 5.77077 5.22843ZM10.6908 8.56184C11.6799 9.04791 11.9078 10.3014 11.1524 11.1004C10.3842 11.9128 9.06199 11.7014 8.5635 10.6864C8.44048 10.436 8.43474 10.4058 8.43474 10.0103C8.43474 9.6235 8.44251 9.57993 8.55359 9.34547C8.7543 8.92171 9.06811 8.64116 9.52323 8.47867C9.66604 8.42767 9.7983 8.41418 10.0712 8.42278C10.3918 8.43289 10.4591 8.44799 10.6908 8.56184ZM9.73063 9.25142C9.44573 9.34217 9.20454 9.70125 9.20454 10.0347C9.20454 10.2267 9.37074 10.5291 9.54137 10.6473C9.88275 10.8839 10.2646 10.8497 10.5582 10.556C11.1616 9.95239 10.5511 8.99003 9.73063 9.25142Z" fill="#009BD9"/>
</svg>
