<svg width="44" height="28" viewBox="0 0 44 28" fill="none" xmlns="http://www.w3.org/2000/svg">
<rect x="0.5" y="0.5" width="43" height="27" rx="2.5" stroke="black"/>
<path d="M21.0948 14.7234V18.5937H19.86V9.0358H23.135C23.5259 9.02768 23.9146 9.09662 24.2785 9.23864C24.6425 9.38065 24.9746 9.59294 25.2557 9.86324C25.5395 10.1171 25.7655 10.4285 25.9183 10.7764C26.0711 11.1244 26.1472 11.5008 26.1415 11.8804C26.1497 12.262 26.0747 12.6409 25.9218 12.991C25.7689 13.3412 25.5417 13.6543 25.2557 13.9089C24.683 14.4519 23.9761 14.7232 23.135 14.7227H21.0948V14.7234ZM21.0948 10.2125V13.549H23.1656C23.3927 13.5557 23.6186 13.5152 23.829 13.4301C24.0394 13.345 24.2296 13.2172 24.3874 13.0548C24.5445 12.903 24.6693 12.7214 24.7546 12.5208C24.8398 12.3202 24.8837 12.1046 24.8837 11.8869C24.8837 11.6691 24.8398 11.4535 24.7546 11.2529C24.6693 11.0523 24.5445 10.8707 24.3874 10.7189C24.2316 10.5531 24.042 10.4222 23.8314 10.3347C23.6207 10.2473 23.3938 10.2054 23.1656 10.2118H21.0948V10.2125Z" fill="#1F2020"/>
<path d="M28.9871 11.8398C29.8998 11.8398 30.6202 12.0824 31.1484 12.5674C31.6766 13.0524 31.9405 13.7174 31.94 14.5624V18.5928H30.7588V17.6853H30.7051C30.1938 18.4327 29.5137 18.8064 28.665 18.8064C27.9404 18.8064 27.3342 18.5928 26.8464 18.1658C26.6124 17.9698 26.4252 17.7243 26.2986 17.4472C26.172 17.1702 26.1092 16.8685 26.1148 16.5643C26.1148 15.8876 26.3719 15.3494 26.8863 14.9498C27.4007 14.5502 28.0874 14.3499 28.9464 14.3489C29.6797 14.3489 30.2835 14.4823 30.758 14.7492V14.4686C30.7594 14.2612 30.7144 14.056 30.6262 13.8681C30.538 13.6801 30.4088 13.514 30.248 13.3819C29.9215 13.0889 29.4959 12.9291 29.0561 12.9342C28.3663 12.9342 27.8205 13.2235 27.4186 13.8021L26.331 13.121C26.9293 12.2669 27.8146 11.8398 28.9871 11.8398ZM27.3895 16.591C27.3886 16.7472 27.4254 16.9014 27.4966 17.0407C27.5679 17.18 27.6715 17.3003 27.799 17.3917C28.0721 17.6053 28.4111 17.7185 28.7585 17.712C29.2796 17.7112 29.7791 17.5049 30.1475 17.1385C30.5566 16.7557 30.7611 16.3065 30.7611 15.791C30.3761 15.4859 29.8392 15.3334 29.1505 15.3334C28.6488 15.3334 28.2306 15.4536 27.8957 15.6941C27.5574 15.9382 27.3895 16.2348 27.3895 16.591Z" fill="#1F2020"/>
<path d="M38.72 12.0547L34.5967 21.4769H33.322L34.8521 18.1801L32.1409 12.0547H33.4831L35.4427 16.7524H35.4695L37.3755 12.0547H38.72Z" fill="#1F2020"/>
<path d="M16.1049 13.8899C16.1053 13.5157 16.0735 13.1422 16.0098 12.7734H10.802V14.8882H13.7848C13.7237 15.2259 13.5945 15.5479 13.405 15.8347C13.2154 16.1215 12.9694 16.3671 12.6818 16.5568V17.9295H14.462C15.5043 16.9739 16.1049 15.5608 16.1049 13.8899Z" fill="#1F2020"/>
<path d="M10.802 19.2564C12.2922 19.2564 13.547 18.7698 14.462 17.9309L12.6819 16.5582C12.1864 16.8923 11.5483 17.0829 10.802 17.0829C9.36161 17.0829 8.13905 16.1174 7.70187 14.8164H5.86803V16.2311C6.32765 17.1405 7.03244 17.905 7.90369 18.4392C8.77495 18.9734 9.7784 19.2563 10.802 19.2564Z" fill="#1F2020"/>
<path d="M7.70186 14.8172C7.47074 14.1355 7.47074 13.3972 7.70186 12.7154V11.3008H5.86802C5.48137 12.0658 5.28 12.9101 5.28 13.7663C5.28 14.6225 5.48137 15.4669 5.86802 16.2319L7.70186 14.8172Z" fill="#1F2020"/>
<path d="M10.802 10.4473C11.5895 10.4345 12.3505 10.7303 12.9204 11.2709L14.4965 9.70371C13.4971 8.77032 12.1731 8.25787 10.802 8.2738C9.7784 8.27384 8.77495 8.55677 7.90369 9.09099C7.03244 9.62521 6.32765 10.3897 5.86803 11.2991L7.70187 12.7138C8.13905 11.4127 9.36161 10.4473 10.802 10.4473Z" fill="#1F2020"/>
</svg>
