<svg width="16" height="16" viewBox="0 0 16 16" xmlns="http://www.w3.org/2000/svg">
    <path d="M7.99993 6.89453H15.2823C15.3627 7.34319 15.4028 7.77176 15.4028 8.18024C15.4028 9.63337 15.0981 10.9308 14.4888 12.0725C13.8794 13.2143 13.0105 14.1066 11.8822 14.7494C10.7538 15.3923 9.45975 15.7137 7.99993 15.7137C6.94859 15.7137 5.94747 15.5112 4.99658 15.106C4.04569 14.7009 3.22538 14.1535 2.53564 13.4637C1.84591 12.774 1.29848 11.9537 0.893345 11.0028C0.488211 10.0519 0.285645 9.05078 0.285645 7.99944C0.285645 6.9481 0.488211 5.94699 0.893345 4.99609C1.29848 4.0452 1.84591 3.22489 2.53564 2.53516C3.22538 1.84542 4.04569 1.29799 4.99658 0.892857C5.94747 0.487723 6.94859 0.285156 7.99993 0.285156C10.0089 0.285156 11.7332 0.958147 13.1729 2.30413L11.0736 4.3231C10.2499 3.52623 9.22538 3.12779 7.99993 3.12779C7.13609 3.12779 6.33754 3.34542 5.60428 3.78069C4.87102 4.21596 4.29011 4.80692 3.86154 5.55357C3.43297 6.30022 3.21868 7.11551 3.21868 7.99944C3.21868 8.88337 3.43297 9.69866 3.86154 10.4453C4.29011 11.192 4.87102 11.7829 5.60428 12.2182C6.33754 12.6535 7.13609 12.8711 7.99993 12.8711C8.58252 12.8711 9.11823 12.7907 9.60707 12.63C10.0959 12.4693 10.4977 12.2684 10.8124 12.0273C11.1272 11.7863 11.4017 11.5117 11.6361 11.2037C11.8705 10.8956 12.0429 10.6044 12.1534 10.3298C12.2639 10.0552 12.3392 9.79408 12.3794 9.54632H7.99993V6.89453Z"/>
</svg>