<svg width="44" height="28" viewBox="0 0 44 28" fill="none" xmlns="http://www.w3.org/2000/svg">
<g id="MasterCard">
<g id="MasterCard_2">
<g id="Group">
<g id="Group_2">
<path id="Vector" d="M25.8396 20.8794H18.1403V7.12109H25.8396V20.8794Z" fill="#1F2020"/>
<g id="Group_3">
<path id="Vector_2" d="M18.6336 14C18.6336 11.2091 19.9478 8.72296 21.9943 7.12083C20.4977 5.94926 18.6089 5.25 16.5562 5.25C11.6966 5.25 7.75734 9.16744 7.75734 14C7.75734 18.8326 11.6966 22.75 16.5562 22.75C18.6089 22.75 20.4977 22.0507 21.9943 20.8792C19.9478 19.277 18.6336 16.7909 18.6336 14Z" fill="#1F2020"/>
</g>
<g id="Group_4">
<path id="Vector_3" d="M36.2235 14C36.2235 18.8326 32.2842 22.75 27.4246 22.75C25.3719 22.75 23.4831 22.0507 21.9859 20.8792C24.0331 19.277 25.3473 16.7909 25.3473 14C25.3473 11.2091 24.0331 8.72296 21.9859 7.12083C23.4831 5.94926 25.3719 5.25 27.4246 5.25C32.2842 5.25 36.2235 9.16744 36.2235 14Z" fill="#1F2020"/>
</g>
</g>
<g id="Group_5">
<path id="Vector_4" d="M14.3785 14.0534C14.3785 13.6712 14.6304 13.3572 15.042 13.3572C15.4353 13.3572 15.7008 13.6577 15.7008 14.0534C15.7008 14.4491 15.4353 14.7496 15.042 14.7496C14.6304 14.7496 14.3785 14.4356 14.3785 14.0534ZM16.149 14.0534V12.9662H15.6735V13.2302C15.5227 13.0344 15.2939 12.9115 14.9828 12.9115C14.3696 12.9115 13.8888 13.3895 13.8888 14.0534C13.8888 14.7178 14.3696 15.1953 14.9828 15.1953C15.2939 15.1953 15.5227 15.0724 15.6735 14.8766V15.1406H16.149V14.0534ZM32.2176 14.0534C32.2176 13.6712 32.4695 13.3572 32.8811 13.3572C33.275 13.3572 33.5399 13.6577 33.5399 14.0534C33.5399 14.4491 33.275 14.7496 32.8811 14.7496C32.4695 14.7496 32.2176 14.4356 32.2176 14.0534ZM33.9887 14.0534V12.093H33.5127V13.2302C33.3619 13.0344 33.133 12.9115 32.822 12.9115C32.2087 12.9115 31.728 13.3895 31.728 14.0534C31.728 14.7178 32.2087 15.1953 32.822 15.1953C33.133 15.1953 33.3619 15.0724 33.5127 14.8766V15.1406H33.9887V14.0534ZM22.0514 13.3348C22.3578 13.3348 22.5547 13.5259 22.605 13.8623H21.4701C21.5209 13.5483 21.7126 13.3348 22.0514 13.3348ZM22.0609 12.9115C21.4199 12.9115 20.9716 13.3754 20.9716 14.0534C20.9716 14.7449 21.4382 15.1953 22.0928 15.1953C22.4222 15.1953 22.7238 15.1136 22.9893 14.8907L22.7563 14.5403C22.573 14.6855 22.3395 14.7678 22.12 14.7678C21.8137 14.7678 21.5346 14.6267 21.466 14.2351H23.0899C23.0946 14.1763 23.0993 14.1169 23.0993 14.0534C23.0946 13.3754 22.6736 12.9115 22.0609 12.9115ZM27.8025 14.0534C27.8025 13.6712 28.0544 13.3572 28.466 13.3572C28.8593 13.3572 29.1248 13.6577 29.1248 14.0534C29.1248 14.4491 28.8593 14.7496 28.466 14.7496C28.0544 14.7496 27.8025 14.4356 27.8025 14.0534ZM29.5731 14.0534V12.9662H29.0976V13.2302C28.9462 13.0344 28.7179 12.9115 28.4068 12.9115C27.7936 12.9115 27.3128 13.3895 27.3128 14.0534C27.3128 14.7178 27.7936 15.1953 28.4068 15.1953C28.7179 15.1953 28.9462 15.0724 29.0976 14.8766V15.1406H29.5731V14.0534ZM25.1171 14.0534C25.1171 14.7131 25.5789 15.1953 26.2838 15.1953C26.6132 15.1953 26.8326 15.1224 27.0704 14.936L26.8421 14.5538C26.6635 14.6814 26.476 14.7496 26.2697 14.7496C25.89 14.7449 25.6109 14.4721 25.6109 14.0534C25.6109 13.6348 25.89 13.3619 26.2697 13.3572C26.476 13.3572 26.6635 13.4254 26.8421 13.553L27.0704 13.1708C26.8326 12.9844 26.6132 12.9115 26.2838 12.9115C25.5789 12.9115 25.1171 13.3937 25.1171 14.0534ZM31.2478 12.9115C30.9734 12.9115 30.7948 13.0391 30.6712 13.2302V12.9662H30.1999V15.1406H30.6759V13.9217C30.6759 13.5619 30.8315 13.3619 31.1425 13.3619C31.2389 13.3619 31.3394 13.3754 31.44 13.4166L31.5866 12.9709C31.4813 12.9297 31.3441 12.9115 31.2478 12.9115ZM18.5009 13.139C18.272 12.9891 17.9568 12.9115 17.609 12.9115C17.055 12.9115 16.6984 13.1755 16.6984 13.6077C16.6984 13.9623 16.9639 14.181 17.453 14.2492L17.6777 14.281C17.9384 14.3174 18.0615 14.3856 18.0615 14.5085C18.0615 14.6767 17.8876 14.7725 17.563 14.7725C17.2336 14.7725 16.9958 14.6678 16.8356 14.545L16.6114 14.9131C16.8722 15.1042 17.2016 15.1953 17.5583 15.1953C18.1898 15.1953 18.5559 14.8996 18.5559 14.4856C18.5559 14.1034 18.2678 13.9034 17.7918 13.8352L17.5677 13.8029C17.3619 13.7759 17.1969 13.7353 17.1969 13.5895C17.1969 13.4301 17.3524 13.3348 17.6132 13.3348C17.8924 13.3348 18.1626 13.4395 18.2951 13.5212L18.5009 13.139ZM24.6363 12.9115C24.3619 12.9115 24.1833 13.0391 24.0603 13.2302V12.9662H23.589V15.1406H24.0645V13.9217C24.0645 13.5619 24.22 13.3619 24.5311 13.3619C24.6274 13.3619 24.728 13.3754 24.8285 13.4166L24.9751 12.9709C24.8699 12.9297 24.7327 12.9115 24.6363 12.9115ZM20.5783 12.9662H19.8007V12.3064H19.3199V12.9662H18.8764V13.3984H19.3199V14.3903C19.3199 14.8949 19.5168 15.1953 20.0793 15.1953C20.2856 15.1953 20.5233 15.1318 20.6742 15.0271L20.5369 14.622C20.395 14.7038 20.2395 14.7449 20.1159 14.7449C19.8782 14.7449 19.8007 14.5991 19.8007 14.3809V13.3984H20.5783V12.9662ZM13.4683 15.1406V13.7759C13.4683 13.2619 13.1389 12.9162 12.6079 12.9115C12.3288 12.9068 12.0408 12.9933 11.8391 13.2984C11.6883 13.0573 11.4506 12.9115 11.1165 12.9115C10.8829 12.9115 10.6546 12.9797 10.476 13.2343V12.9662H9.99997V15.1406H10.4802V13.9352C10.4802 13.5577 10.6907 13.3572 11.0159 13.3572C11.3317 13.3572 11.4914 13.5619 11.4914 13.9305V15.1406H11.9722V13.9352C11.9722 13.5577 12.1916 13.3572 12.5074 13.3572C12.832 13.3572 12.9876 13.5619 12.9876 13.9305V15.1406H13.4683Z" />
</g>
</g>
</g>
</g>
</svg>
