<svg width="44" height="28" viewBox="0 0 44 28" fill="none" xmlns="http://www.w3.org/2000/svg">
<g id="mir pay">
<rect id="Rectangle" x="0.5" y="0.5" width="43" height="27" rx="2.5" stroke="black"/>
<g id="mir-logo-h14px 1">
<path id="path10" fill-rule="evenodd" clip-rule="evenodd" d="M36.0706 9H29.4277C29.7849 11.2143 31.9277 13.2857 34.2849 13.2857H39.5706C39.642 13.0714 39.642 12.7857 39.642 12.5714C39.642 10.5714 38.0706 9 36.0706 9Z" fill="black"/>
<path id="path12" fill-rule="evenodd" clip-rule="evenodd" d="M30 13.6428V19H33.2143V16.1428H36.0714C37.6429 16.1428 39 15.0714 39.4286 13.6428H30Z" fill="black"/>
<path id="path14" fill-rule="evenodd" clip-rule="evenodd" d="M18.5723 9V19H21.4294C21.4294 19 22.1437 19 22.5008 18.2857C24.4294 14.4286 25.0008 13.2857 25.0008 13.2857H25.358V19H28.5723V9H25.7151C25.7151 9 25.0008 9.07143 24.6437 9.71429C23.0008 13 22.1437 14.7143 22.1437 14.7143H21.7866V9H18.5723Z" fill="black"/>
<path id="path16" fill-rule="evenodd" clip-rule="evenodd" d="M5 19V9H8.21429C8.21429 9 9.14286 9 9.64286 10.4286C10.9286 14.2143 11.0714 14.7143 11.0714 14.7143C11.0714 14.7143 11.3571 13.7857 12.5 10.4286C13 9 13.9286 9 13.9286 9H17.1429V19H13.9286V13.6429H13.5714L11.7857 19H10.3571L8.57143 13.6429H8.21429V19H5Z" fill="black"/>
</g>
</g>
</svg>
