<svg width="13" height="13" viewBox="0 0 13 13" fill="none" xmlns="http://www.w3.org/2000/svg">
<path d="M1.88051 2.13051C1.95764 1.07908 2.83512 0.25 3.90625 0.25H9.53125C11.1709 0.25 12.5 1.57916 12.5 3.21875V6.96875C12.5 8.03988 11.6709 8.91738 10.6195 8.9945C10.5424 10.0459 9.66488 10.875 8.59375 10.875H5.41669L3.125 12.5938C2.60997 12.98 1.875 12.6126 1.875 11.9688V10.8691C0.826181 10.7893 0 9.913 0 8.84375V4.15625C0 3.08512 0.829075 2.20764 1.88051 2.13051ZM2.82358 2.125H8.59375C9.71556 2.125 10.625 3.03442 10.625 4.15625V8.05144C11.1551 7.97563 11.5625 7.51975 11.5625 6.96875V3.21875C11.5625 2.09692 10.6531 1.1875 9.53125 1.1875H3.90625C3.35524 1.1875 2.89939 1.59496 2.82358 2.125ZM2.03125 9.9375H2.8125V11.6562L5.10419 9.9375H8.59375C9.19781 9.9375 9.6875 9.44781 9.6875 8.84375V4.15625C9.6875 3.55219 9.19781 3.0625 8.59375 3.0625H2.03125C1.42719 3.0625 0.9375 3.55219 0.9375 4.15625V8.84375C0.9375 9.44781 1.42719 9.9375 2.03125 9.9375Z" fill="#808080"/>
</svg>
