<svg width="44" height="28" viewBox="0 0 44 28" fill="none" xmlns="http://www.w3.org/2000/svg">
<rect x="0.5" y="0.5" width="43" height="27" rx="2.5" stroke="black"/>
<path d="M19.7707 18.8436H17.0618L18.7561 9.1875H21.4648L19.7707 18.8436Z" fill="#1F2020"/>
<path d="M29.5905 9.42282C29.0562 9.22744 28.2088 9.01172 27.1609 9.01172C24.4858 9.01172 22.602 10.3265 22.5905 12.2063C22.5682 13.5932 23.9392 14.3635 24.9646 14.8259C26.0126 15.2985 26.3688 15.6069 26.3688 16.0281C26.3582 16.675 25.522 16.9732 24.7421 16.9732C23.6606 16.9732 23.0811 16.8194 22.2004 16.4595L21.8437 16.3052L21.4647 18.4728C22.1 18.7396 23.2705 18.9763 24.4858 18.9867C27.3281 18.9867 29.1786 17.6923 29.2005 15.6891C29.2113 14.5899 28.4874 13.7476 26.9267 13.0593C25.9793 12.6175 25.399 12.3196 25.399 11.8676C25.4101 11.4566 25.8898 11.0357 26.9593 11.0357C27.8399 11.015 28.487 11.2102 28.9771 11.4054L29.2221 11.5079L29.5905 9.42282Z" fill="#1F2020"/>
<path d="M33.1909 15.4228C33.4139 14.868 34.2724 12.7211 34.2724 12.7211C34.2611 12.7417 34.495 12.1561 34.6288 11.7966L34.8181 12.6286C34.8181 12.6286 35.3311 14.94 35.4425 15.4228C35.0191 15.4228 33.7259 15.4228 33.1909 15.4228ZM36.5346 9.1875H34.4393C33.7932 9.1875 33.3023 9.36199 33.0235 9.98867L28.9998 18.8434H31.8421C31.8421 18.8434 32.3101 17.6516 32.4107 17.395C32.7225 17.395 35.4875 17.395 35.8886 17.395C35.9664 17.734 36.2118 18.8434 36.2118 18.8434H38.72L36.5346 9.1875Z" fill="#1F2020"/>
<path d="M14.7992 9.1875L12.1463 15.772L11.8564 14.4366C11.3659 12.8957 9.82775 11.2215 8.11121 10.3891L10.5411 18.8333H13.4057L17.6636 9.1875H14.7992Z" fill="#1F2020"/>
<path d="M9.6829 9.1875H5.32459L5.28 9.3826C8.67976 10.1839 10.9313 12.1154 11.8564 14.437L10.909 9.99918C10.753 9.38247 10.2736 9.20784 9.6829 9.1875Z" fill="#1F2020"/>
</svg>
