<svg width="20" height="22" viewBox="0 0 20 22" xmlns="http://www.w3.org/2000/svg">
<path fill-rule="evenodd" clip-rule="evenodd" d="M14.5818 13.0037C14.333 12.8791 13.1097 12.2773 12.8816 12.1941C12.6536 12.1111 12.4877 12.0696 12.3218 12.3187C12.1559 12.5677 11.6791 13.1282 11.5339 13.2943C11.3888 13.4604 11.2436 13.4812 10.9948 13.3566C10.746 13.2321 9.94426 12.9693 8.99387 12.1216C8.25422 11.4618 7.7548 10.647 7.60969 10.3979C7.46453 10.1488 7.59418 10.0141 7.71875 9.89008C7.83074 9.77859 7.96762 9.59945 8.09199 9.45414C8.21644 9.30891 8.25789 9.20504 8.34082 9.03906C8.42375 8.87297 8.3823 8.72769 8.32004 8.60316C8.25789 8.47863 7.76027 7.25387 7.55293 6.75559C7.35094 6.27047 7.14582 6.33617 6.99309 6.32848C6.84812 6.32129 6.68203 6.31977 6.51621 6.31977C6.35035 6.31977 6.08074 6.38203 5.85266 6.63105C5.62461 6.88016 4.98184 7.48219 4.98184 8.70684C4.98184 9.93164 5.8734 11.1147 5.99781 11.2808C6.12223 11.4469 7.75234 13.9601 10.2484 15.0379C10.842 15.2943 11.3055 15.4474 11.6669 15.562C12.2629 15.7514 12.8054 15.7247 13.2341 15.6606C13.7121 15.5893 14.7062 15.0588 14.9136 14.4776C15.1209 13.8962 15.1209 13.3981 15.0587 13.2943C14.9965 13.1905 14.8307 13.1282 14.5818 13.0037ZM10.0418 19.2026H10.0385C8.55324 19.202 7.09656 18.803 5.82578 18.0489L5.52352 17.8695L2.39094 18.6913L3.22707 15.637L3.03031 15.3238C2.20176 14.0061 1.76414 12.483 1.7648 10.919C1.76664 6.35555 5.47965 2.64285 10.0451 2.64285C12.2559 2.64359 14.334 3.50566 15.8967 5.07016C17.4594 6.63461 18.3195 8.71414 18.3186 10.9257C18.3168 15.4895 14.6038 19.2026 10.0418 19.2026ZM17.0861 3.88137C15.2059 1.9991 12.7057 0.962031 10.0417 0.960938C4.55289 0.960938 0.0856641 5.42789 0.0834375 10.9184C0.0827344 12.6736 0.54125 14.3866 1.41273 15.8968L0 21.0571L5.27895 19.6723C6.73348 20.4657 8.37109 20.8838 10.0378 20.8844H10.0419C15.5301 20.8844 19.9977 16.417 20 10.9264C20.001 8.26555 18.9661 5.76363 17.0861 3.88137Z"/>
</svg>
