<svg width="18" height="18" viewBox="0 0 18 18" xmlns="http://www.w3.org/2000/svg">
<path d="M12.779 0H10.2216C7.63065 0 5.01622 1.91327 5.01622 6.18771C5.01622 8.40178 5.95457 10.1262 7.6747 11.1068L4.52639 16.8054C4.37711 17.0749 4.37321 17.3803 4.51591 17.6224C4.65523 17.8588 4.91001 18 5.19717 18H6.78978C7.15157 18 7.43367 17.8251 7.56895 17.5188L10.5208 11.745H10.7363V17.2804C10.7363 17.6705 11.0654 18 11.4551 18H12.8464C13.2833 18 13.5884 17.6949 13.5884 17.2581V0.787605C13.5884 0.323895 13.2556 0 12.779 0ZM10.7363 9.18021H10.3562C8.88267 9.18021 8.00295 7.97738 8.00295 5.96261C8.00295 3.45741 9.11424 2.56482 10.1543 2.56482H10.7363V9.18021Z"/>
</svg>
