<svg width="20" height="23" viewBox="0 0 20 23" xmlns="http://www.w3.org/2000/svg">
<path d="M19.7626 1.512C19.7626 1.768 19.6186 2.12 19.3306 2.568C19.0426 3.016 18.6746 3.464 18.2266 3.912L5.65056 16.296H5.79456C6.43456 16.296 7.02656 16.472 7.57056 16.824C8.14656 17.144 8.83456 17.64 9.63456 18.312C10.4346 18.952 11.0426 19.416 11.4586 19.704C11.9066 19.992 12.3706 20.136 12.8506 20.136C13.8106 20.136 14.4346 19.72 14.7226 18.888C15.0426 18.056 15.2026 16.936 15.2026 15.528C15.2026 14.952 15.2506 14.584 15.3466 14.424C15.4426 14.232 15.6346 14.136 15.9226 14.136C16.3066 14.136 16.6586 14.376 16.9786 14.856C17.3306 15.304 17.5066 15.88 17.5066 16.584C17.5066 17.416 17.1066 18.312 16.3066 19.272C15.5386 20.2 14.6426 20.984 13.6186 21.624C12.5946 22.296 11.7946 22.632 11.2186 22.632C10.5146 22.632 9.84256 22.424 9.20256 22.008C8.59456 21.592 7.89056 21 7.09056 20.232C6.41856 19.592 5.92256 19.144 5.60256 18.888C5.28256 18.632 4.97856 18.504 4.69056 18.504C3.76256 18.504 3.02656 18.776 2.48256 19.32C1.93856 19.864 1.66656 20.52 1.66656 21.288C1.66656 21.736 1.42656 21.96 0.946563 21.96C0.850563 21.96 0.706563 21.8 0.514563 21.48C0.354563 21.192 0.274563 20.888 0.274563 20.568C0.274563 19.704 0.658563 18.904 1.42656 18.168L14.2906 5.688C13.9066 5.656 13.4586 5.544 12.9466 5.352C12.4346 5.16 11.9386 4.936 11.4586 4.68C10.6586 4.264 9.93856 3.96 9.29856 3.768C8.69056 3.544 8.05056 3.432 7.37856 3.432C6.80256 3.432 6.27456 3.672 5.79456 4.152C5.31456 4.6 5.07456 5.064 5.07456 5.544C5.07456 6.216 5.23456 6.792 5.55456 7.272C5.68256 7.432 5.74656 7.592 5.74656 7.752C5.74656 7.88 5.68256 8.008 5.55456 8.136C5.36256 8.36 5.02656 8.6 4.54656 8.856C4.06656 9.08 3.74656 9.192 3.58656 9.192C3.39456 9.192 3.17056 9.048 2.91456 8.76C2.69056 8.44 2.57856 8.04 2.57856 7.56C2.57856 6.76 2.75456 6.056 3.10656 5.448C3.49056 4.84 4.11456 4.136 4.97856 3.336C5.52256 2.824 6.27456 2.328 7.23456 1.848C8.22656 1.368 8.99456 1.128 9.53856 1.128C10.0186 1.128 10.4826 1.192 10.9306 1.32C11.4106 1.448 12.0026 1.64 12.7066 1.896C12.8986 1.96 13.3306 2.136 14.0026 2.424C14.7066 2.68 15.2826 2.808 15.7306 2.808C16.1786 2.808 16.5466 2.744 16.8346 2.616C17.1546 2.456 17.5066 2.184 17.8906 1.8C18.4666 1.224 18.9466 0.935999 19.3306 0.935999C19.4266 0.935999 19.5226 0.999999 19.6186 1.128C19.7146 1.256 19.7626 1.384 19.7626 1.512Z"/>
</svg>
