<svg width="81" height="62" viewBox="0 0 81 62" fill="none" xmlns="http://www.w3.org/2000/svg">
<g opacity="0.6">
<path d="M24.8435 33.0995C24.9206 36.1688 24.7664 39.2455 24.3699 42.2855C23.7384 47.9835 21.8549 54.4269 19.8613 60.9364" stroke="#16262C" stroke-width="1.2" stroke-linecap="round" stroke-linejoin="round"/>
<path d="M17.5922 1C16.4981 2.57873 15.2755 4.16112 13.9097 5.70681C11.7619 8.14465 9.30204 10.3365 7.38922 12.9653C5.09089 16.1117 3.87932 19.8125 3.11566 23.5978C1.56998 31.2124 1.34235 39.1134 1.14409 46.8565C1.03028 51.5486 0.993557 56.2407 1.0009 60.9328" stroke="#16262C" stroke-width="1.2" stroke-linecap="round" stroke-linejoin="round"/>
<path d="M26.7122 10.0907C18.3413 4.73769 12.1623 8.22191 9.72441 10.1715L9.70605 10.1898" stroke="#16262C" stroke-width="1.2" stroke-linecap="round" stroke-linejoin="round"/>
<path d="M69.503 47.4917C68.4603 51.1852 65.9123 56.7548 59.8911 59.4827C54.7584 61.8104 48.3076 61.524 43.4062 58.1793" stroke="#16262C" stroke-width="1.2" stroke-linecap="round" stroke-linejoin="round"/>
<path d="M37.3076 3.7572C37.6674 6.58422 38.9267 9.28275 40.8799 11.4489L41.3719 11.9923C47.3747 18.6156 53.998 24.6331 60.9811 30.21C61.4915 30.6176 62.0055 31.0398 62.5158 31.473" stroke="#16262C" stroke-width="1.2" stroke-linecap="round" stroke-linejoin="round"/>
<path d="M74.4597 27.3794L61.727 35.2033C60.2217 36.1285 59.7481 38.1 60.677 39.6053L63.9079 44.8665C64.8331 46.3718 66.8047 46.8418 68.31 45.9166L79.574 38.9995" stroke="#16262C" stroke-width="1.2" stroke-linecap="round" stroke-linejoin="round"/>
<path d="M60.2107 38.0928L54.3438 42.6747L58.3971 49.2724L65.0828 45.9864" stroke="#16262C" stroke-width="1.2" stroke-linecap="round" stroke-linejoin="round"/>
<path d="M57.9126 48.4824C57.9126 48.4824 50.621 53.2921 45.459 52.7597C47.3131 47.9134 54.8983 43.5811 54.8983 43.5811" stroke="#16262C" stroke-width="1.2" stroke-linecap="round" stroke-linejoin="round"/>
<path d="M42.1133 54.3648V52.3198" stroke="#16262C" stroke-width="1.2" stroke-linecap="round" stroke-linejoin="round"/>
<path d="M42.1133 50.286V48.2446" stroke="#16262C" stroke-width="1.2" stroke-linecap="round" stroke-linejoin="round"/>
<path d="M42.1133 46.21V44.165" stroke="#16262C" stroke-width="1.2" stroke-linecap="round" stroke-linejoin="round"/>
<path d="M42.1133 42.1348V40.0898" stroke="#16262C" stroke-width="1.2" stroke-linecap="round" stroke-linejoin="round"/>
<path d="M42.1133 38.0968V36.0518" stroke="#16262C" stroke-width="1.2" stroke-linecap="round" stroke-linejoin="round"/>
</g>
</svg>
