<svg width="72" height="62" viewBox="0 0 72 62" fill="none" xmlns="http://www.w3.org/2000/svg">
<g opacity="0.6">
<path d="M36.4572 60.9931C36.3738 60.9931 36.2904 60.9931 36.207 60.9931C36.1584 60.9931 36.1097 60.9791 36.068 60.9583C36.0263 60.9791 35.9777 60.9861 35.929 60.9931C34.7128 61.0139 33.6842 60.868 32.4609 60.4996C27.2831 58.9358 15.1135 50.2691 11.291 39.9621C10.1442 36.8624 8.98357 33.7349 7.92021 30.2807C7.88546 30.2529 7.85765 30.2181 7.8368 30.1834C7.0167 28.7586 -0.16968 16.2068 1.16473 13.3225C1.59564 12.3842 2.15859 11.8699 2.83275 11.7935C3.39571 11.7378 3.90306 12.002 4.27837 12.2939C3.93086 8.99954 3.69456 5.37856 3.60421 1.35446C3.60421 1.15986 3.75016 1.00695 3.94477 1H3.95171C4.13936 1 4.29227 1.15289 4.29922 1.34055C4.71622 20.2378 8.39281 30.1486 11.9513 39.7328C15.6973 49.8312 27.6028 58.3173 32.6694 59.8463C33.8162 60.1938 34.7823 60.3258 35.9221 60.305C35.9846 60.298 36.0333 60.3189 36.075 60.3398C36.1236 60.3189 36.1653 60.3189 36.2279 60.305C37.3677 60.3258 38.3338 60.1869 39.4805 59.8463C44.5471 58.3173 56.4526 49.8312 60.1987 39.7328C63.7571 30.1486 67.4337 20.2448 67.8507 1.34055C67.8507 1.14594 68.0036 1.02085 68.2052 1C68.3998 1 68.5457 1.16681 68.5457 1.35446C68.4554 5.35771 68.226 8.95783 67.8785 12.2452C68.2469 11.9742 68.7334 11.7518 69.2547 11.8004C69.9288 11.8769 70.4848 12.3912 70.9227 13.3294C72.2432 16.1929 65.168 28.5987 64.2645 30.1625C63.1942 33.6653 62.0127 36.8346 60.852 39.9691C57.0295 50.2761 44.8599 58.9428 39.6821 60.5066C38.5492 60.8471 37.5692 61 36.4642 61L36.4572 60.9931ZM2.98565 12.4746C2.98565 12.4746 2.93005 12.4746 2.8953 12.4746C2.48524 12.5232 2.10995 12.8985 1.78329 13.6005C0.956232 15.4006 4.57722 22.7955 7.07925 27.4173C5.96724 23.3654 5.02202 18.813 4.38261 13.3711C4.37566 13.3642 4.36871 13.3503 4.36176 13.3433C4.16716 13.0931 3.56251 12.4676 2.97871 12.4676L2.98565 12.4746ZM67.7534 13.2877C67.1349 18.6601 66.2036 23.1707 65.1124 27.1879C67.6075 22.5591 71.0964 15.3797 70.2833 13.6144C69.9566 12.9124 69.5883 12.5302 69.1712 12.4885C68.6083 12.419 67.9967 12.9958 67.7534 13.2947V13.2877ZM36.0889 49.866C27.3596 49.866 24.7811 44.3963 24.6769 44.1669C24.6004 43.9932 24.6769 43.7846 24.8506 43.7082C25.0244 43.6248 25.2329 43.7082 25.3093 43.882C25.3302 43.9376 27.8252 49.171 36.0889 49.171C44.3525 49.171 46.9658 43.4997 47.07 43.2634C47.0978 43.2078 47.1325 43.1592 47.1812 43.1244C46.5418 42.7561 45.1101 41.9221 44.3317 41.5329C44.1996 41.4703 44.0606 41.3869 43.9077 41.3035C42.8722 40.7266 41.3014 39.8509 38.2573 40.7266C35.1576 41.6162 34.1637 41.0186 33.566 40.6641C33.4548 40.5946 33.3575 40.539 33.281 40.5112C32.7945 40.3513 29.4863 39.9969 26.5534 42.3182C26.4005 42.4363 26.185 42.4155 26.0669 42.2626C25.9487 42.1097 25.9696 41.8942 26.1225 41.7761C29.3334 39.2254 32.9266 39.6633 33.4965 39.8509C33.6494 39.8996 33.7814 39.983 33.9205 40.0664C34.4487 40.3861 35.2479 40.8587 38.0627 40.0594C41.3918 39.1072 43.178 40.1011 44.2413 40.6988C44.3873 40.7753 44.5124 40.8517 44.6375 40.9143C45.673 41.4356 47.7581 42.6587 47.8484 42.7143C48.0152 42.8116 48.0708 43.0271 47.9735 43.1869C47.9179 43.2773 47.8276 43.3399 47.7303 43.3538C47.7372 43.4163 47.7303 43.4789 47.7025 43.5414C47.6747 43.604 44.8112 49.866 36.0819 49.866H36.0889ZM42.8305 44.3685C42.8305 44.3685 42.7749 44.3685 42.754 44.3615C39.7307 43.6526 30.0979 44.3615 30.0006 44.3685C29.7991 44.3754 29.6392 44.2364 29.6253 44.0488C29.6114 43.8542 29.7574 43.6874 29.945 43.6735C30.3481 43.6457 39.7794 42.9507 42.9069 43.6804C43.0946 43.7221 43.2127 43.9098 43.1641 44.0974C43.1293 44.2573 42.9834 44.3685 42.8235 44.3685H42.8305ZM36.0889 35.521C34.8448 35.521 34.2471 35.3473 33.8162 35.2222C33.3297 35.0832 33.0864 35.0137 32.169 35.3334C31.9883 35.3959 31.7868 35.2986 31.7242 35.1179C31.6617 34.9372 31.759 34.7356 31.9397 34.6731C33.0169 34.2978 33.4131 34.3812 34.0108 34.555C34.4278 34.6731 34.9491 34.826 36.0958 34.826C37.2426 34.826 38.0071 34.4785 38.5145 33.7974C39.8489 32.0043 38.8203 28.4597 38.8064 28.425C38.7369 28.0705 37.2426 20.4602 38.1739 15.6786C39.0913 10.9873 39.1886 10.8552 43.3031 8.41572L43.6923 8.18636C46.5279 6.50444 47.6677 5.99015 51.3096 4.73219C58.621 2.21626 61.7277 5.51752 61.8528 5.65652C61.9849 5.79552 61.971 6.01794 61.832 6.14999C61.693 6.27509 61.4706 6.26816 61.3385 6.12916C61.3385 6.12916 58.3847 3.03638 51.532 5.39245C47.9457 6.62957 46.8268 7.13689 44.0398 8.78405L43.6506 9.01342C41.0327 10.561 39.4319 12.8267 38.8481 15.8106C37.9376 20.4602 39.4527 28.1817 39.4666 28.2582C39.5083 28.3833 40.5995 32.1433 39.0566 34.2144C38.4102 35.0832 37.4094 35.521 36.0819 35.521H36.0889ZM48.9604 17.4161C46.5626 17.4161 44.5124 16.9921 43.5533 16.7975C43.3378 16.7558 43.1919 16.7211 43.1293 16.7141C43.0042 16.7072 42.8861 16.6307 42.8374 16.5126C42.7818 16.4014 42.7888 16.2693 42.8583 16.1651C42.893 16.1164 45.4854 12.5093 50.9551 11.9672L50.9829 11.9394C51.4694 11.5502 51.9212 11.0428 51.942 10.876C51.9559 10.6884 52.1297 10.5355 52.3034 10.5494C52.4911 10.5564 52.637 10.6953 52.637 10.883C52.637 11.2027 52.366 11.585 52.0602 11.9047C52.6509 11.8977 53.2695 11.9186 53.9158 11.9811C53.9367 11.9603 53.9575 11.9394 53.9853 11.9255C54.4023 11.6545 55.0487 11.1124 55.1112 10.8135C55.146 10.6259 55.3336 10.5007 55.5213 10.5424C55.7089 10.5772 55.834 10.7649 55.7923 10.9525C55.7089 11.3695 55.278 11.8074 54.9027 12.1132C55.4518 12.2035 56.0217 12.3217 56.6125 12.4746C56.6403 12.4468 56.675 12.4259 56.7098 12.412C57.0434 12.28 57.7592 11.8908 57.8218 11.4946C57.8496 11.3069 58.0303 11.1749 58.2179 11.2027C58.4056 11.2305 58.5376 11.4112 58.5029 11.5989C58.4195 12.1132 57.9677 12.4954 57.5716 12.7456C57.9399 12.8638 58.3222 12.9889 58.7044 13.1279C58.8156 13.1696 58.8921 13.2599 58.9199 13.3711C58.9477 13.4823 58.9199 13.6005 58.8434 13.6839C58.6071 13.948 58.35 14.2051 58.065 14.4414L58.3847 14.7264C58.5307 14.8515 58.5446 15.0739 58.4125 15.2198C58.2874 15.3658 58.065 15.3728 57.9191 15.2477L57.509 14.8862C56.6889 15.4979 55.7298 16.0122 54.6734 16.4153L54.8263 16.6655C54.9236 16.8323 54.8749 17.0408 54.7151 17.145C54.5483 17.2423 54.3398 17.1937 54.2355 17.0338L53.9992 16.6515C52.8177 17.0338 51.5389 17.284 50.2114 17.3674C49.7805 17.3952 49.3566 17.4091 48.9396 17.4091L48.9604 17.4161ZM43.7757 16.1372C44.9155 16.3736 47.4245 16.874 50.1836 16.6863C53.332 16.4778 56.1955 15.3449 57.9677 13.6144C56.3206 13.0514 54.8332 12.7456 53.4849 12.6344C53.5266 12.69 53.5475 12.7595 53.5475 12.836C53.5475 14.6847 52.0393 16.1929 50.1906 16.1929C48.6894 16.1929 47.3689 15.192 46.9658 13.7534C45.3255 14.5526 44.283 15.5673 43.7757 16.1372ZM47.6052 13.4684C47.6052 13.4684 47.6191 13.5032 47.6191 13.5171C47.9249 14.6847 48.9813 15.4979 50.1906 15.4979C51.6571 15.4979 52.8525 14.3024 52.8525 12.836C52.8525 12.7456 52.8872 12.6622 52.9428 12.5997C50.7744 12.4954 49.0021 12.8916 47.6052 13.4684ZM22.0289 17.4022C21.3686 17.4022 20.6875 17.3744 20.0064 17.2979C18.8249 17.1728 17.692 16.9087 16.6495 16.5265L16.3368 17.0338C16.2325 17.1937 16.024 17.2493 15.8572 17.145C15.6904 17.0477 15.6417 16.8323 15.746 16.6655L15.9962 16.2623C14.9815 15.8314 14.0641 15.2754 13.2787 14.6221C13.2648 14.6847 13.2231 14.7403 13.1745 14.7889L12.6532 15.2546C12.5073 15.3797 12.2918 15.3658 12.1598 15.2268C12.0347 15.0808 12.0416 14.8654 12.1876 14.7334L12.7088 14.2677C12.7088 14.2677 12.7714 14.219 12.8061 14.2051C12.6324 14.0383 12.4586 13.8646 12.2988 13.6839C12.2223 13.6005 12.1945 13.4823 12.2223 13.3711C12.2501 13.2599 12.3335 13.1696 12.4378 13.1279C12.6949 13.0306 12.9521 12.9402 13.2023 12.8568C12.7714 12.6275 12.1667 12.1966 12.0694 11.5919C12.0416 11.4043 12.1667 11.2236 12.3544 11.1958C12.549 11.168 12.7227 11.293 12.7505 11.4876C12.8131 11.8838 13.5289 12.273 13.8625 12.4051C13.9529 12.4398 14.0224 12.5093 14.0571 12.5927C14.6479 12.4259 15.2247 12.2869 15.7738 12.1827C15.3846 11.8768 14.8772 11.3973 14.7869 10.9386C14.7521 10.751 14.8703 10.5633 15.0579 10.5285C15.2456 10.4868 15.4263 10.6119 15.468 10.7996C15.5306 11.0984 16.17 11.6405 16.5939 11.9116C16.6426 11.9394 16.6773 11.9811 16.7051 12.0298C17.3376 11.9464 17.9353 11.8977 18.5121 11.8908C18.2063 11.5711 17.9353 11.1957 17.9353 10.8691C17.9353 10.6745 18.0882 10.5216 18.2828 10.5216C18.4774 10.5216 18.6303 10.6745 18.6303 10.8691C18.6442 11.0359 19.082 11.5224 19.5546 11.9116C25.4553 12.2243 28.2422 16.1025 28.277 16.1581C28.3534 16.2624 28.3604 16.4013 28.2978 16.5195C28.2422 16.6307 28.1241 16.7002 27.999 16.7072C27.9364 16.7072 27.7905 16.7419 27.5681 16.7836C26.6368 16.9643 24.4823 17.3883 22.015 17.3883L22.0289 17.4022ZM13.1814 13.6144C14.8147 15.2129 17.3515 16.3179 20.0759 16.6098C23.1617 16.9296 26.1572 16.3666 27.3665 16.1303C26.4005 15.0391 23.4745 12.3356 18.1994 12.5997C18.255 12.6622 18.2897 12.7456 18.2897 12.836C18.2897 14.3024 19.4851 15.4979 20.9516 15.4979C22.0289 15.4979 22.9949 14.8515 23.405 13.8576C23.4814 13.6839 23.683 13.6005 23.8567 13.67C24.0305 13.7464 24.1208 13.948 24.0444 14.1218C23.5231 15.3797 22.3069 16.1859 20.9447 16.1859C19.0959 16.1859 17.5878 14.6777 17.5878 12.829C17.5878 12.7526 17.6086 12.6831 17.6503 12.6275C16.302 12.7387 14.8077 13.0445 13.1675 13.6074L13.1814 13.6144ZM28.7357 10.7023C28.6801 10.7023 28.6245 10.6884 28.5689 10.6606C28.5063 10.6258 21.9455 7.05351 18.116 6.55311C15.0232 6.14305 13.2996 6.72685 11.4786 7.33151C11.0199 7.48441 10.5612 7.63733 10.0678 7.78328C9.88013 7.83193 9.69248 7.72766 9.63688 7.54696C9.58128 7.36626 9.68553 7.17166 9.87318 7.11606C10.3527 6.97706 10.8114 6.82415 11.2562 6.67125C13.1606 6.03184 14.9537 5.43414 18.2063 5.8581C22.1679 6.37935 28.6315 9.89607 28.9025 10.049C29.0693 10.1393 29.1319 10.3548 29.0415 10.5216C28.979 10.6397 28.8608 10.7023 28.7357 10.7023Z" fill="#16262C" stroke="#16262C" stroke-width="0.2"/>
<path d="M50.5588 13.3857C50.6046 13.3857 50.6416 13.4226 50.6416 13.4685C50.6416 13.5143 50.6047 13.5513 50.5588 13.5513C50.5129 13.5513 50.476 13.5143 50.476 13.4685C50.476 13.4226 50.513 13.3857 50.5588 13.3857Z" fill="#16262C" stroke="#16262C" stroke-width="1.5"/>
<path d="M20.8684 13.3856C20.9142 13.3856 20.9512 13.4225 20.9512 13.4684C20.9512 13.5142 20.9143 13.5511 20.8684 13.5511C20.8225 13.5511 20.7856 13.5142 20.7856 13.4684C20.7856 13.4225 20.8226 13.3856 20.8684 13.3856Z" fill="#16262C" stroke="#16262C" stroke-width="1.5"/>
<mask id="path-4-inside-1_404_3671" fill="white">
<path d="M36.3247 60.0826C36.1301 60.0826 35.9772 59.9297 35.9772 59.7351V58.3451C35.9772 58.1505 36.1301 57.9976 36.3247 57.9976C36.5193 57.9976 36.6722 58.1505 36.6722 58.3451V59.7351C36.6722 59.9297 36.5193 60.0826 36.3247 60.0826ZM45.3598 57.1288C45.2903 57.1288 45.2277 57.108 45.1652 57.0663C45.1513 57.0593 43.8933 56.2114 42.1906 55.3496C42.0168 55.2662 41.9473 55.0577 42.0377 54.8839C42.1211 54.7102 42.3296 54.6477 42.5033 54.7311C44.2547 55.6137 45.5057 56.4616 45.5544 56.4964C45.7142 56.6076 45.7559 56.823 45.6447 56.9759C45.5752 57.0732 45.471 57.1288 45.3598 57.1288ZM29.1592 55.6485C29.0341 55.6485 28.9089 55.579 28.8533 55.4608C28.763 55.2871 28.8325 55.0786 28.9993 54.9952C30.1322 54.4044 31.2164 53.9248 32.2241 53.5704C32.4048 53.5009 32.6064 53.5982 32.6689 53.7789C32.7315 53.9596 32.6411 54.1611 32.4604 54.2237C31.4805 54.5712 30.431 55.0368 29.3259 55.6137C29.2773 55.6415 29.2217 55.6554 29.1661 55.6554L29.1592 55.6485ZM36.3247 55.2176C36.1301 55.2176 35.9772 55.0647 35.9772 54.8701V53.48C35.9007 53.48 35.8173 53.48 35.7409 53.48C35.5463 53.5009 35.3864 53.341 35.3795 53.1464C35.3725 52.9518 35.5185 52.792 35.7131 52.785C35.8034 52.785 35.8938 52.785 35.9841 52.7781V51.3881C35.9841 51.1935 36.137 51.0406 36.3316 51.0406C36.5262 51.0406 36.6791 51.1935 36.6791 51.3881V52.8059C37.4575 52.8754 38.3194 53.0561 39.2507 53.3619C39.4314 53.4175 39.5356 53.619 39.4731 53.7997C39.4105 53.9804 39.2159 54.0847 39.0352 54.0221C38.1734 53.7441 37.3811 53.5704 36.6791 53.5078V54.8701C36.6791 55.0647 36.5262 55.2176 36.3316 55.2176H36.3247ZM50.8782 42.0124C50.7253 42.0124 50.5863 41.9151 50.5445 41.7622C50.4889 41.5815 50.6001 41.3869 50.7808 41.3313C50.7948 41.3313 52.1361 40.9282 53.8945 39.9552C54.0613 39.8648 54.2767 39.9204 54.3671 40.0872C54.4574 40.254 54.4018 40.4695 54.235 40.5598C52.4072 41.5745 51.038 41.9777 50.9824 41.9985C50.9476 42.0055 50.9198 42.0124 50.8851 42.0124H50.8782ZM20.3256 41.4842C20.2769 41.4842 20.2353 41.4772 20.1866 41.4564C19.1163 40.9907 18.0668 40.4278 17.073 39.7745C16.9131 39.6702 16.8714 39.4548 16.9757 39.2949C17.0799 39.1351 17.2954 39.0934 17.4552 39.1976C18.4004 39.8162 19.4429 40.3791 20.4646 40.817C20.6384 40.8934 20.7218 41.095 20.6453 41.2757C20.5897 41.4077 20.4577 41.4842 20.3256 41.4842ZM56.9456 38.6625C56.8413 38.6625 56.744 38.6208 56.6745 38.5374C56.5564 38.3914 56.5772 38.169 56.7232 38.0509C57.6197 37.3211 58.4329 36.5149 59.1348 35.6531C59.253 35.5071 59.4754 35.4793 59.6213 35.6044C59.7673 35.7226 59.7951 35.945 59.67 36.0909C58.9402 36.9875 58.0923 37.8284 57.161 38.586C57.0985 38.6416 57.022 38.6625 56.9386 38.6625H56.9456ZM14.5501 37.6686C14.4667 37.6686 14.3763 37.6339 14.3068 37.5713C13.4381 36.7373 12.6736 35.8199 12.0272 34.8608C11.923 34.7009 11.9647 34.4855 12.1245 34.3812C12.2844 34.27 12.4998 34.3187 12.6041 34.4785C13.2226 35.4029 13.9593 36.2786 14.7864 37.0778C14.9254 37.2099 14.9254 37.4323 14.7933 37.5713C14.7238 37.6408 14.6335 37.6755 14.5431 37.6755L14.5501 37.6686ZM61.2824 33.304C61.2338 33.304 61.1782 33.2901 61.1295 33.2692C60.9558 33.1858 60.8863 32.9773 60.9697 32.8036C61.4701 31.7958 61.8523 30.7255 62.1164 29.6204C62.1581 29.4328 62.3458 29.3146 62.5334 29.3633C62.7211 29.405 62.8323 29.5926 62.7906 29.7803C62.5126 30.9409 62.1095 32.0599 61.5882 33.1093C61.5257 33.2344 61.4075 33.304 61.2755 33.304H61.2824ZM36.3247 32.2823C36.1301 32.2823 35.9772 32.1294 35.9772 31.9348V29.1548C35.9772 28.9602 36.1301 28.8073 36.3247 28.8073C36.5193 28.8073 36.6722 28.9602 36.6722 29.1548V31.9348C36.6722 32.1294 36.5193 32.2823 36.3247 32.2823ZM10.7275 31.9348C10.5885 31.9348 10.4565 31.8514 10.4009 31.7124C9.99083 30.6282 9.69198 29.4745 9.52518 28.286C9.49738 28.0984 9.62943 27.9177 9.81708 27.8899C10.0047 27.8621 10.1854 27.9941 10.2132 28.1817C10.38 29.3216 10.658 30.4266 11.0542 31.4622C11.1237 31.6429 11.0334 31.8444 10.8526 31.907C10.8109 31.9209 10.7692 31.9279 10.7275 31.9279V31.9348ZM36.3247 26.0272C36.1301 26.0272 35.9772 25.8743 35.9772 25.6797V22.2047C35.9772 22.0101 36.1301 21.8572 36.3247 21.8572C36.5193 21.8572 36.6722 22.0101 36.6722 22.2047V25.6797C36.6722 25.8743 36.5193 26.0272 36.3247 26.0272ZM21.938 24.8805C21.2639 24.8805 20.5758 24.8388 19.8947 24.7623C19.707 24.7415 19.568 24.5677 19.5889 24.38C19.6097 24.1854 19.7765 24.0534 19.9711 24.0742C21.104 24.1993 22.2369 24.2202 23.3697 24.1229C23.5643 24.109 23.7311 24.248 23.745 24.4426C23.7589 24.6303 23.6199 24.804 23.4253 24.8179C22.9249 24.8596 22.4245 24.8805 21.9311 24.8805H21.938ZM26.817 24.1994C26.6641 24.1994 26.5251 24.102 26.4834 23.9491C26.4347 23.7615 26.539 23.5738 26.7266 23.5182C27.7969 23.2194 28.8672 22.8093 29.9167 22.3089C30.0905 22.2255 30.299 22.302 30.3824 22.4757C30.4658 22.6495 30.3893 22.858 30.2156 22.9414C29.1314 23.4627 28.0193 23.8797 26.9143 24.1924C26.8795 24.1994 26.8517 24.2063 26.817 24.2063V24.1994ZM16.5378 24.0534C16.5378 24.0534 16.4683 24.0534 16.4336 24.0395C15.3146 23.692 14.2165 23.2472 13.1601 22.7051C12.9863 22.6147 12.9238 22.4062 13.0072 22.2394C13.0975 22.0657 13.306 22.0031 13.4728 22.0865C14.4875 22.6078 15.5509 23.0456 16.6282 23.3792C16.8089 23.4348 16.9131 23.6295 16.8575 23.8102C16.8089 23.9561 16.6768 24.0534 16.5239 24.0534H16.5378ZM49.9329 23.9005C49.5993 23.9005 49.2796 23.8935 48.9599 23.8796C48.7653 23.8727 48.6194 23.7059 48.6263 23.5182C48.6333 23.3236 48.8001 23.1568 48.9877 23.1846C50.0719 23.2333 51.2535 23.1916 52.4002 23.0595C52.5879 23.0387 52.7616 23.1777 52.7894 23.3653C52.8103 23.553 52.6782 23.7267 52.4836 23.7476C51.6357 23.8449 50.7739 23.9005 49.926 23.9005H49.9329ZM45.5405 23.4279C45.5405 23.4279 45.4918 23.4279 45.464 23.421C43.3512 22.9484 42.1349 22.3159 42.0863 22.2881C41.9195 22.1977 41.85 21.9892 41.9403 21.8155C42.0307 21.6486 42.2392 21.5792 42.4129 21.6695C42.4268 21.6695 43.6014 22.295 45.6169 22.7398C45.8046 22.7815 45.9227 22.9692 45.881 23.1569C45.8463 23.3167 45.7003 23.4279 45.5405 23.4279ZM55.8544 23.0873C55.7015 23.0873 55.5625 22.9831 55.5208 22.8302C55.4721 22.6425 55.5764 22.4549 55.7641 22.3993C56.8413 22.1004 57.9325 21.7182 58.9958 21.2664C59.1696 21.19 59.3781 21.2664 59.4545 21.4471C59.531 21.6209 59.4545 21.8294 59.2738 21.9058C58.1827 22.3784 57.0637 22.7677 55.9517 23.0735C55.9239 23.0804 55.8892 23.0873 55.8614 23.0873H55.8544ZM10.3939 20.8703C10.3175 20.8703 10.241 20.8425 10.1715 20.7938C10.0464 20.6896 9.88659 20.5575 9.96304 20.3282L10.2897 20.4463L10.519 20.1892L10.6094 20.2586C10.7553 20.3768 10.7831 20.5992 10.658 20.7452C10.5885 20.8286 10.4912 20.8703 10.387 20.8703H10.3939ZM62.2276 20.3699C62.1095 20.3699 61.9913 20.3073 61.9288 20.1961C61.8315 20.0293 61.8871 19.8208 62.0539 19.7235C62.2207 19.6262 62.3875 19.522 62.5612 19.4247C62.728 19.3274 62.9365 19.376 63.0408 19.5428C63.1381 19.7096 63.0894 19.9181 62.9226 20.0224C62.7489 20.1266 62.5751 20.2309 62.4083 20.3282C62.3527 20.3629 62.2902 20.3768 62.2346 20.3768L62.2276 20.3699ZM36.3247 19.0772C36.1301 19.0772 35.9772 18.9243 35.9772 18.7297V15.2546C35.9772 15.06 36.1301 14.9071 36.3247 14.9071C36.5193 14.9071 36.6722 15.06 36.6722 15.2546V18.7297C36.6722 18.9243 36.5193 19.0772 36.3247 19.0772ZM36.3247 12.1271C36.1301 12.1271 35.9772 11.9742 35.9772 11.7796V8.30454C35.9772 8.10994 36.1301 7.95704 36.3247 7.95704C36.5193 7.95704 36.6722 8.10994 36.6722 8.30454V11.7796C36.6722 11.9742 36.5193 12.1271 36.3247 12.1271ZM42.2462 7.67206C42.1072 7.67206 41.982 7.58867 41.9264 7.46356C41.8708 7.33846 41.8986 7.19253 41.989 7.08828C42.0654 7.00487 42.4894 6.54615 43.2122 5.93454C43.3582 5.80944 43.5736 5.82334 43.7057 5.97624C43.8308 6.12219 43.8099 6.3446 43.664 6.46275C42.9759 7.04656 42.5798 7.47747 42.5103 7.55392C42.4477 7.62342 42.3504 7.67206 42.2531 7.67206H42.2462ZM30.0627 7.02571C29.9862 7.02571 29.9028 6.99791 29.8403 6.94231L29.6874 6.81721C29.5414 6.69906 29.5136 6.47665 29.6387 6.3307C29.7569 6.18475 29.9793 6.15694 30.1252 6.28204L30.2851 6.4141C30.431 6.5392 30.4519 6.75466 30.3268 6.90061C30.2573 6.98401 30.16 7.02571 30.0627 7.02571ZM36.3247 5.17005C36.1301 5.17005 35.9772 5.01715 35.9772 4.82254V1.3475C35.9772 1.1529 36.1301 1 36.3247 1C36.5193 1 36.6722 1.1529 36.6722 1.3475V4.82254C36.6722 5.01715 36.5193 5.17005 36.3247 5.17005ZM27.0463 4.92677C26.9907 4.92677 26.9282 4.91286 26.8726 4.87811C25.8787 4.31516 24.8293 3.83563 23.7728 3.47423C23.5921 3.41168 23.4948 3.21706 23.5574 3.02941C23.6199 2.84871 23.8145 2.75141 24.0022 2.81396C25.1073 3.19621 26.1845 3.6827 27.2201 4.27346C27.3869 4.37076 27.4425 4.57926 27.3521 4.74606C27.2896 4.85726 27.1714 4.91981 27.0533 4.91981L27.0463 4.92677ZM62.735 4.71828C62.6724 4.71828 62.6099 4.70437 62.5543 4.66962C61.5465 4.05801 60.5179 3.55068 59.4962 3.16842C59.3155 3.09892 59.2252 2.90431 59.2947 2.72361C59.3642 2.5429 59.5588 2.45257 59.7395 2.52207C60.8029 2.91822 61.8732 3.44642 62.9157 4.07888C63.0825 4.17618 63.1311 4.39163 63.0338 4.55844C62.9713 4.66964 62.8531 4.72523 62.735 4.72523V4.71828ZM46.2633 4.53061C46.1451 4.53061 46.027 4.46806 45.9644 4.35686C45.8671 4.19006 45.9227 3.98156 46.0895 3.88426C47.1321 3.27265 48.2093 2.77228 49.3005 2.39697C49.4812 2.33442 49.6758 2.43172 49.7453 2.61242C49.8078 2.79313 49.7105 2.99465 49.5298 3.0572C48.4873 3.4186 47.4448 3.9051 46.444 4.48891C46.3884 4.52366 46.3258 4.53757 46.2702 4.53757L46.2633 4.53061ZM10.2897 3.98853C10.1576 3.98853 10.0325 3.919 9.97693 3.7939C9.89353 3.62015 9.96999 3.41166 10.1437 3.32826C10.1993 3.30046 11.4643 2.70277 13.5354 2.25796C13.723 2.22321 13.9107 2.33442 13.9454 2.52207C13.9871 2.70972 13.869 2.89735 13.6813 2.9321C11.7006 3.35605 10.4565 3.94683 10.4495 3.94683C10.4009 3.96768 10.3522 3.98157 10.3036 3.98157L10.2897 3.98853ZM20.5133 2.68191C20.5133 2.68191 20.4785 2.68191 20.4646 2.68191C19.3526 2.52206 18.1641 2.46645 17.0591 2.50816C16.8645 2.50816 16.7046 2.36917 16.6977 2.17456C16.6907 1.97996 16.8367 1.8201 17.0313 1.81315C18.178 1.7645 19.4012 1.82705 20.5619 1.9869C20.7496 2.0147 20.8816 2.18846 20.8538 2.38306C20.826 2.55681 20.6801 2.68191 20.5133 2.68191ZM56.2575 2.34136C56.2575 2.34136 56.2297 2.34136 56.2089 2.34136C55.0968 2.19541 53.9501 2.17456 52.8242 2.29966C52.6296 2.32051 52.4628 2.18151 52.4419 1.99386C52.4211 1.79925 52.5601 1.63246 52.7477 1.61161C53.9292 1.47956 55.1316 1.50041 56.2992 1.65331C56.4869 1.68111 56.6259 1.85486 56.5981 2.04251C56.5772 2.21626 56.4243 2.34136 56.2506 2.34136H56.2575Z"/>
</mask>
<path d="M36.3247 60.0826C36.1301 60.0826 35.9772 59.9297 35.9772 59.7351V58.3451C35.9772 58.1505 36.1301 57.9976 36.3247 57.9976C36.5193 57.9976 36.6722 58.1505 36.6722 58.3451V59.7351C36.6722 59.9297 36.5193 60.0826 36.3247 60.0826ZM45.3598 57.1288C45.2903 57.1288 45.2277 57.108 45.1652 57.0663C45.1513 57.0593 43.8933 56.2114 42.1906 55.3496C42.0168 55.2662 41.9473 55.0577 42.0377 54.8839C42.1211 54.7102 42.3296 54.6477 42.5033 54.7311C44.2547 55.6137 45.5057 56.4616 45.5544 56.4964C45.7142 56.6076 45.7559 56.823 45.6447 56.9759C45.5752 57.0732 45.471 57.1288 45.3598 57.1288ZM29.1592 55.6485C29.0341 55.6485 28.9089 55.579 28.8533 55.4608C28.763 55.2871 28.8325 55.0786 28.9993 54.9952C30.1322 54.4044 31.2164 53.9248 32.2241 53.5704C32.4048 53.5009 32.6064 53.5982 32.6689 53.7789C32.7315 53.9596 32.6411 54.1611 32.4604 54.2237C31.4805 54.5712 30.431 55.0368 29.3259 55.6137C29.2773 55.6415 29.2217 55.6554 29.1661 55.6554L29.1592 55.6485ZM36.3247 55.2176C36.1301 55.2176 35.9772 55.0647 35.9772 54.8701V53.48C35.9007 53.48 35.8173 53.48 35.7409 53.48C35.5463 53.5009 35.3864 53.341 35.3795 53.1464C35.3725 52.9518 35.5185 52.792 35.7131 52.785C35.8034 52.785 35.8938 52.785 35.9841 52.7781V51.3881C35.9841 51.1935 36.137 51.0406 36.3316 51.0406C36.5262 51.0406 36.6791 51.1935 36.6791 51.3881V52.8059C37.4575 52.8754 38.3194 53.0561 39.2507 53.3619C39.4314 53.4175 39.5356 53.619 39.4731 53.7997C39.4105 53.9804 39.2159 54.0847 39.0352 54.0221C38.1734 53.7441 37.3811 53.5704 36.6791 53.5078V54.8701C36.6791 55.0647 36.5262 55.2176 36.3316 55.2176H36.3247ZM50.8782 42.0124C50.7253 42.0124 50.5863 41.9151 50.5445 41.7622C50.4889 41.5815 50.6001 41.3869 50.7808 41.3313C50.7948 41.3313 52.1361 40.9282 53.8945 39.9552C54.0613 39.8648 54.2767 39.9204 54.3671 40.0872C54.4574 40.254 54.4018 40.4695 54.235 40.5598C52.4072 41.5745 51.038 41.9777 50.9824 41.9985C50.9476 42.0055 50.9198 42.0124 50.8851 42.0124H50.8782ZM20.3256 41.4842C20.2769 41.4842 20.2353 41.4772 20.1866 41.4564C19.1163 40.9907 18.0668 40.4278 17.073 39.7745C16.9131 39.6702 16.8714 39.4548 16.9757 39.2949C17.0799 39.1351 17.2954 39.0934 17.4552 39.1976C18.4004 39.8162 19.4429 40.3791 20.4646 40.817C20.6384 40.8934 20.7218 41.095 20.6453 41.2757C20.5897 41.4077 20.4577 41.4842 20.3256 41.4842ZM56.9456 38.6625C56.8413 38.6625 56.744 38.6208 56.6745 38.5374C56.5564 38.3914 56.5772 38.169 56.7232 38.0509C57.6197 37.3211 58.4329 36.5149 59.1348 35.6531C59.253 35.5071 59.4754 35.4793 59.6213 35.6044C59.7673 35.7226 59.7951 35.945 59.67 36.0909C58.9402 36.9875 58.0923 37.8284 57.161 38.586C57.0985 38.6416 57.022 38.6625 56.9386 38.6625H56.9456ZM14.5501 37.6686C14.4667 37.6686 14.3763 37.6339 14.3068 37.5713C13.4381 36.7373 12.6736 35.8199 12.0272 34.8608C11.923 34.7009 11.9647 34.4855 12.1245 34.3812C12.2844 34.27 12.4998 34.3187 12.6041 34.4785C13.2226 35.4029 13.9593 36.2786 14.7864 37.0778C14.9254 37.2099 14.9254 37.4323 14.7933 37.5713C14.7238 37.6408 14.6335 37.6755 14.5431 37.6755L14.5501 37.6686ZM61.2824 33.304C61.2338 33.304 61.1782 33.2901 61.1295 33.2692C60.9558 33.1858 60.8863 32.9773 60.9697 32.8036C61.4701 31.7958 61.8523 30.7255 62.1164 29.6204C62.1581 29.4328 62.3458 29.3146 62.5334 29.3633C62.7211 29.405 62.8323 29.5926 62.7906 29.7803C62.5126 30.9409 62.1095 32.0599 61.5882 33.1093C61.5257 33.2344 61.4075 33.304 61.2755 33.304H61.2824ZM36.3247 32.2823C36.1301 32.2823 35.9772 32.1294 35.9772 31.9348V29.1548C35.9772 28.9602 36.1301 28.8073 36.3247 28.8073C36.5193 28.8073 36.6722 28.9602 36.6722 29.1548V31.9348C36.6722 32.1294 36.5193 32.2823 36.3247 32.2823ZM10.7275 31.9348C10.5885 31.9348 10.4565 31.8514 10.4009 31.7124C9.99083 30.6282 9.69198 29.4745 9.52518 28.286C9.49738 28.0984 9.62943 27.9177 9.81708 27.8899C10.0047 27.8621 10.1854 27.9941 10.2132 28.1817C10.38 29.3216 10.658 30.4266 11.0542 31.4622C11.1237 31.6429 11.0334 31.8444 10.8526 31.907C10.8109 31.9209 10.7692 31.9279 10.7275 31.9279V31.9348ZM36.3247 26.0272C36.1301 26.0272 35.9772 25.8743 35.9772 25.6797V22.2047C35.9772 22.0101 36.1301 21.8572 36.3247 21.8572C36.5193 21.8572 36.6722 22.0101 36.6722 22.2047V25.6797C36.6722 25.8743 36.5193 26.0272 36.3247 26.0272ZM21.938 24.8805C21.2639 24.8805 20.5758 24.8388 19.8947 24.7623C19.707 24.7415 19.568 24.5677 19.5889 24.38C19.6097 24.1854 19.7765 24.0534 19.9711 24.0742C21.104 24.1993 22.2369 24.2202 23.3697 24.1229C23.5643 24.109 23.7311 24.248 23.745 24.4426C23.7589 24.6303 23.6199 24.804 23.4253 24.8179C22.9249 24.8596 22.4245 24.8805 21.9311 24.8805H21.938ZM26.817 24.1994C26.6641 24.1994 26.5251 24.102 26.4834 23.9491C26.4347 23.7615 26.539 23.5738 26.7266 23.5182C27.7969 23.2194 28.8672 22.8093 29.9167 22.3089C30.0905 22.2255 30.299 22.302 30.3824 22.4757C30.4658 22.6495 30.3893 22.858 30.2156 22.9414C29.1314 23.4627 28.0193 23.8797 26.9143 24.1924C26.8795 24.1994 26.8517 24.2063 26.817 24.2063V24.1994ZM16.5378 24.0534C16.5378 24.0534 16.4683 24.0534 16.4336 24.0395C15.3146 23.692 14.2165 23.2472 13.1601 22.7051C12.9863 22.6147 12.9238 22.4062 13.0072 22.2394C13.0975 22.0657 13.306 22.0031 13.4728 22.0865C14.4875 22.6078 15.5509 23.0456 16.6282 23.3792C16.8089 23.4348 16.9131 23.6295 16.8575 23.8102C16.8089 23.9561 16.6768 24.0534 16.5239 24.0534H16.5378ZM49.9329 23.9005C49.5993 23.9005 49.2796 23.8935 48.9599 23.8796C48.7653 23.8727 48.6194 23.7059 48.6263 23.5182C48.6333 23.3236 48.8001 23.1568 48.9877 23.1846C50.0719 23.2333 51.2535 23.1916 52.4002 23.0595C52.5879 23.0387 52.7616 23.1777 52.7894 23.3653C52.8103 23.553 52.6782 23.7267 52.4836 23.7476C51.6357 23.8449 50.7739 23.9005 49.926 23.9005H49.9329ZM45.5405 23.4279C45.5405 23.4279 45.4918 23.4279 45.464 23.421C43.3512 22.9484 42.1349 22.3159 42.0863 22.2881C41.9195 22.1977 41.85 21.9892 41.9403 21.8155C42.0307 21.6486 42.2392 21.5792 42.4129 21.6695C42.4268 21.6695 43.6014 22.295 45.6169 22.7398C45.8046 22.7815 45.9227 22.9692 45.881 23.1569C45.8463 23.3167 45.7003 23.4279 45.5405 23.4279ZM55.8544 23.0873C55.7015 23.0873 55.5625 22.9831 55.5208 22.8302C55.4721 22.6425 55.5764 22.4549 55.7641 22.3993C56.8413 22.1004 57.9325 21.7182 58.9958 21.2664C59.1696 21.19 59.3781 21.2664 59.4545 21.4471C59.531 21.6209 59.4545 21.8294 59.2738 21.9058C58.1827 22.3784 57.0637 22.7677 55.9517 23.0735C55.9239 23.0804 55.8892 23.0873 55.8614 23.0873H55.8544ZM10.3939 20.8703C10.3175 20.8703 10.241 20.8425 10.1715 20.7938C10.0464 20.6896 9.88659 20.5575 9.96304 20.3282L10.2897 20.4463L10.519 20.1892L10.6094 20.2586C10.7553 20.3768 10.7831 20.5992 10.658 20.7452C10.5885 20.8286 10.4912 20.8703 10.387 20.8703H10.3939ZM62.2276 20.3699C62.1095 20.3699 61.9913 20.3073 61.9288 20.1961C61.8315 20.0293 61.8871 19.8208 62.0539 19.7235C62.2207 19.6262 62.3875 19.522 62.5612 19.4247C62.728 19.3274 62.9365 19.376 63.0408 19.5428C63.1381 19.7096 63.0894 19.9181 62.9226 20.0224C62.7489 20.1266 62.5751 20.2309 62.4083 20.3282C62.3527 20.3629 62.2902 20.3768 62.2346 20.3768L62.2276 20.3699ZM36.3247 19.0772C36.1301 19.0772 35.9772 18.9243 35.9772 18.7297V15.2546C35.9772 15.06 36.1301 14.9071 36.3247 14.9071C36.5193 14.9071 36.6722 15.06 36.6722 15.2546V18.7297C36.6722 18.9243 36.5193 19.0772 36.3247 19.0772ZM36.3247 12.1271C36.1301 12.1271 35.9772 11.9742 35.9772 11.7796V8.30454C35.9772 8.10994 36.1301 7.95704 36.3247 7.95704C36.5193 7.95704 36.6722 8.10994 36.6722 8.30454V11.7796C36.6722 11.9742 36.5193 12.1271 36.3247 12.1271ZM42.2462 7.67206C42.1072 7.67206 41.982 7.58867 41.9264 7.46356C41.8708 7.33846 41.8986 7.19253 41.989 7.08828C42.0654 7.00487 42.4894 6.54615 43.2122 5.93454C43.3582 5.80944 43.5736 5.82334 43.7057 5.97624C43.8308 6.12219 43.8099 6.3446 43.664 6.46275C42.9759 7.04656 42.5798 7.47747 42.5103 7.55392C42.4477 7.62342 42.3504 7.67206 42.2531 7.67206H42.2462ZM30.0627 7.02571C29.9862 7.02571 29.9028 6.99791 29.8403 6.94231L29.6874 6.81721C29.5414 6.69906 29.5136 6.47665 29.6387 6.3307C29.7569 6.18475 29.9793 6.15694 30.1252 6.28204L30.2851 6.4141C30.431 6.5392 30.4519 6.75466 30.3268 6.90061C30.2573 6.98401 30.16 7.02571 30.0627 7.02571ZM36.3247 5.17005C36.1301 5.17005 35.9772 5.01715 35.9772 4.82254V1.3475C35.9772 1.1529 36.1301 1 36.3247 1C36.5193 1 36.6722 1.1529 36.6722 1.3475V4.82254C36.6722 5.01715 36.5193 5.17005 36.3247 5.17005ZM27.0463 4.92677C26.9907 4.92677 26.9282 4.91286 26.8726 4.87811C25.8787 4.31516 24.8293 3.83563 23.7728 3.47423C23.5921 3.41168 23.4948 3.21706 23.5574 3.02941C23.6199 2.84871 23.8145 2.75141 24.0022 2.81396C25.1073 3.19621 26.1845 3.6827 27.2201 4.27346C27.3869 4.37076 27.4425 4.57926 27.3521 4.74606C27.2896 4.85726 27.1714 4.91981 27.0533 4.91981L27.0463 4.92677ZM62.735 4.71828C62.6724 4.71828 62.6099 4.70437 62.5543 4.66962C61.5465 4.05801 60.5179 3.55068 59.4962 3.16842C59.3155 3.09892 59.2252 2.90431 59.2947 2.72361C59.3642 2.5429 59.5588 2.45257 59.7395 2.52207C60.8029 2.91822 61.8732 3.44642 62.9157 4.07888C63.0825 4.17618 63.1311 4.39163 63.0338 4.55844C62.9713 4.66964 62.8531 4.72523 62.735 4.72523V4.71828ZM46.2633 4.53061C46.1451 4.53061 46.027 4.46806 45.9644 4.35686C45.8671 4.19006 45.9227 3.98156 46.0895 3.88426C47.1321 3.27265 48.2093 2.77228 49.3005 2.39697C49.4812 2.33442 49.6758 2.43172 49.7453 2.61242C49.8078 2.79313 49.7105 2.99465 49.5298 3.0572C48.4873 3.4186 47.4448 3.9051 46.444 4.48891C46.3884 4.52366 46.3258 4.53757 46.2702 4.53757L46.2633 4.53061ZM10.2897 3.98853C10.1576 3.98853 10.0325 3.919 9.97693 3.7939C9.89353 3.62015 9.96999 3.41166 10.1437 3.32826C10.1993 3.30046 11.4643 2.70277 13.5354 2.25796C13.723 2.22321 13.9107 2.33442 13.9454 2.52207C13.9871 2.70972 13.869 2.89735 13.6813 2.9321C11.7006 3.35605 10.4565 3.94683 10.4495 3.94683C10.4009 3.96768 10.3522 3.98157 10.3036 3.98157L10.2897 3.98853ZM20.5133 2.68191C20.5133 2.68191 20.4785 2.68191 20.4646 2.68191C19.3526 2.52206 18.1641 2.46645 17.0591 2.50816C16.8645 2.50816 16.7046 2.36917 16.6977 2.17456C16.6907 1.97996 16.8367 1.8201 17.0313 1.81315C18.178 1.7645 19.4012 1.82705 20.5619 1.9869C20.7496 2.0147 20.8816 2.18846 20.8538 2.38306C20.826 2.55681 20.6801 2.68191 20.5133 2.68191ZM56.2575 2.34136C56.2575 2.34136 56.2297 2.34136 56.2089 2.34136C55.0968 2.19541 53.9501 2.17456 52.8242 2.29966C52.6296 2.32051 52.4628 2.18151 52.4419 1.99386C52.4211 1.79925 52.5601 1.63246 52.7477 1.61161C53.9292 1.47956 55.1316 1.50041 56.2992 1.65331C56.4869 1.68111 56.6259 1.85486 56.5981 2.04251C56.5772 2.21626 56.4243 2.34136 56.2506 2.34136H56.2575Z" fill="#16262C" stroke="#16262C" stroke-width="3" mask="url(#path-4-inside-1_404_3671)"/>
</g>
</svg>
