<svg width="62" height="62" viewBox="0 0 62 62" fill="none" xmlns="http://www.w3.org/2000/svg">
<g opacity="0.6">
<path d="M31.9085 17.8452C32.0988 18.503 31.4184 19.2866 30.6832 19.2995C29.9351 19.3124 29.1837 18.5192 29.3708 17.8452" stroke="#16262C" stroke-width="1.2" stroke-linecap="round" stroke-linejoin="round"/>
<path d="M9.95632 1C9.96922 1.58687 9.95632 2.19954 9.92408 2.83479C9.82089 4.62765 9.5468 6.40117 8.65359 9.4226C6.08683 18.1161 2.35599 26.745 1.26931 35.8867C0.256788 44.4286 2.17864 53.1834 5.7031 60.9675C5.70955 60.9804 5.70955 60.9868 5.716 60.9997" stroke="#16262C" stroke-width="1.2" stroke-linecap="round" stroke-linejoin="round"/>
<path d="M51.7374 1C51.7245 1.58687 51.7374 2.19954 51.7696 2.83479C51.8728 4.62765 52.1469 6.40117 53.0401 9.4226C55.6069 18.1161 59.3377 26.745 60.4244 35.8867C61.4369 44.4286 59.5151 53.1834 55.9906 60.9675C55.9841 60.9804 55.9841 60.9868 55.9777 60.9997" stroke="#16262C" stroke-width="1.2" stroke-linecap="round" stroke-linejoin="round"/>
<path d="M30.9451 61V57.5464L20.0686 47.2665" stroke="#16262C" stroke-width="1.2" stroke-linecap="round" stroke-linejoin="round"/>
<path d="M30.9453 57.5465L41.2898 47.7793" stroke="#16262C" stroke-width="1.2" stroke-linecap="round" stroke-linejoin="round"/>
<path d="M55.1094 29.0249C55.4867 33.5554 52.9134 37.6797 49.1149 39.9949C45.1809 42.394 40.6955 42.8358 36.1972 43.0421C34.4463 43.1228 32.6921 43.1582 30.9379 43.155H30.9444C29.1902 43.1582 27.436 43.1228 25.6851 43.0421C21.1868 42.8358 16.7014 42.394 12.7674 39.9949C8.9721 37.6797 6.39566 33.5554 6.77294 29.0249" stroke="#16262C" stroke-width="1.2" stroke-linecap="round" stroke-linejoin="round"/>
<path d="M43.4444 34.0556C43.3849 34.0821 43.3374 34.0584 43.3156 34.0333L43.3063 34.0082C43.2779 33.9314 43.315 33.8646 43.3594 33.8408C43.4015 33.8264 43.477 33.8411 43.516 33.9169C43.5334 33.9508 43.5282 34.0193 43.45 34.0531L43.45 34.0531L43.4444 34.0556Z" stroke="#16262C" stroke-width="1.2"/>
<path d="M45.5343 32.3789C45.4747 32.4055 45.4272 32.3818 45.4055 32.3566L45.3962 32.3315C45.3677 32.2548 45.4048 32.188 45.4492 32.1641C45.4913 32.1498 45.5669 32.1645 45.6058 32.2403C45.6232 32.2741 45.618 32.3426 45.5398 32.3765L45.5398 32.3765L45.5343 32.3789Z" stroke="#16262C" stroke-width="1.2"/>
<path d="M40.4749 34.8982L40.4749 34.8983L40.4858 34.8956C40.5019 34.8916 40.5275 34.8922 40.5581 34.9106C40.5889 34.929 40.6129 34.9587 40.6234 34.9947L40.6236 34.9953C40.6309 35.0201 40.6276 35.0418 40.6152 35.0626C40.6029 35.0831 40.5785 35.1067 40.5358 35.1189C40.493 35.1269 40.4597 35.1171 40.4376 35.1032C40.4147 35.0889 40.4029 35.0702 40.3987 35.0484C40.3911 35.0089 40.3996 34.9718 40.4177 34.9431C40.4357 34.9144 40.4575 34.9022 40.4749 34.8982Z" stroke="#16262C" stroke-width="1.2"/>
<path d="M37.9126 35.5651C37.8494 35.5712 37.8059 35.5365 37.7912 35.4933L37.7892 35.4715C37.7863 35.4387 37.7963 35.4061 37.8177 35.3794C37.8392 35.3527 37.8644 35.3411 37.8862 35.3387L37.8862 35.3387L37.8912 35.3381C37.9369 35.3327 38.0049 35.3677 38.017 35.4497C38.0229 35.489 37.9947 35.5541 37.9126 35.5651Z" stroke="#16262C" stroke-width="1.2"/>
<path d="M34.9601 35.7552C34.9601 35.6896 35.0142 35.6393 35.0727 35.6393C35.1383 35.6393 35.1886 35.6934 35.1886 35.7519C35.1886 35.8175 35.1345 35.8678 35.076 35.8678C35.0104 35.8678 34.9601 35.8137 34.9601 35.7552Z" stroke="#16262C" stroke-width="1.2"/>
<path d="M32.017 35.7614C32.017 35.6958 32.0711 35.6455 32.1296 35.6455C32.1952 35.6455 32.2455 35.6997 32.2455 35.7582C32.2455 35.8237 32.1914 35.874 32.1328 35.874C32.0673 35.874 32.017 35.8199 32.017 35.7614Z" stroke="#16262C" stroke-width="1.2"/>
<path d="M29.3527 35.7339L29.3527 35.7339V35.7389C29.3527 35.7859 29.3107 35.8405 29.2384 35.8388C29.1635 35.837 29.1194 35.7802 29.1208 35.7246C29.1223 35.6628 29.1762 35.6104 29.2373 35.61C29.2984 35.6129 29.3532 35.6682 29.3527 35.7339Z" stroke="#16262C" stroke-width="1.2"/>
<path d="M26.5885 35.7718L26.5885 35.7719C26.6441 35.775 26.7036 35.728 26.7065 35.6596L26.5885 35.7718ZM26.5885 35.7718L26.5837 35.7716M26.5885 35.7718L26.5837 35.7716M26.5837 35.7716C26.5176 35.7684 26.4725 35.7131 26.4762 35.6556C26.4807 35.5869 26.5378 35.5399 26.5968 35.5416M26.5837 35.7716L26.5968 35.5416M26.5968 35.5416C26.6327 35.5443 26.6601 35.5596 26.6785 35.5795C26.6965 35.599 26.7079 35.6249 26.7065 35.6595L26.5968 35.5416Z" stroke="#16262C" stroke-width="1.2"/>
<path d="M23.8364 35.4728L23.8398 35.4498C23.852 35.3679 23.92 35.3328 23.9657 35.3382L23.9657 35.3383L23.9707 35.3388C24.0186 35.3441 24.0744 35.3963 24.0676 35.4721C24.0628 35.5248 24.0136 35.5754 23.941 35.5684C23.8716 35.5591 23.8408 35.5111 23.8364 35.4728Z" stroke="#16262C" stroke-width="1.2"/>
<path d="M21.2357 34.9954L21.2359 34.9949C21.2464 34.9589 21.2704 34.9291 21.3011 34.9107C21.3318 34.8924 21.3574 34.8918 21.3735 34.8958L21.3735 34.8959L21.3844 34.8984C21.4018 34.9023 21.4236 34.9145 21.4416 34.9432C21.4597 34.9719 21.4682 35.0091 21.4606 35.0485L21.4604 35.0494C21.4558 35.0739 21.443 35.0924 21.4217 35.1058C21.4008 35.1189 21.3685 35.1285 21.3257 35.1197C21.2816 35.1076 21.2566 35.0836 21.2441 35.0627C21.2317 35.0419 21.2284 35.0202 21.2357 34.9954Z" stroke="#16262C" stroke-width="1.2"/>
<path d="M18.7891 34.2774C18.7316 34.2529 18.7141 34.204 18.7195 34.1668L18.7301 34.1461C18.7691 34.0702 18.8447 34.0556 18.8868 34.0699C18.9312 34.0938 18.9683 34.1605 18.9398 34.2373L18.9394 34.2384C18.9249 34.2779 18.8696 34.3137 18.8023 34.2832L18.7957 34.2802L18.7891 34.2774Z" stroke="#16262C" stroke-width="1.2"/>
<path d="M16.5164 32.5097L16.527 32.489C16.566 32.4131 16.6415 32.3984 16.6837 32.4128C16.728 32.4366 16.7652 32.5034 16.7367 32.5802L16.7363 32.5813C16.7218 32.6208 16.6665 32.6566 16.5992 32.6261L16.5926 32.6231L16.586 32.6203C16.5284 32.5958 16.511 32.5469 16.5164 32.5097Z" stroke="#16262C" stroke-width="1.2"/>
</g>
</svg>
