<svg width="65" height="60" viewBox="0 0 65 60" fill="none" xmlns="http://www.w3.org/2000/svg">
<g opacity="0.6">
<path d="M9.84878 55.6706L9.85289 55.6706C9.98645 55.6716 10.0936 55.7792 10.0996 55.9032C10.0987 56.0165 9.99889 56.1337 9.85781 56.1398C9.73808 56.1447 9.62954 56.0519 9.62761 55.9112L9.62766 55.9112L9.62744 55.9031C9.62373 55.7666 9.72806 55.6689 9.84878 55.6706Z" fill="#16262C" stroke="#16262C" stroke-width="1.2"/>
<path d="M9.77456 58.9306L9.77867 58.9306C9.91225 58.9316 10.0193 59.0392 10.0253 59.1632C10.0245 59.2765 9.92467 59.3937 9.78359 59.3997C9.66385 59.4047 9.55532 59.3118 9.55339 59.1712L9.55344 59.1712L9.55322 59.1631C9.54951 59.0266 9.65384 58.9289 9.77456 58.9306Z" fill="#16262C" stroke="#16262C" stroke-width="1.2"/>
<path d="M10.4635 52.7984C10.4771 52.658 10.5978 52.5713 10.7089 52.5814L10.7089 52.5817C10.8548 52.597 10.9398 52.7163 10.9316 52.8288L10.9314 52.8288L10.9307 52.8423C10.9255 52.9459 10.8259 53.0571 10.6773 53.0509C10.5659 53.0462 10.4582 52.9502 10.4635 52.7984Z" fill="#16262C" stroke="#16262C" stroke-width="1.2"/>
<path d="M11.0837 49.5148L11.1177 49.5221C11.2671 49.5541 11.334 49.6857 11.3173 49.7828C11.2841 49.9261 11.1642 50.0036 11.0331 49.9845L11.0313 49.9842C10.9087 49.9667 10.8226 49.8412 10.8466 49.7251L10.8466 49.7251L10.8482 49.7173C10.8753 49.5766 10.9846 49.5095 11.0837 49.5148Z" fill="#16262C" stroke="#16262C" stroke-width="1.2"/>
<path d="M11.5554 46.6796L11.5564 46.6758C11.5881 46.554 11.7125 46.4809 11.8403 46.5186C11.9675 46.5569 12.0399 46.6889 12.0067 46.8147C11.9795 46.9147 11.8526 47.0068 11.7077 46.9717C11.5985 46.9439 11.5149 46.8307 11.5554 46.6796Z" fill="#16262C" stroke="#16262C" stroke-width="1.2"/>
<path d="M12.4792 43.7177C12.5226 43.6021 12.6388 43.5441 12.7425 43.5621L12.7789 43.5751C12.9058 43.6202 12.9645 43.7542 12.9241 43.8684L12.924 43.8684L12.9202 43.8799C12.8844 43.9883 12.7541 44.061 12.6274 44.0188L12.6274 44.0187L12.6224 44.0171C12.5123 43.9815 12.4363 43.8551 12.4792 43.7177Z" fill="#16262C" stroke="#16262C" stroke-width="1.2"/>
<path d="M13.845 40.6789L13.8779 40.6914C13.9781 40.749 14.0227 40.8709 13.9821 40.9787C13.9354 41.0994 13.8013 41.1621 13.6758 41.1174C13.5565 41.0717 13.4953 40.9365 13.5413 40.8157C13.5882 40.6923 13.7228 40.6324 13.845 40.6789Z" fill="#16262C" stroke="#16262C" stroke-width="1.2"/>
<path d="M15.0848 38.0874L15.0834 38.0911C15.0365 38.2144 14.8993 38.2737 14.781 38.2284C14.6553 38.1802 14.5986 38.0427 14.6423 37.9287C14.6889 37.8072 14.8215 37.7435 14.9514 37.7903C15.0688 37.8336 15.1307 37.9693 15.0848 38.0874Z" fill="#16262C" stroke="#16262C" stroke-width="1.2"/>
<path d="M15.8418 35.3314L15.8405 35.331C15.7178 35.2873 15.653 35.1529 15.6946 35.03C15.7318 34.9203 15.8616 34.8451 15.997 34.8889L16.0382 34.9023C16.1277 34.9522 16.1807 35.0654 16.14 35.1858C16.0968 35.3106 15.9596 35.3736 15.8418 35.3314Z" fill="#16262C" stroke="#16262C" stroke-width="1.2"/>
<path d="M16.9077 31.9313L16.9085 31.9315C17.0062 31.9531 17.0984 32.0601 17.0574 32.2195L17.0574 32.2194L17.0551 32.2289C17.0241 32.3583 16.9074 32.4221 16.7869 32.3854L16.7866 32.3853C16.659 32.3465 16.5811 32.2036 16.6069 32.0853C16.6331 31.9942 16.7563 31.8975 16.9077 31.9313Z" fill="#16262C" stroke="#16262C" stroke-width="1.2"/>
<path d="M17.4596 28.8911L17.4599 28.8911C17.5554 28.8978 17.6677 28.989 17.6503 29.162L17.6502 29.162L17.6492 29.1739C17.6403 29.2845 17.5289 29.3795 17.4034 29.3597C17.2743 29.3371 17.18 29.225 17.1862 29.0793C17.2001 28.9902 17.3015 28.88 17.4596 28.8911Z" fill="#16262C" stroke="#16262C" stroke-width="1.2"/>
<path d="M17.5687 25.8093L17.6004 25.8071C17.6901 25.8183 17.7862 25.895 17.7922 26.045L17.7921 26.045L17.7929 26.057C17.7998 26.1712 17.7025 26.2801 17.576 26.2794C17.4449 26.2757 17.3365 26.1775 17.3227 26.0366C17.3241 25.9448 17.4107 25.8204 17.5687 25.8093Z" fill="#16262C" stroke="#16262C" stroke-width="1.2"/>
<path d="M17.2489 22.7361L17.2825 22.7294C17.3743 22.7282 17.4776 22.7929 17.5009 22.9351L17.5008 22.9351L17.5023 22.9436C17.5256 23.0743 17.4412 23.1853 17.3161 23.2015C17.1823 23.2172 17.0594 23.122 17.0355 23.0029C17.0218 22.9018 17.0968 22.7666 17.2489 22.7361Z" fill="#16262C" stroke="#16262C" stroke-width="1.2"/>
<path d="M16.5636 19.7205L16.5632 19.7206C16.4228 19.7632 16.3559 19.9086 16.3842 20.0139C16.4124 20.1189 16.5445 20.2104 16.6839 20.1769L16.5636 19.7205ZM16.5636 19.7205C16.6675 19.6889 16.7973 19.7415 16.8393 19.8909M16.5636 19.7205L16.8393 19.8909M16.8393 19.8909C16.8777 20.0377 16.7956 20.1499 16.6841 20.1769L16.8393 19.8909Z" fill="#16262C" stroke="#16262C" stroke-width="1.2"/>
<path d="M15.4631 17.0813C15.4287 16.9793 15.4752 16.8523 15.5806 16.7932L15.6122 16.7815C15.733 16.7368 15.8627 16.7981 15.9046 16.9202L15.9046 16.9203L15.9054 16.9227C15.954 17.0623 15.8809 17.1849 15.7731 17.2212C15.6372 17.2657 15.5035 17.1915 15.4631 17.0813Z" fill="#16262C" stroke="#16262C" stroke-width="1.2"/>
<path d="M15.3571 13.805C15.2323 13.496 14.815 13.2035 14.3794 13.3099L14.4949 13.9014M15.3571 13.805L13.8111 14.4505C13.6466 14.0627 13.8056 13.6108 14.1592 13.4013L14.2662 13.9467H14.2694V13.3546L14.4929 13.9022C14.4935 13.9019 14.4941 13.9017 14.4947 13.9015C14.4948 13.9015 14.4948 13.9014 14.4949 13.9014M15.3571 13.805C15.4087 13.9308 15.4248 14.0599 15.4184 14.1858M14.4949 13.9014L14.4951 13.9026C14.3744 13.9516 14.3146 14.1002 14.3633 14.2156C14.3862 14.2691 14.4286 14.3095 14.4916 14.3332C14.5595 14.3588 14.6297 14.356 14.6774 14.3381M14.4949 13.9014C14.5476 13.8805 14.6057 13.8821 14.6735 13.9155C14.7089 13.933 14.7407 13.9568 14.7653 13.9821C14.7908 14.0084 14.7997 14.0272 14.8007 14.0296L14.8007 14.0296L14.802 14.0327C14.8139 14.0617 14.8211 14.0978 14.8195 14.1465C14.8109 14.2228 14.7505 14.3074 14.6774 14.3381M14.6774 14.3381C14.6783 14.3378 14.6791 14.3375 14.68 14.3372L14.8988 14.8958L14.6749 14.3392C14.6757 14.3388 14.6766 14.3385 14.6774 14.3381Z" fill="#16262C" stroke="#16262C" stroke-width="1.2"/>
<path d="M13.2952 11.0573L13.2952 11.0573L13.2967 11.0566C13.4104 11.0072 13.5494 11.0574 13.6038 11.1832C13.6558 11.3038 13.6008 11.4397 13.4814 11.4903L13.4814 11.4903L13.4799 11.491C13.3604 11.542 13.22 11.4847 13.1701 11.3679C13.119 11.2485 13.1731 11.11 13.2952 11.0573Z" fill="#16262C" stroke="#16262C" stroke-width="1.2"/>
<path d="M11.8772 7.92985L11.8772 7.92985L11.8787 7.92919C11.9924 7.87971 12.1315 7.92994 12.1858 8.0558C12.2379 8.17634 12.1829 8.31222 12.0634 8.36291L12.0634 8.3629L12.0619 8.36355C11.9425 8.4146 11.802 8.35725 11.7521 8.24049C11.7011 8.1211 11.7551 7.98257 11.8772 7.92985Z" fill="#16262C" stroke="#16262C" stroke-width="1.2"/>
<path d="M10.2073 4.16032L10.2073 4.16032L10.2088 4.15966C10.3225 4.11019 10.4615 4.1604 10.5159 4.28629C10.5679 4.40682 10.5129 4.54271 10.3935 4.59339L10.3935 4.59339L10.392 4.59404C10.2725 4.64509 10.1321 4.58774 10.0822 4.47097C10.0311 4.35157 10.0852 4.21303 10.2073 4.16032Z" fill="#16262C" stroke="#16262C" stroke-width="1.2"/>
<path d="M8.98071 0.619794L8.98071 0.619796L8.98224 0.619132C9.09594 0.569656 9.23498 0.619877 9.28933 0.745744C9.34139 0.866287 9.28638 1.00218 9.16691 1.05287L9.16691 1.05286L9.1654 1.05351C9.04597 1.10456 8.90554 1.04721 8.85562 0.930447C8.80458 0.811047 8.85863 0.672508 8.98071 0.619794Z" fill="#16262C" stroke="#16262C" stroke-width="1.2"/>
<path d="M56.2502 56.7392L56.2755 56.1398C56.1344 56.1338 56.0344 56.0166 56.0336 55.9032C56.0396 55.7792 56.1467 55.6716 56.2803 55.6706L56.2803 55.6706L56.2844 55.6706C56.4051 55.6689 56.5094 55.7666 56.5057 55.9031L56.5057 55.9031L56.5055 55.9112C56.5036 56.0519 56.395 56.1447 56.2752 56.1398L56.2502 56.7392ZM56.2502 56.7392C56.715 56.7586 57.099 56.3907 57.1055 55.9195L56.276 55.0706C55.8177 55.0739 55.4466 55.4418 55.4337 55.8904C55.4272 56.339 55.7919 56.7199 56.2502 56.7392Z" fill="#16262C" stroke="#16262C" stroke-width="1.2"/>
<path d="M56.6272 59.9314L56.6525 59.3319C56.5113 59.3259 56.4114 59.2087 56.4106 59.0954C56.4166 58.9714 56.5236 58.8637 56.6572 58.8628L56.6572 58.8628L56.6613 58.8627C56.7821 58.861 56.8864 58.9587 56.8827 59.0953L56.8826 59.0953L56.8825 59.1034C56.8806 59.244 56.772 59.3369 56.6522 59.3319L56.6272 59.9314ZM56.6272 59.9314C57.0919 59.9507 57.476 59.5828 57.4824 59.1116L56.653 58.2628C56.1947 58.266 55.8235 58.6339 55.8106 59.0825C55.8042 59.5311 56.1689 59.912 56.6272 59.9314Z" fill="#16262C" stroke="#16262C" stroke-width="1.2"/>
<path d="M55.3486 52.5818L55.3486 52.5815C55.4598 52.5714 55.5805 52.6581 55.5941 52.7985C55.5993 52.9504 55.4917 53.0463 55.3803 53.051C55.2316 53.0572 55.132 52.946 55.1268 52.8424L55.127 52.8424L55.126 52.8289C55.1178 52.7164 55.2028 52.5971 55.3486 52.5818Z" fill="#16262C" stroke="#16262C" stroke-width="1.2"/>
<path d="M54.9392 49.5221L54.9733 49.5148C55.0723 49.5095 55.1816 49.5766 55.2088 49.7173L55.2087 49.7173L55.2103 49.7251C55.2344 49.8412 55.1482 49.9667 55.0256 49.9842L55.0256 49.9842L55.0239 49.9845C54.8927 50.0036 54.7729 49.9261 54.7397 49.7828C54.7229 49.6857 54.7898 49.5541 54.9392 49.5221Z" fill="#16262C" stroke="#16262C" stroke-width="1.2"/>
<path d="M54.5017 46.6758L54.5017 46.6758L54.5027 46.6796C54.5432 46.8307 54.4596 46.9439 54.3504 46.9717C54.2055 47.0068 54.0786 46.9147 54.0514 46.8147C54.0182 46.6889 54.0906 46.5569 54.2178 46.5186C54.3456 46.4809 54.47 46.554 54.5017 46.6758Z" fill="#16262C" stroke="#16262C" stroke-width="1.2"/>
<path d="M53.2796 43.5752L53.316 43.5623C53.4197 43.5442 53.5359 43.6022 53.5793 43.7179C53.6222 43.8552 53.5462 43.9816 53.4361 44.0172L53.4361 44.0172L53.431 44.0189C53.3044 44.0611 53.1741 43.9884 53.1383 43.88L53.1384 43.88L53.1344 43.8686C53.094 43.7543 53.1527 43.6203 53.2796 43.5752Z" fill="#16262C" stroke="#16262C" stroke-width="1.2"/>
<path d="M52.0762 40.9787C52.0355 40.8709 52.0802 40.749 52.1804 40.6914L52.2132 40.6789C52.3355 40.6324 52.4701 40.6923 52.517 40.8157C52.563 40.9365 52.5018 41.0717 52.3825 41.1174C52.257 41.1621 52.1229 41.0994 52.0762 40.9787Z" fill="#16262C" stroke="#16262C" stroke-width="1.2"/>
<path d="M50.9762 38.0909L50.9762 38.0909L50.9748 38.0873C50.9289 37.9691 50.9908 37.8335 51.1082 37.7902C51.2381 37.7434 51.3706 37.807 51.4173 37.9286C51.461 38.0426 51.4042 38.1801 51.2785 38.2283C51.1603 38.2736 51.0231 38.2142 50.9762 38.0909Z" fill="#16262C" stroke="#16262C" stroke-width="1.2"/>
<path d="M50.2167 35.3316C50.0989 35.3738 49.9617 35.3108 49.9185 35.1859C49.8778 35.0655 49.9308 34.9523 50.0203 34.9024L50.0615 34.8891C50.1968 34.8453 50.3267 34.9204 50.3638 35.0301C50.4054 35.1531 50.3407 35.2875 50.218 35.3311L50.218 35.3311L50.2167 35.3316Z" fill="#16262C" stroke="#16262C" stroke-width="1.2"/>
<path d="M49.151 31.9315L49.151 31.9315L49.1519 31.9313C49.3032 31.8975 49.4264 31.9942 49.4526 32.0853C49.4785 32.2036 49.4006 32.3465 49.273 32.3853L49.2726 32.3854C49.1521 32.4221 49.0355 32.3583 49.0045 32.2289L49.0045 32.2289L49.0021 32.2195C48.9612 32.0601 49.0533 31.9531 49.151 31.9315Z" fill="#16262C" stroke="#16262C" stroke-width="1.2"/>
<path d="M48.5987 28.8913L48.599 28.8912C48.7571 28.8801 48.8585 28.9903 48.8724 29.0794C48.8786 29.2251 48.7843 29.3373 48.6552 29.3598C48.5297 29.3796 48.4183 29.2846 48.4094 29.1741L48.4095 29.1741L48.4083 29.1621C48.3909 28.9892 48.5032 28.8979 48.5987 28.8913Z" fill="#16262C" stroke="#16262C" stroke-width="1.2"/>
<path d="M48.4569 25.807L48.4887 25.8092C48.6466 25.8202 48.7333 25.9447 48.7346 26.0364C48.7208 26.1774 48.6124 26.2755 48.4813 26.2793C48.3549 26.28 48.2576 26.1711 48.2645 26.0569L48.2646 26.0569L48.2651 26.0449C48.2711 25.8949 48.3672 25.8181 48.4569 25.807Z" fill="#16262C" stroke="#16262C" stroke-width="1.2"/>
<path d="M48.5586 22.9351C48.5818 22.7929 48.6851 22.7282 48.7769 22.7294L48.8105 22.7361C48.9627 22.7666 49.0376 22.9018 49.024 23.0029C49 23.122 48.8772 23.2172 48.7434 23.2015C48.6182 23.1853 48.5339 23.0743 48.5571 22.9436L48.5572 22.9437L48.5586 22.9351Z" fill="#16262C" stroke="#16262C" stroke-width="1.2"/>
<path d="M49.4948 19.7205L49.4944 19.7204C49.3905 19.6887 49.2607 19.7413 49.2187 19.8907C49.1803 20.0376 49.2624 20.1498 49.3739 20.1767L49.4948 19.7205ZM49.4948 19.7205C49.6352 19.7631 49.7021 19.9085 49.6738 20.0138C49.6456 20.1188 49.5135 20.2103 49.3741 20.1768L49.4948 19.7205Z" fill="#16262C" stroke="#16262C" stroke-width="1.2"/>
<path d="M50.4454 16.7812L50.4771 16.793C50.5825 16.852 50.629 16.9791 50.5946 17.0811C50.5541 17.1913 50.4204 17.2655 50.2846 17.2209C50.1768 17.1846 50.1037 17.062 50.1522 16.9224L50.1531 16.92C50.195 16.7978 50.3247 16.7365 50.4454 16.7812Z" fill="#16262C" stroke="#16262C" stroke-width="1.2"/>
<path d="M51.5613 13.9026C51.6821 13.9516 51.7418 14.1002 51.6932 14.2156C51.6702 14.2691 51.6278 14.3095 51.5649 14.3332C51.497 14.3588 51.4268 14.356 51.379 14.3381C51.3059 14.3074 51.2455 14.2228 51.2369 14.1465C51.2354 14.0978 51.2426 14.0617 51.2545 14.0327L51.2545 14.0327L51.2557 14.0296C51.2567 14.0272 51.2657 14.0084 51.2911 13.9821C51.3157 13.9568 51.3476 13.933 51.383 13.9155C51.4507 13.8821 51.5088 13.8805 51.5616 13.9014L51.5613 13.9026Z" fill="#16262C" stroke="#16262C" stroke-width="1.2"/>
<path d="M52.7609 11.0566L52.7624 11.0573C52.8845 11.11 52.9385 11.2485 52.8875 11.3679C52.8376 11.4847 52.6971 11.542 52.5777 11.491L52.5762 11.4903C52.4567 11.4397 52.4017 11.3038 52.4538 11.1832C52.5081 11.0574 52.6472 11.0072 52.7609 11.0566Z" fill="#16262C" stroke="#16262C" stroke-width="1.2"/>
<path d="M54.1769 7.92919L54.1784 7.92985C54.3005 7.98257 54.3545 8.1211 54.3035 8.24049C54.2536 8.35725 54.1132 8.4146 53.9937 8.36355L53.9922 8.36291C53.8727 8.31222 53.8177 8.17634 53.8698 8.0558C53.9241 7.92993 54.0632 7.87972 54.1769 7.92919Z" fill="#16262C" stroke="#16262C" stroke-width="1.2"/>
<path d="M55.8488 4.15966L55.8503 4.16032C55.9724 4.21303 56.0264 4.35157 55.9754 4.47097C55.9255 4.58774 55.785 4.64509 55.6656 4.59404L55.6641 4.59339C55.5446 4.54271 55.4896 4.40682 55.5417 4.28629C55.596 4.1604 55.7351 4.11019 55.8488 4.15966Z" fill="#16262C" stroke="#16262C" stroke-width="1.2"/>
<path d="M57.0773 0.619132L57.0788 0.619794C57.2009 0.672508 57.2549 0.811048 57.2039 0.930447C57.154 1.04722 57.0135 1.10456 56.8941 1.05351L56.8926 1.05287C56.7731 1.00218 56.7181 0.866286 56.7702 0.745744C56.8245 0.619876 56.9636 0.569657 57.0773 0.619132Z" fill="#16262C" stroke="#16262C" stroke-width="1.2"/>
<path d="M8.26758 17.323C8.26758 17.323 10.4687 17.7328 12.0824 16.6936" stroke="#16262C" stroke-width="1.2" stroke-linecap="round" stroke-linejoin="round"/>
<path d="M5.71094 10.1424C5.71094 10.1424 7.95077 10.4005 8.86413 8.98047" stroke="#16262C" stroke-width="1.2" stroke-linecap="round" stroke-linejoin="round"/>
<path d="M1.17907 1.42456C1.30494 2.56707 1.64705 4.29696 2.71855 6.05268C3.80297 7.831 4.56787 7.88263 5.45541 9.59962C6.56565 11.7426 5.72006 12.3365 6.77221 14.87C7.42737 16.445 8.01477 16.8452 8.6538 17.907C8.6538 17.907 8.96686 18.4234 9.30574 19.2303C10.119 21.1603 9.1605 25.2042 9.00236 28.1864C8.8894 30.2971 10.0061 32.3336 9.73821 34.4412C9.50584 36.2421 7.53065 37.8848 6.72057 39.5534C5.96212 41.1187 5.25531 42.7098 4.6066 44.3203C3.98048 45.8759 4.10635 47.3154 3.59642 48.8516C3.24785 49.8973 2.2764 50.4653 2.16989 51.5982C2.16989 51.5982 0.4529 55.0386 1.17907 57.9659" stroke="#16262C" stroke-width="1.2" stroke-linecap="round" stroke-linejoin="round"/>
<path d="M56.9686 17.323C56.9686 17.323 54.7675 17.7328 53.1538 16.6936" stroke="#16262C" stroke-width="1.2" stroke-linecap="round" stroke-linejoin="round"/>
<path d="M59.526 10.1421C59.526 10.1421 57.2862 10.4003 56.3728 8.98022" stroke="#16262C" stroke-width="1.2" stroke-linecap="round" stroke-linejoin="round"/>
<path d="M64.2361 1.42456C64.1102 2.56707 63.7681 4.29696 62.6966 6.05268C61.6122 7.831 60.8473 7.88263 59.9598 9.59962C58.8495 11.7426 59.6951 12.3365 58.643 14.87C57.9878 16.445 57.4004 16.8452 56.7614 17.907C56.7614 17.907 56.4483 18.4234 56.1095 19.2303C55.2961 21.1603 56.2547 25.2042 56.4128 28.1832C56.5258 30.2971 55.4672 32.3498 55.7318 34.4573C55.9868 36.4841 57.7296 37.9235 58.5365 39.7793C59.0432 40.9476 59.3982 42.187 60.0276 43.2908C60.4278 43.9911 60.9377 44.6301 61.3024 45.3531C61.9414 46.6086 61.5154 47.8931 61.8995 49.1937C62.3029 50.5557 63.4002 51.5982 63.652 53.0279C64.007 55.0418 63.8746 57.0977 63.4551 59.0923" stroke="#16262C" stroke-width="1.2" stroke-linecap="round" stroke-linejoin="round"/>
</g>
</svg>
