<svg width="62" height="62" viewBox="0 0 62 62" fill="none" xmlns="http://www.w3.org/2000/svg">
<g opacity="0.6">
<path d="M7.772 1C11.1509 6.33133 11.564 11.7014 8.7918 17.3683C6.27136 22.5189 3.50242 27.534 2.16959 33.1654C0.397862 40.6558 0.539858 48.6495 3.27975 55.8946C4.10268 58.0697 5.00952 59.7962 5.70982 60.9968" stroke="#16262C" stroke-width="1.2" stroke-linecap="round" stroke-linejoin="round"/>
<path d="M54.4468 1C52.3846 4.25301 50.9517 8.20955 51.5197 12.1048C52.1167 16.1936 54.6565 19.4499 56.4573 23.045C61.4175 32.946 62.902 45.4094 58.9422 55.8978C58.1193 58.0729 57.2125 59.7995 56.5122 61" stroke="#16262C" stroke-width="1.2" stroke-linecap="round" stroke-linejoin="round"/>
<path d="M31.84 23.3579C31.9852 23.8581 31.4656 24.4584 30.9041 24.4648C30.3329 24.4745 29.7584 23.8678 29.9036 23.3579" stroke="#16262C" stroke-width="1.2" stroke-linecap="round" stroke-linejoin="round"/>
<path d="M31.1074 59.1378V53.6258L22.8135 45.7902" stroke="#16262C" stroke-width="1.2" stroke-linecap="round" stroke-linejoin="round"/>
<path d="M31.1074 53.6257L38.9915 46.1805" stroke="#16262C" stroke-width="1.2" stroke-linecap="round" stroke-linejoin="round"/>
<path d="M48.0604 4.97045L48.0407 4.96668C48.0136 4.95235 47.9922 4.91982 48 4.87539C48.0109 4.82863 48.0518 4.80259 48.0965 4.8105C48.1524 4.82436 48.1705 4.87353 48.1643 4.90262L48.1643 4.90262L48.1633 4.90761C48.1556 4.94542 48.1137 4.98064 48.0604 4.97045Z" fill="#16262C" stroke="#16262C" stroke-width="1.2"/>
<path d="M47.5825 7.45071C47.5535 7.43636 47.5356 7.40421 47.5417 7.36833L47.5418 7.36834L47.5434 7.35847C47.5497 7.31721 47.5905 7.28588 47.635 7.2936C47.677 7.30091 47.7108 7.34238 47.7066 7.38892C47.6968 7.43082 47.6535 7.4612 47.6093 7.45466L47.5825 7.45071Z" fill="#16262C" stroke="#16262C" stroke-width="1.2"/>
<path d="M47.2826 9.95988L47.2704 9.95916C47.2444 9.95499 47.2098 9.92561 47.2147 9.87628C47.2181 9.84261 47.2325 9.82208 47.2468 9.8104C47.2606 9.79905 47.2769 9.7935 47.2978 9.79586C47.3236 9.79916 47.347 9.81234 47.3638 9.83273C47.3805 9.85302 47.3837 9.87144 47.3824 9.8843C47.3802 9.9071 47.3701 9.92518 47.3544 9.93852C47.3393 9.95138 47.3163 9.96188 47.2826 9.95988Z" fill="#16262C" stroke="#16262C" stroke-width="1.2"/>
<path d="M47.1708 12.3744L47.17 12.366C47.1724 12.3597 47.1778 12.3495 47.1873 12.3387C47.1971 12.3276 47.2067 12.3213 47.2124 12.3185C47.213 12.3182 47.2135 12.318 47.214 12.3178H47.2154C47.2713 12.3178 47.2954 12.3348 47.3036 12.3421C47.3103 12.348 47.3301 12.3679 47.3374 12.4249C47.339 12.4593 47.3278 12.4737 47.3257 12.4761C47.3248 12.4771 47.3241 12.4777 47.3238 12.4779L47.3232 12.4783C47.3231 12.4783 47.3225 12.4786 47.3211 12.4789C47.3199 12.4792 47.3175 12.4796 47.3135 12.4797C47.2793 12.4792 47.2412 12.4652 47.2104 12.4381C47.1789 12.4106 47.1717 12.385 47.1708 12.3744Z" fill="#16262C" stroke="#16262C" stroke-width="1.2"/>
<path d="M47.6908 14.938C47.6803 14.9549 47.6656 14.9675 47.6476 14.9747L47.6268 14.9801C47.5971 14.9877 47.5512 14.9714 47.539 14.9158C47.5268 14.8606 47.5629 14.8242 47.5933 14.8187C47.6497 14.8084 47.6932 14.8436 47.7034 14.8816C47.7062 14.8976 47.7035 14.9176 47.6908 14.938Z" fill="#16262C" stroke="#16262C" stroke-width="1.2"/>
<path d="M48.1889 17.3566L48.1889 17.3566L48.187 17.3505C48.1819 17.334 48.1829 17.3147 48.1939 17.2945C48.2049 17.2743 48.2205 17.2634 48.2353 17.2592C48.2908 17.2443 48.3347 17.2743 48.3479 17.3154C48.3531 17.333 48.3517 17.3523 48.3409 17.3723C48.33 17.3927 48.3126 17.4071 48.2913 17.4138C48.2484 17.4265 48.2031 17.4039 48.1889 17.3566Z" fill="#16262C" stroke="#16262C" stroke-width="1.2"/>
<path d="M49.0465 19.8215L49.0233 19.829C48.9853 19.8308 48.9521 19.8069 48.9412 19.7729C48.9275 19.7304 48.9495 19.6828 48.9942 19.6666C49.0428 19.6531 49.0866 19.6798 49.1 19.7196C49.1131 19.7612 49.0905 19.8072 49.0465 19.8215Z" fill="#16262C" stroke="#16262C" stroke-width="1.2"/>
<path d="M49.8569 22.2149L49.8393 22.2207C49.7944 22.2357 49.7472 22.2105 49.7331 22.1702C49.7191 22.1266 49.7428 22.0796 49.7864 22.065C49.828 22.0512 49.8737 22.0719 49.8891 22.118C49.9016 22.1556 49.886 22.1948 49.8569 22.2149Z" fill="#16262C" stroke="#16262C" stroke-width="1.2"/>
<path d="M50.6663 24.6068L50.6398 24.6156C50.5976 24.6297 50.551 24.605 50.5381 24.5658L50.5381 24.5658L50.5371 24.5627C50.5232 24.521 50.544 24.4753 50.5901 24.4599C50.6339 24.4453 50.6814 24.4691 50.696 24.5129C50.7078 24.5482 50.6947 24.5858 50.6663 24.6068Z" fill="#16262C" stroke="#16262C" stroke-width="1.2"/>
<path d="M51.418 27.0158L51.4181 27.0167C51.3735 27.029 51.3304 27.0045 51.3172 26.9627L51.3172 26.9627L51.3157 26.958C51.3043 26.923 51.3212 26.8752 51.3722 26.8587C51.4093 26.8466 51.4585 26.8662 51.4745 26.9144C51.4866 26.9533 51.4662 27.0008 51.418 27.0158Z" fill="#16262C" stroke="#16262C" stroke-width="1.2"/>
<path d="M52.1543 29.4276L52.1318 29.4339C52.0947 29.4329 52.0619 29.4089 52.0504 29.3702C52.04 29.3352 52.0585 29.2857 52.1111 29.2698C52.1468 29.2589 52.1948 29.2781 52.2096 29.3286L52.2096 29.3286L52.211 29.3333C52.2161 29.3503 52.2148 29.3685 52.2038 29.388C52.1923 29.4085 52.1743 29.4221 52.1543 29.4276Z" fill="#16262C" stroke="#16262C" stroke-width="1.2"/>
<path d="M52.7498 31.8619C52.7318 31.8509 52.7161 31.8327 52.7078 31.8077C52.7014 31.7709 52.7234 31.7255 52.7745 31.7119C52.8061 31.7035 52.8565 31.7191 52.8726 31.7805L52.8726 31.7805L52.8729 31.7817C52.8773 31.7986 52.8755 31.8169 52.8637 31.8361C52.8558 31.8491 52.8451 31.8593 52.8327 31.8663L52.8114 31.8713C52.7877 31.8769 52.7678 31.873 52.7498 31.8619Z" fill="#16262C" stroke="#16262C" stroke-width="1.2"/>
<path d="M53.366 34.3364C53.3183 34.3447 53.2712 34.3153 53.259 34.2657C53.2567 34.2515 53.2592 34.2337 53.2718 34.2148C53.285 34.195 53.3049 34.1809 53.33 34.1756L53.33 34.1756L53.336 34.1743C53.3639 34.1682 53.4107 34.1841 53.4223 34.2429L53.4222 34.243L53.4245 34.2536C53.4283 34.2715 53.4253 34.2888 53.4135 34.3061C53.4053 34.3181 53.3945 34.3275 53.382 34.3336L53.366 34.3364Z" fill="#16262C" stroke="#16262C" stroke-width="1.2"/>
<path d="M53.7693 36.8255C53.7269 36.8303 53.6798 36.7994 53.6695 36.7508C53.6687 36.7362 53.6729 36.718 53.6872 36.6993C53.7029 36.6787 53.7241 36.6665 53.747 36.6631L53.747 36.6631L53.752 36.6623C53.7767 36.6584 53.8243 36.6752 53.8327 36.7375L53.8327 36.7375L53.8334 36.7424C53.8389 36.7807 53.8196 36.8107 53.7915 36.823L53.7693 36.8255Z" fill="#16262C" stroke="#16262C" stroke-width="1.2"/>
<path d="M53.9972 39.3424L53.982 39.3427C53.954 39.3431 53.9304 39.3329 53.9135 39.3171C53.8994 39.3039 53.8939 39.291 53.8923 39.2806C53.8945 39.2458 53.9075 39.2202 53.9211 39.2047C53.9339 39.1902 53.9495 39.1811 53.9751 39.1793L53.9758 39.1793C53.9932 39.178 54.017 39.1847 54.0363 39.2017C54.0448 39.2092 54.0493 39.2161 54.0513 39.2204C54.0529 39.2239 54.0539 39.2272 54.0539 39.2326V39.2401L54.0541 39.2476C54.0555 39.3045 54.0241 39.3331 53.9972 39.3424Z" fill="#16262C" stroke="#16262C" stroke-width="1.2"/>
<path d="M53.9774 41.8644L53.9587 41.8631C53.924 41.8513 53.8931 41.8178 53.8911 41.7678C53.8923 41.7568 53.8976 41.7432 53.9131 41.7288C53.9307 41.7124 53.9555 41.7015 53.9835 41.7011C54.0021 41.702 54.0174 41.7093 54.0301 41.7228C54.0434 41.7371 54.0543 41.7592 54.0533 41.7911L54.0532 41.7911L54.053 41.8011C54.0527 41.82 54.046 41.8338 54.0329 41.8456C54.0184 41.8586 53.9991 41.8659 53.9774 41.8644Z" fill="#16262C" stroke="#16262C" stroke-width="1.2"/>
<path d="M53.7674 44.383L53.7667 44.3829C53.7097 44.375 53.6838 44.328 53.6862 44.2947C53.6895 44.2761 53.7 44.2565 53.7203 44.2404C53.7415 44.2236 53.7657 44.2169 53.789 44.2191L53.7904 44.2192C53.8135 44.2214 53.8273 44.2307 53.8367 44.2426C53.8463 44.2547 53.8549 44.2746 53.8511 44.3052C53.8432 44.368 53.797 44.3871 53.7674 44.383Z" fill="#16262C" stroke="#16262C" stroke-width="1.2"/>
<path d="M53.4767 46.8125C53.461 46.8662 53.4144 46.8849 53.38 46.8779C53.3236 46.8658 53.3069 46.818 53.3122 46.792L53.3144 46.7814L53.3162 46.7708C53.3207 46.7436 53.3545 46.7053 53.4109 46.7147C53.4418 46.7198 53.4816 46.7549 53.4767 46.8125Z" fill="#16262C" stroke="#16262C" stroke-width="1.2"/>
<path d="M52.9307 49.29L52.9304 49.2911C52.9269 49.3066 52.9179 49.3206 52.8986 49.3318C52.8778 49.3439 52.8547 49.3465 52.8352 49.3416C52.8082 49.334 52.7934 49.3201 52.7839 49.3038C52.7739 49.2866 52.7676 49.262 52.7727 49.232C52.7771 49.2187 52.7867 49.205 52.805 49.194C52.8254 49.1816 52.8509 49.1766 52.878 49.1827C52.8941 49.1864 52.9085 49.1957 52.92 49.2147C52.932 49.2345 52.9375 49.2609 52.9307 49.29Z" fill="#16262C" stroke="#16262C" stroke-width="1.2"/>
<path d="M52.1433 51.7726L52.1435 51.7716C52.1166 51.7628 52.1016 51.7475 52.0928 51.7304C52.0834 51.712 52.0798 51.6884 52.0878 51.6618C52.0959 51.6349 52.1357 51.5997 52.1923 51.6163C52.2266 51.6265 52.2564 51.6673 52.2405 51.7185L52.2405 51.7185L52.2387 51.7245C52.2282 51.7599 52.1868 51.7862 52.1433 51.7726Z" fill="#16262C" stroke="#16262C" stroke-width="1.2"/>
<path d="M51.2727 54.0538C51.2863 54.0171 51.3292 53.9884 51.3837 54.0053C51.422 54.0206 51.4435 54.0647 51.4291 54.1066C51.4071 54.1614 51.3589 54.1699 51.3304 54.1586L51.3045 54.1484C51.2922 54.1393 51.2824 54.1271 51.2759 54.1126C51.2657 54.0904 51.2664 54.0706 51.2721 54.0555L51.2727 54.0538Z" fill="#16262C" stroke="#16262C" stroke-width="1.2"/>
<path d="M50.3938 56.5015L50.3752 56.4941C50.3497 56.4745 50.3356 56.4386 50.3496 56.399C50.3724 56.3481 50.4212 56.3355 50.4571 56.3502C50.4772 56.3584 50.4933 56.3739 50.5027 56.3961C50.5123 56.4187 50.511 56.4386 50.5051 56.4532L50.505 56.4532L50.5029 56.4586C50.4882 56.4959 50.4436 56.5211 50.3938 56.5015Z" fill="#16262C" stroke="#16262C" stroke-width="1.2"/>
<path d="M49.4582 58.8506C49.421 58.8359 49.3957 58.7912 49.4154 58.7414C49.4301 58.7042 49.4747 58.6789 49.5245 58.6986C49.5618 58.7133 49.587 58.7579 49.5674 58.8077C49.5527 58.845 49.508 58.8702 49.4582 58.8506Z" fill="#16262C" stroke="#16262C" stroke-width="1.2"/>
<path d="M14.1197 4.88154C14.1264 4.92481 14.1053 4.95648 14.0786 4.97056L14.0589 4.97433C14.0057 4.98452 13.9637 4.9493 13.9561 4.91149L13.9561 4.91148L13.955 4.9065C13.9515 4.8898 13.9541 4.87104 13.9667 4.85192C13.9794 4.8326 13.9983 4.8195 14.021 4.81472L14.021 4.81474L14.0259 4.81366C14.0564 4.80697 14.1048 4.82375 14.1197 4.88154Z" fill="#16262C" stroke="#16262C" stroke-width="1.2"/>
<path d="M14.5805 7.37136C14.5866 7.40724 14.5688 7.43939 14.5397 7.45373L14.513 7.45769C14.468 7.46434 14.4241 7.43282 14.4152 7.38984C14.4097 7.34553 14.4381 7.30511 14.4864 7.29678L14.4864 7.29678L14.4873 7.29663C14.5343 7.28846 14.5725 7.31945 14.5788 7.36074L14.5787 7.36075L14.5805 7.37136Z" fill="#16262C" stroke="#16262C" stroke-width="1.2"/>
<path d="M14.8538 9.95942L14.8478 9.95972C14.8129 9.9615 14.7889 9.95057 14.7728 9.93681C14.7566 9.923 14.7459 9.90437 14.7427 9.88185C14.7419 9.86752 14.7462 9.85005 14.761 9.83202C14.7766 9.81291 14.7995 9.79937 14.8275 9.79598L14.7556 9.2003L14.8269 9.79605C14.8481 9.79352 14.8645 9.79907 14.8785 9.81052C14.8928 9.8222 14.9072 9.84273 14.9106 9.8764C14.9129 9.89936 14.9061 9.91962 14.8918 9.93633C14.8784 9.9521 14.8642 9.95796 14.8538 9.95942Z" fill="#16262C" stroke="#16262C" stroke-width="1.2"/>
<path d="M14.9332 12.3401C14.9422 12.3502 14.9471 12.3597 14.9493 12.3653L14.9493 12.3653L14.9485 12.3739C14.9477 12.3824 14.9409 12.4087 14.9081 12.4376C14.8762 12.4656 14.8382 12.4792 14.8056 12.4796C14.8013 12.4796 14.7985 12.4791 14.797 12.4788C14.7954 12.4784 14.7947 12.4781 14.7946 12.478L14.7942 12.4778L14.7929 12.4766C14.7917 12.4752 14.7886 12.4711 14.7859 12.4628C14.7836 12.4554 14.781 12.443 14.7818 12.4247C14.7892 12.3678 14.8089 12.348 14.8156 12.3421C14.8237 12.3348 14.8475 12.318 14.9027 12.3178C14.9034 12.318 14.905 12.3185 14.9074 12.3197C14.914 12.3229 14.9237 12.3294 14.9332 12.3401Z" fill="#16262C" stroke="#16262C" stroke-width="1.2"/>
<path d="M14.495 14.9801L14.4788 14.9759C14.4298 14.9569 14.4124 14.9091 14.4189 14.8791C14.4245 14.8535 14.4634 14.8073 14.5335 14.8195C14.556 14.8235 14.5961 14.8541 14.5827 14.9163C14.5703 14.9715 14.5246 14.9877 14.495 14.9801Z" fill="#16262C" stroke="#16262C" stroke-width="1.2"/>
<path d="M13.882 17.2585L13.8854 17.2594C13.9004 17.2636 13.9163 17.2744 13.9274 17.2949C13.9385 17.3151 13.9394 17.3345 13.9343 17.3509L13.9343 17.3509L13.9324 17.357C13.9181 17.4045 13.8724 17.4271 13.8293 17.414L13.814 17.4094C13.7763 17.3916 13.7597 17.3501 13.7704 17.3151C13.7836 17.2722 13.8282 17.2432 13.882 17.2585Z" fill="#16262C" stroke="#16262C" stroke-width="1.2"/>
<path d="M13.1778 19.7764C13.1668 19.8104 13.1336 19.8343 13.0956 19.8324L13.0724 19.8249C13.0518 19.8182 13.035 19.8041 13.0244 19.7832C13.0137 19.7623 13.0128 19.7417 13.0187 19.7238L13.0192 19.7223C13.0336 19.6777 13.0777 19.6549 13.1232 19.6695L13.1264 19.6705C13.165 19.6827 13.1929 19.7292 13.1778 19.7764Z" fill="#16262C" stroke="#16262C" stroke-width="1.2"/>
<path d="M12.2842 22.2195L12.2595 22.211C12.2319 22.1917 12.2166 22.1547 12.2298 22.1152C12.2433 22.0746 12.2892 22.049 12.3341 22.0628C12.3769 22.078 12.3999 22.1248 12.3855 22.1682C12.3708 22.2124 12.3249 22.2334 12.2842 22.2195Z" fill="#16262C" stroke="#16262C" stroke-width="1.2"/>
<path d="M11.5891 24.5577L11.5886 24.5592C11.5732 24.6053 11.5275 24.6261 11.4859 24.6122L11.4587 24.6031C11.4306 24.5827 11.4178 24.5466 11.4299 24.5088C11.4448 24.4654 11.492 24.442 11.5356 24.4565C11.5814 24.4718 11.6018 24.52 11.5891 24.5577Z" fill="#16262C" stroke="#16262C" stroke-width="1.2"/>
<path d="M10.6945 27.0159L10.6946 27.0151C10.6773 27.0098 10.6609 26.9975 10.6495 26.9758C10.6386 26.9549 10.6364 26.9327 10.6423 26.9116C10.6583 26.8658 10.704 26.8461 10.7436 26.859C10.7895 26.8738 10.8115 26.9227 10.7991 26.9615L10.7986 26.963C10.787 27 10.7458 27.0292 10.6945 27.0159Z" fill="#16262C" stroke="#16262C" stroke-width="1.2"/>
<path d="M10.066 29.3736C10.0546 29.4123 10.0218 29.4363 9.98459 29.4373L9.96215 29.4311C9.94318 29.4258 9.92596 29.413 9.91442 29.3924C9.90317 29.3724 9.90109 29.3518 9.90687 29.332C9.92162 29.2815 9.96967 29.2624 10.0054 29.2732C10.0579 29.2892 10.0765 29.3386 10.066 29.3736Z" fill="#16262C" stroke="#16262C" stroke-width="1.2"/>
<path d="M9.30808 31.8684L9.28462 31.8628C9.27405 31.8566 9.26416 31.8473 9.25634 31.8346C9.24443 31.8151 9.24211 31.796 9.24692 31.7775L9.24694 31.7775L9.24814 31.7728C9.26153 31.7197 9.30951 31.6996 9.34501 31.709C9.39611 31.7226 9.41809 31.768 9.41169 31.8048C9.40342 31.8298 9.38769 31.848 9.36971 31.859C9.35165 31.87 9.33175 31.874 9.30808 31.8684Z" fill="#16262C" stroke="#16262C" stroke-width="1.2"/>
<path d="M8.75577 34.3332L8.73553 34.3296C8.70701 34.3151 8.69052 34.2822 8.69755 34.2493L8.69757 34.2493L8.69856 34.2445C8.70508 34.2127 8.72114 34.1933 8.73744 34.1824C8.75294 34.1721 8.76965 34.1683 8.78842 34.1717C8.81382 34.1779 8.83437 34.193 8.84801 34.2134C8.86073 34.2324 8.86386 34.2503 8.86206 34.2651C8.84892 34.3131 8.80261 34.3413 8.75577 34.3332Z" fill="#16262C" stroke="#16262C" stroke-width="1.2"/>
<path d="M8.34942 36.8226L8.32628 36.82C8.29625 36.8071 8.27973 36.7762 8.28458 36.7444L8.28466 36.7444L8.286 36.7346C8.29444 36.6723 8.34209 36.6555 8.36673 36.6594C8.39443 36.6637 8.41818 36.6785 8.43397 36.6991C8.44836 36.7179 8.45089 36.7338 8.44982 36.7451C8.44064 36.7953 8.3926 36.8275 8.34942 36.8226Z" fill="#16262C" stroke="#16262C" stroke-width="1.2"/>
<path d="M8.13397 39.3392L8.1188 39.339C8.09189 39.3297 8.06054 39.301 8.06196 39.2442L8.06214 39.2367V39.2292C8.06214 39.2238 8.06308 39.2205 8.06472 39.217C8.06675 39.2127 8.07119 39.2058 8.07973 39.1983C8.09844 39.1818 8.12138 39.175 8.13856 39.1757C8.16767 39.1785 8.18488 39.1896 8.19731 39.2037C8.21107 39.2193 8.22277 39.2436 8.22395 39.2753C8.22273 39.2861 8.21743 39.2998 8.20249 39.3137C8.18561 39.3295 8.16203 39.3397 8.13397 39.3392Z" fill="#16262C" stroke="#16262C" stroke-width="1.2"/>
<path d="M8.15947 41.8659L8.13783 41.8674C8.11615 41.8689 8.09679 41.8616 8.08236 41.8486C8.06926 41.8369 8.06255 41.823 8.06224 41.8041L8.06232 41.8041L8.06199 41.7941C8.06092 41.7622 8.07188 41.7401 8.08517 41.7258C8.09838 41.7117 8.11441 41.7044 8.13415 41.704C8.19228 41.703 8.22089 41.7444 8.22411 41.7711C8.22287 41.8002 8.21176 41.8244 8.19655 41.8413C8.18652 41.8524 8.17451 41.8609 8.15947 41.8659Z" fill="#16262C" stroke="#16262C" stroke-width="1.2"/>
<path d="M8.26815 44.3095L8.26823 44.3095L8.26688 44.2996C8.26359 44.2753 8.27016 44.2573 8.28069 44.244C8.29119 44.2307 8.30625 44.2213 8.32827 44.2192L8.32827 44.2192L8.32971 44.2191C8.35304 44.2169 8.37719 44.2236 8.39841 44.2404C8.41883 44.2566 8.42937 44.2764 8.43255 44.2951C8.43367 44.3089 8.43007 44.326 8.41561 44.3445C8.40065 44.3636 8.37816 44.3782 8.3498 44.3831C8.3162 44.3866 8.27455 44.3635 8.26815 44.3095Z" fill="#16262C" stroke="#16262C" stroke-width="1.2"/>
<path d="M8.80291 46.7708L8.8047 46.7814L8.80687 46.792C8.81222 46.818 8.79534 46.8661 8.73851 46.8781C8.70695 46.8847 8.65823 46.8657 8.64234 46.8124C8.63755 46.7548 8.67728 46.7198 8.7082 46.7147C8.76456 46.7053 8.79834 46.7436 8.80291 46.7708Z" fill="#16262C" stroke="#16262C" stroke-width="1.2"/>
<path d="M9.19217 49.2911L9.19219 49.2911L9.19104 49.2864C9.17674 49.2271 9.21257 49.1901 9.24465 49.1827C9.27175 49.1766 9.29718 49.1816 9.31766 49.194C9.33591 49.205 9.34551 49.2187 9.34988 49.232C9.35504 49.262 9.34872 49.2866 9.3387 49.3038C9.3292 49.3201 9.31438 49.334 9.28743 49.3416C9.26792 49.3465 9.24483 49.3439 9.22406 49.3318C9.20472 49.3206 9.19576 49.3066 9.19217 49.2911Z" fill="#16262C" stroke="#16262C" stroke-width="1.2"/>
<path d="M9.97043 51.7724L9.97054 51.7731C9.95243 51.7774 9.93162 51.7753 9.9122 51.7654C9.89222 51.7553 9.88164 51.7413 9.8767 51.7248L9.87672 51.7247L9.87531 51.7201C9.85725 51.6613 9.89199 51.6255 9.91837 51.6179L9.91838 51.618L9.92312 51.6166C9.94712 51.6095 9.97133 51.6124 9.99247 51.6236C10.0134 51.6347 10.0236 51.6495 10.0278 51.6628C10.0418 51.7108 10.0169 51.7569 9.97043 51.7724Z" fill="#16262C" stroke="#16262C" stroke-width="1.2"/>
<path d="M10.5377 53.442C10.8959 53.3161 11.2799 53.5001 11.409 53.8486L10.5377 53.442ZM10.8481 54.0616C10.8574 54.086 10.8507 54.1267 10.8156 54.1514L10.7931 54.1601C10.757 54.174 10.7087 54.1596 10.689 54.1075C10.6816 54.0878 10.6824 54.0678 10.6916 54.0482C10.7012 54.0278 10.7165 54.015 10.7336 54.0091L10.7336 54.0091L10.7366 54.0081C10.7852 53.991 10.8308 54.0149 10.8464 54.057L10.8464 54.057L10.8481 54.0616Z" fill="#16262C" stroke="#16262C" stroke-width="1.2"/>
<path d="M11.7715 56.4014C11.7852 56.4393 11.7712 56.4776 11.7443 56.4983L11.7277 56.5048C11.6811 56.5232 11.6334 56.4992 11.6178 56.4602L11.6179 56.4602L11.6164 56.4566C11.6104 56.4419 11.6091 56.4221 11.6187 56.3995C11.6281 56.3773 11.6443 56.3617 11.6644 56.3536C11.6868 56.3444 11.7075 56.3455 11.7256 56.3532C11.7425 56.3604 11.7598 56.3745 11.7715 56.4014Z" fill="#16262C" stroke="#16262C" stroke-width="1.2"/>
<path d="M12.6589 58.8515C12.613 58.8691 12.5661 58.8456 12.5503 58.8074C12.5328 58.7614 12.5562 58.7145 12.5945 58.6988C12.6404 58.6812 12.6873 58.7047 12.7031 58.7429C12.7206 58.7889 12.6972 58.8357 12.6589 58.8515Z" fill="#16262C" stroke="#16262C" stroke-width="1.2"/>
</g>
</svg>
