<svg width="61" height="62" viewBox="0 0 61 62" fill="none" xmlns="http://www.w3.org/2000/svg">
<g opacity="0.6">
<path d="M12.0641 49.7285L8.92578 60.3963" stroke="#16262C" stroke-width="1.2" stroke-linecap="round" stroke-linejoin="round"/>
<path d="M38.0757 10.9088C38.0757 10.9088 38.2307 20.6758 32.7289 24.9152C30.2847 26.8008 26.9332 26.8008 24.4858 24.9152C18.984 20.6758 19.1389 10.9088 19.1389 10.9088C19.0033 5.60074 23.191 1.19347 28.2505 1.00621C33.5618 0.80925 38.2113 5.32629 38.0757 10.9088V10.9088Z" stroke="#16262C" stroke-width="1.2" stroke-linecap="round" stroke-linejoin="round"/>
<path d="M1 59.8992L4.66792 37.4915C4.98434 35.2055 6.65679 33.3425 8.89432 32.7839L19.7301 30.0718C20.8182 29.8006 21.7513 29.0935 22.2937 28.1119C22.9072 27.0012 23.5949 25.4998 23.6143 24.3181" stroke="#16262C" stroke-width="1.2" stroke-linecap="round" stroke-linejoin="round"/>
<path d="M12.0645 49.7284C12.552 50.6357 13.1073 51.1878 13.4786 51.501C15.3545 53.0734 17.8697 53.0669 20.0233 53.0572C20.7918 53.0572 21.4149 53.0056 21.8089 52.9668" stroke="#16262C" stroke-width="1.2" stroke-linecap="round" stroke-linejoin="round"/>
<path d="M13.0723 51.2266V61.0001" stroke="#16262C" stroke-width="1.2" stroke-linecap="round" stroke-linejoin="round"/>
<path d="M51.2686 34.8435C50.5066 33.8425 49.4153 33.0999 48.1399 32.7803L37.3041 30.0681C36.216 29.7969 35.2829 29.0898 34.7405 28.1083C34.1271 26.9976 33.4393 25.4962 33.4199 24.3145" stroke="#16262C" stroke-width="1.2" stroke-linecap="round" stroke-linejoin="round"/>
<path d="M56.0343 59.8986L53.7031 45.6533" stroke="#16262C" stroke-width="1.2" stroke-linecap="round" stroke-linejoin="round"/>
<path d="M44.9697 49.7285L48.1081 60.3963" stroke="#16262C" stroke-width="1.2" stroke-linecap="round" stroke-linejoin="round"/>
<path d="M44.97 49.7285C44.4824 50.6358 43.9271 51.1879 43.5558 51.5011C41.6799 53.0735 39.1647 53.067 37.0111 53.0574C36.2427 53.0574 35.6195 53.0057 35.2256 52.9669" stroke="#16262C" stroke-width="1.2" stroke-linecap="round" stroke-linejoin="round"/>
<path d="M43.9619 51.2266V61.0001" stroke="#16262C" stroke-width="1.2" stroke-linecap="round" stroke-linejoin="round"/>
<path d="M58.465 35.2856L42.5439 39.8996C41.6915 40.1482 41.1976 41.0393 41.4462 41.895L42.3115 44.8751C42.5601 45.7275 43.4513 46.2215 44.3069 45.9729L60.2311 41.359" stroke="#16262C" stroke-width="1.2" stroke-linecap="round" stroke-linejoin="round"/>
<path d="M41.4206 41.1007L37.9658 42.5375L39.0507 46.2764L42.7315 45.5758" stroke="#16262C" stroke-width="1.2" stroke-linecap="round" stroke-linejoin="round"/>
<path d="M38.9218 45.8307C38.9218 45.8307 34.7438 47.1901 32.3125 46.2408C33.8591 44.1389 38.1146 43.0508 38.1146 43.0508" stroke="#16262C" stroke-width="1.2" stroke-linecap="round" stroke-linejoin="round"/>
<path d="M20.918 46.2318H23.9563" stroke="#16262C" stroke-width="1.2" stroke-linecap="round" stroke-linejoin="round"/>
<path d="M26.8301 46.2317H29.8683" stroke="#16262C" stroke-width="1.2" stroke-linecap="round" stroke-linejoin="round"/>
<path d="M28.3506 38.7992V41.8375" stroke="#16262C" stroke-width="1.2" stroke-linecap="round" stroke-linejoin="round"/>
<path d="M28.3506 44.7108V47.7491" stroke="#16262C" stroke-width="1.2" stroke-linecap="round" stroke-linejoin="round"/>
<path d="M28.3506 50.6259V53.6641" stroke="#16262C" stroke-width="1.2" stroke-linecap="round" stroke-linejoin="round"/>
</g>
</svg>
